<?xml version="1.0" encoding="utf-8"?>
<!-- Generator: Adobe Illustrator 23.0.2, SVG Export Plug-In . SVG Version: 6.00 Build 0)  -->
<svg version="1.1" xmlns="http://www.w3.org/2000/svg" xmlns:xlink="http://www.w3.org/1999/xlink" x="0px" y="0px"
	 viewBox="0 0 654.55 654.55" style="enable-background:new 0 0 654.55 654.55;" xml:space="preserve">
<style type="text/css">
	.st0{fill:#F6D738;}
	.st1{fill:#F3CC30;}
	.st2{fill:#EDBD31;}
	.st3{fill:#F7DB5E;}
	.st4{fill:#AA6500;}
</style>
<g id="Object">
	<g>
		<g>
			<circle class="st0" cx="326.64" cy="329.91" r="317.5"/>
		</g>
		<g>
			<circle class="st1" cx="326.64" cy="329.91" r="269.46"/>
		</g>
		<g>
			<path class="st2" d="M467.61,99.93c26.83,41.89,42.39,91.7,42.39,145.14c0,148.82-120.64,269.46-269.46,269.46
				c-51.68,0-99.96-14.56-140.98-39.79c47.89,74.76,131.69,124.32,227.06,124.32c148.82,0,269.46-120.64,269.46-269.46
				C596.09,232.46,544.69,147.34,467.61,99.93z"/>
		</g>
		<g>
			<path class="st3" d="M104.38,354.56c0-131.37,106.49-237.86,237.86-237.86c76.79,0,145.06,36.39,188.55,92.86
				c-41.07-71.3-118.06-119.31-206.26-119.31c-131.37,0-237.86,106.49-237.86,237.86c0,54.58,18.4,104.86,49.31,145
				C115.88,438.22,104.38,397.73,104.38,354.56z"/>
		</g>
	</g>
</g>
<g id="BG">
	<g>
		<path class="st4" d="M260.08,212.45c23.18,0,40.89,4.11,53.12,12.34c12.23,8.23,18.35,20.01,18.35,35.35
			c0,7.5-0.88,13.91-2.62,19.24c-1.75,5.33-4.18,9.84-7.29,13.55c-3.11,3.71-6.82,6.78-11.12,9.2c-4.3,2.43-8.97,4.5-14,6.2
			c3.49,0.94,7.01,3.45,10.55,7.54c3.54,4.09,7.14,9.14,10.8,15.15c3.66,6.01,7.37,12.68,11.12,20.01
			c3.75,7.33,7.52,14.75,11.31,22.24c3.79,7.5,7.63,14.79,11.51,21.86c3.88,7.08,7.75,13.38,11.63,18.92
			c3.88,5.54,7.8,9.97,11.76,13.3s7.9,4.99,11.83,4.99c1.7,0,3.39-0.34,5.05-1.02c1.66-0.68,2.96-1.36,3.9-2.04l2.68,4.99
			c-1.71,0.94-3.79,1.98-6.26,3.13c-2.47,1.15-5.37,2.24-8.69,3.26c-3.32,1.02-7.05,1.9-11.19,2.62c-4.13,0.72-8.71,1.09-13.74,1.09
			c-8.27,0-15.72-2.28-22.37-6.84c-6.65-4.56-12.36-10.97-17.13-19.24c-4.86-8.52-9.63-17.47-14.32-26.85
			c-4.69-9.38-9.35-18.75-14-28.13c-4.65-9.37-9.29-18.54-13.93-27.49c-4.65-8.95-9.31-17.34-14-25.18l1.02-5.24
			c5.03,1.28,9.4,0.98,13.1-0.89c3.71-1.87,6.75-4.92,9.14-9.14c2.39-4.22,4.16-9.4,5.31-15.53s1.73-12.78,1.73-19.94
			c0-5.11-0.56-9.91-1.66-14.38c-1.11-4.47-2.66-8.39-4.67-11.76c-2-3.37-4.41-6.01-7.22-7.93s-5.97-2.88-9.46-2.88
			c-2.73,0-4.97,0.41-6.71,1.21c-1.75,0.81-3.13,1.83-4.15,3.07c-1.02,1.24-1.73,2.56-2.11,3.96s-0.58,2.75-0.58,4.03v151.62
			c0,6.56-1.73,11.34-5.18,14.32s-8.71,4.47-15.79,4.47c-7.16,0-12.44-1.49-15.85-4.47c-3.41-2.98-5.11-7.75-5.11-14.32v-152.9
			c0-4.69-3.24-7.03-9.72-7.03c-4.69,0-9.44,0.7-14.25,2.11c-4.82,1.41-9.16,3.32-13.04,5.75c-3.88,2.43-7.05,5.33-9.52,8.69
			c-2.47,3.37-3.71,7.01-3.71,10.93c0,2.73,0.36,4.9,1.09,6.52c0.72,1.62,1.55,2.83,2.49,3.64c0.94,0.81,1.9,1.32,2.88,1.53
			c0.98,0.21,1.68,0.32,2.11,0.32c2.13,0,3.88-0.36,5.24-1.09c1.36-0.72,2.6-1.49,3.71-2.3c1.11-0.81,2.15-1.58,3.13-2.3
			c0.98-0.72,2.11-1.09,3.39-1.09c1.02,0,2.11,0.24,3.26,0.7c1.15,0.47,2.22,1.21,3.2,2.24c0.98,1.02,1.81,2.37,2.49,4.03
			c0.68,1.66,1.02,3.69,1.02,6.07c0,3.41-0.66,6.35-1.98,8.82c-1.32,2.47-3.03,4.54-5.11,6.2c-2.09,1.66-4.47,2.9-7.16,3.71
			c-2.69,0.81-5.35,1.21-7.99,1.21c-4.09,0-7.78-0.7-11.06-2.11c-3.28-1.41-6.07-3.34-8.37-5.82c-2.3-2.47-4.05-5.37-5.24-8.69
			c-1.19-3.32-1.79-6.86-1.79-10.61c0-7.07,1.32-13.32,3.96-18.73c2.64-5.41,6.37-10.08,11.19-14c4.81-3.92,10.59-7.18,17.32-9.78
			c6.73-2.6,14.19-4.67,22.37-6.2c8.18-1.53,16.94-2.62,26.27-3.26C240.33,212.77,250.02,212.45,260.08,212.45z"/>
		<path class="st4" d="M374.24,293.37c0-2.47-0.58-4.62-1.73-6.46c-1.15-1.83-3.09-2.75-5.82-2.75c-1.45,0-2.68,0.26-3.71,0.77
			c-1.02,0.51-2.13,1.24-3.32,2.17l-2.68-3.2c1.96-1.62,4.15-3.22,6.58-4.79c2.43-1.58,5.05-2.96,7.86-4.15
			c2.81-1.19,5.84-2.17,9.08-2.94c3.24-0.77,6.65-1.15,10.23-1.15c3.83,0,7.12,0.6,9.84,1.79c2.73,1.19,5,2.62,6.84,4.28
			c1.83,1.66,3.22,3.41,4.16,5.24c0.94,1.83,1.49,3.39,1.66,4.67c1.7-2.39,3.73-4.56,6.07-6.52c2.34-1.96,4.9-3.64,7.67-5.05
			c2.77-1.41,5.71-2.49,8.82-3.26c3.11-0.77,6.33-1.15,9.65-1.15c6.82,0,13,1.41,18.54,4.22c5.54,2.81,10.29,6.99,14.25,12.53
			c3.96,5.54,7.01,12.4,9.14,20.58c2.13,8.18,3.2,17.64,3.2,28.38c0,12.44-1.3,23.03-3.9,31.77c-2.6,8.74-6.01,15.87-10.23,21.41
			c-4.22,5.54-9.04,9.57-14.45,12.08c-5.41,2.51-10.93,3.77-16.56,3.77c-4.69,0-8.8-0.47-12.34-1.41c-3.54-0.94-6.58-2.09-9.14-3.45
			c-2.56-1.36-4.69-2.75-6.39-4.16c-1.71-1.41-3.07-2.58-4.09-3.51v62.39c0,1.11-0.17,2.43-0.51,3.96c-0.34,1.53-1.17,3-2.49,4.41
			c-1.32,1.41-3.28,2.62-5.88,3.64c-2.6,1.02-6.16,1.53-10.67,1.53c-4.52,0-8.08-0.53-10.67-1.6c-2.6-1.07-4.58-2.35-5.94-3.84
			c-1.36-1.49-2.22-2.98-2.56-4.47c-0.34-1.49-0.51-2.71-0.51-3.64V293.37z M413.49,374.81c0,0.68,0.3,1.88,0.9,3.58
			c0.59,1.71,1.53,3.45,2.81,5.24c1.28,1.79,2.92,3.39,4.92,4.79c2,1.41,4.45,2.11,7.35,2.11c3.75,0,6.95-1.43,9.59-4.28
			c2.64-2.85,4.81-6.73,6.52-11.63c1.7-4.9,2.94-10.61,3.71-17.13c0.77-6.52,1.15-13.49,1.15-20.9c0-9.12-0.49-16.83-1.47-23.14
			c-0.98-6.31-2.41-11.4-4.28-15.28c-1.88-3.88-4.11-6.69-6.71-8.44c-2.6-1.75-5.52-2.62-8.76-2.62c-1.88,0-3.75,0.53-5.63,1.6
			c-1.88,1.07-3.56,2.39-5.05,3.96c-1.49,1.58-2.71,3.35-3.64,5.31c-0.94,1.96-1.41,3.83-1.41,5.63V374.81z"/>
	</g>
</g>
</svg>
