<?xml version="1.0" encoding="utf-8"?>
<!-- Generator: Adobe Illustrator 23.0.2, SVG Export Plug-In . SVG Version: 6.00 Build 0)  -->
<svg version="1.1" xmlns="http://www.w3.org/2000/svg" xmlns:xlink="http://www.w3.org/1999/xlink" x="0px" y="0px"
	 viewBox="0 0 208 207" style="enable-background:new 0 0 208 207;" xml:space="preserve">
<style type="text/css">
	.st0{fill:#FFFFFF;}
	.st1{opacity:0.25;}
	.st2{fill:url(#SVGID_1_);}
	.st3{fill:url(#SVGID_2_);}
	.st4{fill:url(#SVGID_3_);}
	.st5{fill:url(#SVGID_4_);}
	.st6{fill:url(#SVGID_5_);}
	.st7{fill:url(#SVGID_6_);}
	.st8{fill:#00E8BB;}
	.st9{opacity:0.4;fill:#00E8BB;}
	.st10{opacity:0.3;fill:#FFFFFF;}
	.st11{fill:none;stroke:#00B592;stroke-width:0.9776;stroke-miterlimit:10;}
	.st12{fill:#004F8D;}
	.st13{fill:none;stroke:#FFFFFF;stroke-width:1.5642;stroke-linecap:round;stroke-linejoin:round;stroke-miterlimit:10;}
	.st14{fill:#FF756D;}
	.st15{opacity:0.4;fill:#FF756D;}
	.st16{opacity:0.2;fill:#FFFFFF;}
	.st17{fill:none;stroke:#E33B30;stroke-width:0.9776;stroke-miterlimit:10;}
	.st18{fill:none;stroke:#F5EF18;stroke-width:1.5642;stroke-linecap:round;stroke-linejoin:round;stroke-miterlimit:10;}
	.st19{fill:#F947FF;}
	.st20{opacity:0.6;fill:#F947FF;}
	.st21{fill:none;stroke:#C739CC;stroke-width:0.9776;stroke-miterlimit:10;}
	.st22{fill:#9E29FF;}
	.st23{opacity:0.25;fill:#9E29FF;}
	.st24{fill:none;stroke:#7E21CC;stroke-width:0.9776;stroke-miterlimit:10;}
	.st25{fill:none;stroke:#00EBFF;stroke-width:1.5642;stroke-linecap:round;stroke-linejoin:round;stroke-miterlimit:10;}
	.st26{fill:#F5EF18;}
	.st27{opacity:0.4;}
	.st28{opacity:0.6;}
	.st29{fill:#CCC714;}
	.st30{fill:#8C0000;}
	.st31{fill:#00EBFF;}
	.st32{opacity:0.8;}
	.st33{fill:#00BCCC;}
</style>
<g id="BACKGROUND">
</g>
<g id="OBJECTS">
	<g>
		<g>
			<path class="st31" d="M170.76,182.99l-55.41-10.34l-49.5,26.96c-3.34,1.82-7.45-0.28-7.95-4.05l-7.28-55.89L9.69,100.92
				c-2.76-2.61-2.03-7.18,1.4-8.81l50.9-24.2l24.2-50.9c1.63-3.43,6.2-4.15,8.81-1.39l38.74,40.94l55.89,7.28
				c3.77,0.49,5.86,4.61,4.05,7.95l-26.96,49.5l10.34,55.41C177.76,180.42,174.49,183.69,170.76,182.99z"/>
		</g>
		<g>
			<g class="st27">
				<path class="st0" d="M88.84,22.24c-2.92,4.09-4.54,9.31-6.54,13.91c-1.79,4.12-3.59,8.24-5.38,12.37
					c-3.27,7.52-5.59,17.82-12.18,23.1c-3.47,2.78-7.94,4.5-11.88,6.51c-3.86,1.96-7.71,3.92-11.59,5.85
					c-8.13,4.04-17.17,7.63-24.57,12.9c-0.5,0.35-0.21,1.15,0.42,1.01c8.92-2.05,17.79-6.79,26.06-10.61
					c8.45-3.9,18.18-7.34,25.66-12.95c6.6-4.95,9.32-14.85,12.49-22.11c2.06-4.71,4.1-9.42,6.15-14.14
					c1.97-4.52,4.63-9.19,5.62-14.04C93.65,21.38,90.38,20.08,88.84,22.24z"/>
			</g>
			<g class="st27">
				<path class="st0" d="M114.45,163.72c-17.06,6.46-32.85,16.39-48.34,25.96c-1.25-17.01-3.38-34.4-8.38-50.71
					c-0.14-0.46-0.94-0.4-0.88,0.12c2.1,17.92,4.91,35.64,5.86,53.7c0.07,1.35,1.49,2.28,2.72,1.56
					c16.5-9.64,34.16-17.06,50.85-26.3C118.57,166.79,117.01,162.75,114.45,163.72z"/>
			</g>
			<g class="st27">
				<path class="st0" d="M187.24,68.46c-4.19-1.27-8.77-1.13-13.11-1.52c-4.95-0.44-9.88-1.03-14.77-1.94
					c-3.71-0.69-7.41-1.85-11.19-2.11c-4.76-0.33-9.41,1.35-13.98-0.77c-0.45-0.21-0.77,0.36-0.38,0.65
					c2.8,2.07,5.75,2.51,9.17,2.75c5.09,0.35,9.62,1.5,14.56,2.66c4.7,1.1,9.47,1.86,14.25,2.51c4.82,0.65,10.14,1.77,14.99,1.14
					C188.61,71.6,189.23,69.06,187.24,68.46z"/>
			</g>
			<g class="st32">
				<path class="st31" d="M130.04,59.76c-4.09-6.35-10.46-11.39-15.76-16.72c-5.2-5.23-9.91-11.52-15.85-15.91
					c-0.09-0.07-0.24,0.05-0.2,0.16c2.62,6.68,7.9,12.61,12.4,18.14c4.87,5.98,10.2,12.91,17.02,16.73
					C129.12,62.99,131.02,61.28,130.04,59.76z"/>
			</g>
			<g class="st32">
				<path class="st31" d="M54.33,128.36c-4.76-5.87-11.64-10.18-17.49-14.9c-5.74-4.63-11.11-10.37-17.49-14.09
					c-0.1-0.06-0.24,0.07-0.18,0.18c3.33,6.36,9.23,11.68,14.3,16.68c5.5,5.41,11.54,11.72,18.74,14.78
					C53.76,131.67,55.47,129.76,54.33,128.36z"/>
			</g>
			<g class="st32">
				<path class="st31" d="M173.7,93.74c3.38-6.73,8.96-12.84,11.45-19.92c0.02-0.06-0.05-0.11-0.1-0.08
					c-6.26,4.16-11.16,11.51-15.54,17.54c-5.12,7.04-8.95,15.55-10.45,24.16c-1.46,8.36-0.45,16.28,1.74,24.41
					c1.2,4.47,2.48,8.93,3.72,13.39c1.12,4.05,2.11,8.23,5.21,11.24c1.03,1,2.92,0.6,3.27-0.86c1.77-7.31-2.72-16.14-4.78-23.07
					c-2.4-8.04-4.2-15.84-2.81-24.27C166.73,108.24,170.07,100.97,173.7,93.74z"/>
			</g>
			<g class="st32">
				<path class="st31" d="M163.23,168.73c-6.62-2.11-13.55-2-20.41-2.55c-7-0.57-14.02-1.7-21.04-1.91
					c-0.67-0.02-0.77,0.82-0.31,1.15c10.61,7.85,29.19,12.77,41.76,7.49C165.13,172.1,165.43,169.42,163.23,168.73z"/>
			</g>
		</g>
		<g>
			<path class="st33" d="M63.28,196.85c-0.85,0-1.83-0.61-1.97-1.73l-7.28-55.89c-0.1-0.78-0.47-1.5-1.04-2.04L12.05,98.44
				c-0.66-0.62-0.66-1.36-0.6-1.75c0.06-0.39,0.29-1.09,1.11-1.48l50.9-24.2c0.71-0.34,1.28-0.91,1.62-1.62l24.2-50.9
				c0.5-1.05,1.51-1.13,1.8-1.13c0.38,0,0.94,0.11,1.43,0.62l38.74,40.94c0.54,0.57,1.27,0.94,2.04,1.04l55.89,7.28
				c0.9,0.12,1.33,0.72,1.51,1.07c0.3,0.59,0.29,1.27-0.03,1.85l-26.96,49.5c-0.38,0.69-0.5,1.49-0.36,2.26l10.34,55.41
				c0.11,0.59-0.04,1.17-0.42,1.63c-0.47,0.56-1.17,0.82-1.89,0.69l-55.41-10.34c-0.77-0.14-1.58-0.01-2.26,0.36l-49.5,26.96
				C63.92,196.76,63.61,196.85,63.28,196.85L63.28,196.85C63.28,196.85,63.28,196.85,63.28,196.85z M91.08,18.33
				c-0.19,0-0.67,0.06-0.92,0.57l-24.2,50.9c-0.43,0.91-1.17,1.65-2.08,2.08l-50.9,24.2c-0.4,0.19-0.52,0.51-0.56,0.75
				c-0.04,0.24-0.02,0.59,0.3,0.89l40.94,38.74c0.73,0.69,1.21,1.63,1.34,2.63l7.28,55.89c0.07,0.57,0.57,0.88,1,0.88c0,0,0,0,0,0h0
				c0.16,0,0.32-0.04,0.47-0.13l49.5-26.96c0.88-0.48,1.91-0.65,2.91-0.46l55.41,10.34c0.37,0.07,0.72-0.06,0.96-0.35
				c0.2-0.24,0.27-0.51,0.21-0.82l-10.34-55.41c-0.19-0.99-0.02-2.02,0.46-2.91l26.96-49.5c0.21-0.38,0.12-0.72,0.01-0.94
				s-0.33-0.49-0.77-0.54l-55.89-7.28c-1-0.13-1.93-0.61-2.63-1.34L91.8,18.64C91.61,18.43,91.36,18.33,91.08,18.33z"/>
		</g>
		<g>
			<polygon class="st31" points="139.14,47.03 133.8,21.8 144.61,21.8 			"/>
		</g>
		<g>
			<polygon class="st31" points="150.09,50.68 167.21,31.54 173.46,41.11 			"/>
		</g>
		<g>
			<g>
				<g>
					<g>
						<path class="st0" d="M182.58,187.53c-0.47,0-0.92-0.19-1.25-0.53l-8.15-8.35l-1.52,5.41c-0.15,0.54-0.63,0.9-1.19,0.9
							c-0.51,0-0.96-0.3-1.14-0.77l-8.06-20.04c-0.16-0.4-0.11-0.84,0.13-1.2c0.24-0.36,0.64-0.57,1.06-0.57
							c0.18,0,0.35,0.04,0.52,0.11l19.79,8.67c0.49,0.22,0.78,0.7,0.74,1.23c-0.05,0.53-0.41,0.96-0.93,1.09l-5.45,1.36l8.14,8.34
							c0.67,0.69,0.66,1.8-0.03,2.47l-1.42,1.39C183.48,187.36,183.04,187.53,182.58,187.53L182.58,187.53z"/>
					</g>
				</g>
				<g>
					<g>
						<path class="st31" d="M162.46,163.17c0.07,0,0.14,0.01,0.2,0.04l19.79,8.67c0.4,0.17,0.35,0.75-0.07,0.85l-6.77,1.69
							l9.09,9.31c0.37,0.38,0.36,0.99-0.02,1.36l-1.42,1.39c-0.19,0.18-0.43,0.27-0.67,0.27c-0.25,0-0.5-0.1-0.69-0.29l-9.1-9.32
							l-1.89,6.71c-0.06,0.22-0.25,0.33-0.44,0.33c-0.17,0-0.34-0.09-0.42-0.28L162,163.86
							C161.86,163.51,162.13,163.17,162.46,163.17 M162.46,161.6c-0.69,0-1.33,0.34-1.71,0.91c-0.38,0.57-0.46,1.29-0.2,1.92
							l8.06,20.04c0.31,0.77,1.04,1.26,1.87,1.26c0.91,0,1.69-0.59,1.94-1.47l1.16-4.11l7.21,7.38c0.48,0.49,1.12,0.76,1.81,0.76
							c0.66,0,1.29-0.26,1.77-0.72l1.42-1.39c0.48-0.47,0.75-1.1,0.76-1.78c0.01-0.68-0.25-1.31-0.72-1.8l-7.18-7.36l4.13-1.03
							c0.84-0.21,1.45-0.93,1.52-1.79c0.07-0.86-0.41-1.67-1.2-2.02l-19.79-8.67C163.02,161.66,162.74,161.6,162.46,161.6
							L162.46,161.6z"/>
					</g>
				</g>
			</g>
			<g>
				<g>
					<g>
						<path class="st12" d="M153.64,156.06c-0.2,0-0.4-0.08-0.55-0.23l-7.74-7.74c-0.31-0.3-0.31-0.8,0-1.11
							c0.31-0.31,0.8-0.31,1.11,0l7.74,7.74c0.31,0.3,0.31,0.8,0,1.11C154.04,155.99,153.84,156.06,153.64,156.06z"/>
					</g>
				</g>
				<g>
					<g>
						<path class="st12" d="M170.78,156.06c-0.2,0-0.4-0.08-0.55-0.23c-0.31-0.3-0.31-0.8,0-1.11l7.74-7.74
							c0.31-0.31,0.8-0.31,1.11,0c0.31,0.3,0.31,0.8,0,1.11l-7.74,7.74C171.18,155.99,170.98,156.06,170.78,156.06z"/>
					</g>
				</g>
				<g>
					<g>
						<path class="st12" d="M145.9,180.95c-0.2,0-0.4-0.08-0.55-0.23c-0.31-0.3-0.31-0.8,0-1.11l7.74-7.74
							c0.31-0.31,0.8-0.31,1.11,0c0.31,0.3,0.31,0.8,0,1.11l-7.74,7.74C146.3,180.87,146.1,180.95,145.9,180.95z"/>
					</g>
				</g>
				<g>
					<g>
						<path class="st12" d="M162.21,152.51c-0.43,0-0.78-0.35-0.78-0.78v-10.95c0-0.43,0.35-0.78,0.78-0.78s0.78,0.35,0.78,0.78
							v10.95C162.99,152.16,162.64,152.51,162.21,152.51z"/>
					</g>
				</g>
				<g>
					<g>
						<path class="st12" d="M150.09,164.63h-10.95c-0.43,0-0.78-0.35-0.78-0.78s0.35-0.78,0.78-0.78h10.95
							c0.43,0,0.78,0.35,0.78,0.78S150.52,164.63,150.09,164.63z"/>
					</g>
				</g>
			</g>
		</g>
		<g>
			<path class="st0" d="M76.77,111.42c1.5,0.29,2.89,0.98,4.16,2.08c0.68,0.58,1.28,1.21,1.79,1.89c0.51,0.68,0.96,1.37,1.34,2.05
				s0.69,1.35,0.94,1.98c0.25,0.64,0.45,1.18,0.61,1.64c0.47,1.45,0.76,2.81,0.88,4.1c0.12,1.28,0.04,2.36-0.22,3.23
				c-0.13,0.46-0.4,0.81-0.8,1.04c-0.4,0.23-0.83,0.29-1.3,0.18c-0.47-0.12-0.81-0.37-1.03-0.75s-0.26-0.81-0.13-1.27
				c0.09-0.32,0.13-0.79,0.11-1.42c-0.02-0.62-0.11-1.35-0.28-2.18c-1.14,0.66-2.26,1.33-3.34,2.01c-1.08,0.68-2.05,1.31-2.89,1.88
				c-0.84,0.57-1.52,1.04-2.04,1.41c-0.52,0.37-0.79,0.55-0.81,0.56c-0.08,0.05-0.2,0.12-0.37,0.19c-0.23,0.1-0.45,0.14-0.66,0.13
				c0.46,0.52,0.94,0.97,1.44,1.34c0.38,0.25,0.59,0.6,0.65,1.05s-0.05,0.87-0.34,1.25c-0.18,0.24-0.42,0.42-0.74,0.55
				c-0.57,0.23-1.13,0.18-1.67-0.17c-0.93-0.69-1.82-1.58-2.68-2.68c-0.86-1.1-1.61-2.3-2.24-3.61c-0.7-1.4-1.17-2.77-1.43-4.12
				c-0.31-1.49-0.37-2.93-0.18-4.34c0.24-1.64,0.84-3.06,1.79-4.26c1.04-1.33,2.45-2.36,4.23-3.09
				C73.35,111.32,75.09,111.11,76.77,111.42z M71.78,127.18c0.05-0.05,0.38-0.27,0.97-0.68c0.59-0.41,1.35-0.92,2.29-1.54
				c0.93-0.62,1.99-1.3,3.17-2.05c1.18-0.74,2.4-1.47,3.64-2.17c-0.43-0.99-0.92-1.89-1.46-2.7c-0.54-0.81-1.13-1.49-1.78-2.03
				c-1.72-1.48-3.65-1.78-5.79-0.91c-2.27,0.93-3.56,2.49-3.88,4.69c-0.1,0.66-0.12,1.34-0.04,2.03c0.07,0.7,0.21,1.41,0.41,2.13
				c0.2,0.73,0.46,1.43,0.78,2.12c0.32,0.69,0.67,1.35,1.05,1.98C71.26,127.69,71.48,127.4,71.78,127.18z"/>
			<path class="st0" d="M86.8,114.94c0.39-0.85,0.92-1.6,1.59-2.24c0.67-0.64,1.42-1.13,2.27-1.48c1.33-0.5,2.64-0.56,3.94-0.18
				c-0.36-0.94-0.71-1.84-1.03-2.7s-0.61-1.61-0.85-2.27c-0.25-0.66-0.5-1.38-0.78-2.18c-0.15-0.42-0.11-0.84,0.09-1.27
				c0.21-0.43,0.53-0.71,0.97-0.84c0.45-0.16,0.89-0.14,1.32,0.05c0.43,0.19,0.71,0.5,0.86,0.91c0.32,0.91,0.62,1.74,0.9,2.47
				s0.59,1.58,0.94,2.54c0.36,0.96,0.74,1.94,1.15,2.93c0.64,1.57,1.2,2.88,1.68,3.93s0.89,1.9,1.23,2.54
				c0.34,0.65,0.62,1.13,0.83,1.44c0.21,0.32,0.37,0.54,0.47,0.66c0.27,0.06,0.52,0.17,0.75,0.33c0.23,0.17,0.4,0.38,0.51,0.65
				c0.17,0.43,0.16,0.85-0.03,1.28s-0.51,0.72-0.93,0.9c-0.59,0.24-1.17,0.24-1.71-0.01c-0.18-0.07-0.36-0.17-0.55-0.31
				c-0.19-0.13-0.41-0.34-0.65-0.63c-0.14,0.39-0.29,0.72-0.46,1.01c-0.17,0.28-0.34,0.52-0.51,0.71c-0.33,0.42-0.71,0.78-1.15,1.09
				c-0.44,0.31-0.91,0.57-1.39,0.77c-0.57,0.23-1.18,0.39-1.81,0.47c-0.64,0.08-1.28,0.08-1.94-0.01c-1.36-0.18-2.55-0.68-3.57-1.51
				c-1.02-0.83-1.77-1.89-2.25-3.19c-0.38-0.99-0.56-1.98-0.53-2.97C86.16,116.84,86.38,115.87,86.8,114.94z M93.1,122.2
				c0.6,0.09,1.18,0.04,1.72-0.13s0.98-0.47,1.3-0.89c0.38-0.46,0.57-1.05,0.58-1.75c0.01-0.7-0.16-1.48-0.51-2.34
				c-0.52-1.21-1.16-2.06-1.91-2.55c-0.75-0.49-1.55-0.57-2.38-0.26l-0.03,0.01c-0.42,0.17-0.79,0.43-1.11,0.76
				c-0.32,0.33-0.59,0.72-0.8,1.16c-0.17,0.36-0.29,0.82-0.35,1.39c-0.06,0.57,0.04,1.23,0.29,1.98c0.19,0.52,0.43,0.94,0.72,1.27
				s0.6,0.59,0.91,0.78c0.31,0.19,0.61,0.33,0.89,0.4C92.69,122.13,92.92,122.18,93.1,122.2z"/>
			<path class="st0" d="M122.98,99.35c0.56,0.15,1.09,0.38,1.61,0.67c0.52,0.3,0.99,0.67,1.42,1.11c0.61,0.65,1.12,1.4,1.53,2.24
				c0.41,0.84,0.68,1.76,0.81,2.75c0.14,1.01,0.14,2.01-0.02,3s-0.45,1.91-0.9,2.75c-0.2,0.42-0.53,0.7-0.97,0.86
				c-0.44,0.16-0.88,0.13-1.31-0.07c-0.42-0.18-0.71-0.49-0.86-0.91c-0.15-0.42-0.11-0.85,0.11-1.27c0.31-0.63,0.51-1.27,0.58-1.93
				c0.08-0.66,0.06-1.31-0.04-1.95s-0.28-1.23-0.54-1.77c-0.26-0.55-0.57-1.01-0.92-1.39c-0.91-0.96-1.98-1.18-3.21-0.68
				c-0.55,0.23-1.05,0.67-1.5,1.33c-0.45,0.66-0.83,1.49-1.13,2.5l-0.01,0.07c0.17,0.29,0.32,0.58,0.46,0.86
				c0.14,0.29,0.26,0.55,0.36,0.8c0.62,1.51,0.95,2.93,1,4.26c0,0.78-0.07,1.43-0.21,1.94c-0.18,0.59-0.43,1.03-0.75,1.29
				c-0.33,0.26-0.59,0.44-0.81,0.53c-0.42,0.17-0.84,0.24-1.25,0.21s-0.79-0.18-1.14-0.44c-0.49-0.35-0.87-0.85-1.13-1.5
				c-0.34-0.83-0.53-1.91-0.55-3.21c-0.03-1.31,0.09-2.64,0.35-4.01c-0.06-0.09-0.12-0.17-0.17-0.23s-0.11-0.13-0.19-0.19
				c-0.25-0.25-0.49-0.43-0.72-0.54s-0.43-0.17-0.6-0.2c-0.17-0.03-0.32-0.02-0.45,0.03c-0.13,0.04-0.24,0.08-0.33,0.11
				c-0.76,0.31-1.34,1-1.72,2.06c-0.38,1.06-0.58,2.4-0.58,4.02c0,0.72,0.03,1.41,0.11,2.08c0.08,0.67,0.15,1.26,0.23,1.78
				c0.07,0.52,0.18,1.09,0.32,1.72c0.11,0.38,0.07,0.75-0.11,1.1c-0.18,0.35-0.45,0.62-0.82,0.82l-0.1,0.04
				c-0.36,0.15-0.72,0.18-1.08,0.08c-0.36-0.09-0.66-0.28-0.9-0.56c-0.04-0.03-0.18-0.22-0.44-0.57c-0.25-0.35-0.56-0.8-0.91-1.36
				s-0.73-1.21-1.14-1.96c-0.41-0.75-0.77-1.55-1.1-2.42c-0.33-0.86-0.59-1.77-0.78-2.71c-0.19-0.94-0.25-1.89-0.2-2.84
				c0-0.48,0.18-0.87,0.54-1.18c0.36-0.31,0.77-0.46,1.25-0.44c0.47,0,0.86,0.17,1.17,0.5c0.31,0.34,0.46,0.73,0.45,1.19
				c-0.05,0.38-0.04,0.77,0.01,1.17s0.12,0.83,0.2,1.27c0.07-0.5,0.15-0.99,0.26-1.46c0.11-0.47,0.24-0.9,0.4-1.3
				c0.33-0.89,0.77-1.68,1.34-2.36c0.65-0.77,1.43-1.33,2.35-1.71c0.83-0.34,1.65-0.46,2.48-0.38s1.62,0.38,2.37,0.88
				c0.48-1.01,1.05-1.86,1.71-2.55c0.66-0.7,1.4-1.21,2.22-1.55C120.38,99.17,121.69,99.05,122.98,99.35z"/>
			<path class="st0" d="M127.45,93.21c-0.49,0.2-0.98,0.2-1.46,0.01c-0.49-0.19-0.83-0.52-1.02-0.99c-0.19-0.47-0.18-0.94,0.04-1.41
				c0.22-0.47,0.57-0.8,1.06-1c0.49-0.2,0.97-0.21,1.46-0.03c0.48,0.18,0.82,0.51,1.01,0.98c0.19,0.47,0.18,0.94-0.03,1.42
				C128.29,92.67,127.94,93.01,127.45,93.21z M136.61,108.52c-1.12,0.46-2.24,0.42-3.36-0.12c-1.41-0.66-2.69-2.04-3.84-4.13
				c-0.5-0.91-0.96-1.91-1.37-2.98c-0.42-1.08-0.77-2.21-1.06-3.4c-0.1-0.43-0.03-0.85,0.21-1.25c0.25-0.4,0.6-0.66,1.08-0.78
				c0.44-0.13,0.86-0.08,1.27,0.16c0.41,0.24,0.66,0.57,0.76,1c0.59,2.35,1.32,4.25,2.18,5.7s1.64,2.35,2.32,2.68
				c0.16,0.08,0.28,0.11,0.36,0.1c0.08-0.01,0.14-0.02,0.19-0.04c0.45-0.18,0.88-0.18,1.32,0c0.43,0.18,0.73,0.47,0.9,0.88
				c0.17,0.43,0.17,0.85-0.02,1.27C137.38,108.04,137.06,108.34,136.61,108.52z"/>
			<path class="st0" d="M147.83,89.18c1.17,0.31,2.19,0.9,3.07,1.77c0.61,0.65,1.12,1.4,1.52,2.25s0.66,1.77,0.79,2.76
				c0.14,1.01,0.14,2.01,0,2.99c-0.14,0.98-0.44,1.9-0.88,2.75c-0.19,0.39-0.49,0.66-0.89,0.83c-0.49,0.2-0.96,0.19-1.42-0.02
				c-0.42-0.18-0.7-0.49-0.84-0.92c-0.14-0.43-0.11-0.85,0.09-1.27c0.31-0.63,0.51-1.27,0.58-1.93c0.08-0.66,0.06-1.31-0.03-1.95
				c-0.1-0.64-0.28-1.23-0.54-1.77c-0.26-0.55-0.57-1.01-0.92-1.39c-0.91-0.96-1.98-1.18-3.21-0.68c-0.76,0.31-1.34,1-1.72,2.06
				c-0.4,1.02-0.6,2.34-0.61,3.96c0,0.74,0.04,1.44,0.1,2.11s0.14,1.27,0.23,1.79c0.09,0.52,0.2,1.1,0.34,1.73
				c0.09,0.39,0.04,0.76-0.14,1.11s-0.45,0.62-0.82,0.82c-0.35,0.17-0.72,0.21-1.11,0.13c-0.39-0.08-0.71-0.27-0.96-0.57
				c-0.04-0.03-0.18-0.22-0.44-0.57c-0.25-0.35-0.56-0.8-0.91-1.36s-0.73-1.21-1.12-1.97c-0.39-0.75-0.76-1.56-1.08-2.42
				c-0.33-0.86-0.59-1.77-0.79-2.71c-0.2-0.94-0.27-1.88-0.21-2.83c0.02-0.49,0.21-0.88,0.55-1.19s0.76-0.45,1.23-0.43
				c0.47,0,0.86,0.17,1.17,0.5c0.31,0.34,0.46,0.73,0.45,1.19c-0.04,0.75,0.04,1.56,0.25,2.43c0.12-1.05,0.32-1.96,0.62-2.75
				c0.33-0.89,0.77-1.68,1.34-2.36c0.65-0.77,1.45-1.34,2.38-1.72C145.23,89,146.54,88.88,147.83,89.18z"/>
		</g>
	</g>
</g>
</svg>
