<?xml version="1.0" encoding="utf-8"?>
<!-- Generator: Adobe Illustrator 23.0.2, SVG Export Plug-In . SVG Version: 6.00 Build 0)  -->
<svg version="1.1" xmlns="http://www.w3.org/2000/svg" xmlns:xlink="http://www.w3.org/1999/xlink" x="0px" y="0px"
	 viewBox="0 0 237 182" style="enable-background:new 0 0 237 182;" xml:space="preserve">
<style type="text/css">
	.st0{fill:#FFFFFF;}
	.st1{opacity:0.25;}
	.st2{fill:url(#SVGID_1_);}
	.st3{fill:url(#SVGID_2_);}
	.st4{fill:url(#SVGID_3_);}
	.st5{fill:url(#SVGID_4_);}
	.st6{fill:url(#SVGID_5_);}
	.st7{fill:url(#SVGID_6_);}
	.st8{fill:#00E8BB;}
	.st9{opacity:0.4;fill:#00E8BB;}
	.st10{opacity:0.3;fill:#FFFFFF;}
	.st11{fill:none;stroke:#00B592;stroke-width:0.9776;stroke-miterlimit:10;}
	.st12{fill:#004F8D;}
	.st13{fill:none;stroke:#FFFFFF;stroke-width:1.5642;stroke-linecap:round;stroke-linejoin:round;stroke-miterlimit:10;}
	.st14{fill:#FF756D;}
	.st15{opacity:0.4;fill:#FF756D;}
	.st16{opacity:0.2;fill:#FFFFFF;}
	.st17{fill:none;stroke:#E33B30;stroke-width:0.9776;stroke-miterlimit:10;}
	.st18{fill:none;stroke:#F5EF18;stroke-width:1.5642;stroke-linecap:round;stroke-linejoin:round;stroke-miterlimit:10;}
	.st19{fill:#F947FF;}
	.st20{opacity:0.6;fill:#F947FF;}
	.st21{fill:none;stroke:#C739CC;stroke-width:0.9776;stroke-miterlimit:10;}
	.st22{fill:#9E29FF;}
	.st23{opacity:0.25;fill:#9E29FF;}
	.st24{fill:none;stroke:#7E21CC;stroke-width:0.9776;stroke-miterlimit:10;}
	.st25{fill:none;stroke:#00EBFF;stroke-width:1.5642;stroke-linecap:round;stroke-linejoin:round;stroke-miterlimit:10;}
	.st26{fill:#F5EF18;}
	.st27{opacity:0.4;}
	.st28{opacity:0.6;}
	.st29{fill:#CCC714;}
	.st30{fill:#8C0000;}
	.st31{fill:#00EBFF;}
	.st32{opacity:0.8;}
	.st33{fill:#00BCCC;}
</style>
<g id="BACKGROUND">
</g>
<g id="OBJECTS">
	<g>
		<g>
			<path class="st26" d="M202.09,30.85L51.07,62.64c-9.63,2.03-15.24,12.09-11.91,21.35l17.43,48.41
				c2.32,6.43,8.42,10.72,15.25,10.72h78.48l-11.87,23.59c-0.67,1.33,0.95,2.63,2.11,1.7l31.18-25.29h14.85
				c7.52,0,14.06-5.18,15.78-12.5l18.83-80.21C223.92,38.86,213.7,28.41,202.09,30.85z"/>
		</g>
		<g>
			<g class="st27">
				<path class="st0" d="M206.86,40.01c-6.91-3.19-17.36-0.31-24.67,0.76c-8.83,1.29-17.59,3.01-26.35,4.69
					c-18.4,3.54-36.81,7.08-55.21,10.62c-8.88,1.71-17.77,3.42-26.65,5.13c-7.14,1.37-15.67,1.98-21.95,6.04
					c-4.95,3.2-7.66,8.63-7.24,14.51c0.48,6.85,5.96,11.96,10.05,16.93c0.33,0.4,0.94-0.11,0.7-0.54
					c-2.99-5.4-6.28-14.51-4.03-20.66c2.36-6.45,10.76-7.39,16.6-8.52c15.54-3.01,31.09-6,46.64-9c15.54-3,31.07-6,46.61-8.99
					c7.5-1.44,15.01-2.87,22.57-3.98c4.12-0.6,8.25-1.1,12.39-1.45c3.77-0.32,7.18-0.15,10.56-1.99
					C208.13,42.88,208.27,40.67,206.86,40.01z"/>
			</g>
			<g class="st27">
				<path class="st0" d="M57.6,104.58c-0.14-0.24-0.29-0.4-0.46-0.58c-0.21-0.23-0.46-0.39-0.75-0.48c-0.28-0.15-0.58-0.21-0.9-0.2
					c-0.62,0.03-1.22,0.23-1.66,0.69c-0.17,0.18-0.32,0.34-0.46,0.58c-0.33,0.57-0.45,1.31-0.26,1.95c0.04,0.13,0.08,0.26,0.13,0.39
					c0.08,0.19,0.16,0.37,0.24,0.56c0.15,0.27,0.35,0.49,0.6,0.66c0.15,0.14,0.32,0.25,0.52,0.3c0.28,0.15,0.58,0.21,0.9,0.2
					c0.21-0.03,0.41-0.06,0.62-0.08c0.19-0.08,0.37-0.16,0.56-0.24c0.53-0.28,0.9-0.85,1.07-1.4c0.04-0.13,0.09-0.26,0.13-0.39
					C58.05,105.89,57.93,105.15,57.6,104.58z"/>
			</g>
			<g class="st27">
				<path class="st0" d="M58.89,111.04c-3.18,0-3.19,4.95,0,4.95C62.08,115.99,62.08,111.04,58.89,111.04z"/>
			</g>
			<g class="st27">
				<path class="st0" d="M61.58,119.27c-3.18,0-3.19,4.95,0,4.95C64.77,124.22,64.77,119.27,61.58,119.27z"/>
			</g>
			<g class="st27">
				<path class="st0" d="M150.29,128.65c-7.55-1.17-15.72,0.66-23.29,1.3c-7.89,0.67-15.8,1.14-23.71,1.46
					c-7.46,0.3-14.98,0.68-22.44,0.62c-6.05-0.05-12.28-1-16.74-5.49c-0.08-0.08-0.19,0-0.17,0.1c2.41,12.56,22.7,10.47,31.76,10.38
					c9.18-0.09,18.35-0.42,27.51-0.93c8.63-0.49,18.96,0.07,27.08-3.13C152.08,132.26,152.73,129.03,150.29,128.65z"/>
			</g>
			<g class="st27">
				<path class="st0" d="M158.12,137.22c-0.53-1.54-2.78-2.07-3.64-0.48c-1.81,3.35-1.6,7.61-2.76,11.25
					c-1.36,4.28-3.84,7.97-5.76,12c-0.13,0.27,0.14,0.58,0.42,0.42c4.08-2.24,6.79-6.1,8.88-10.18
					C157.2,146.48,159.58,141.43,158.12,137.22z"/>
			</g>
			<g class="st28">
				<path class="st26" d="M215.3,41.99c-0.63-2.26-4.15-2.99-5.28-0.69c-0.91,1.86-2.21,3.61-2.85,5.6c-0.8,2.47-0.8,5.35-1.14,7.91
					c-0.69,5.21-1.54,10.41-2.53,15.57c-1.94,10.17-4.3,20.31-7.11,30.28c-1.32,4.69-2.47,9.43-3.9,14.09
					c-1.41,4.62-2.39,9.94-4.47,14.31c-2.37,4.97-7.46,2.36-11.82,3.27c-3.16,0.66-6.25,2.1-7.81,5.02c-0.2,0.37,0.13,0.71,0.5,0.66
					c2.27-0.31,4.42-1.11,6.7-1.34c2.72-0.28,4.97,0.5,7.59,0.88c3.39,0.5,6.22-0.81,8.43-3.36c2.94-3.39,4.91-7.99,6.67-12.06
					c2.2-5.07,4.48-10.19,6.29-15.41c3.61-10.37,6.39-21.03,8.51-31.8c1.12-5.69,2.06-11.4,2.85-17.15
					c0.35-2.55,0.88-5.16,0.98-7.73C217.04,47.14,216.07,44.73,215.3,41.99z"/>
			</g>
		</g>
		<g>
			<path class="st29" d="M151.36,154.72c-0.41,0-0.82-0.14-1.17-0.42c-0.71-0.57-0.91-1.49-0.5-2.3l3.69-7.34
				c0.72-1.42,0.36-3.14-0.88-4.18c-0.6-0.5-1.42-0.78-2.32-0.78H71.84c-5.38,0-10.21-3.4-12.03-8.46L42.38,82.84
				c-1.25-3.48-0.94-7.33,0.86-10.56c1.8-3.23,4.91-5.52,8.53-6.28L202.79,34.2c4.77-1,9.65,0.78,12.67,4.59
				c2.43,3.06,3.31,7.02,2.41,10.84l-18.83,80.21c-1.36,5.81-6.48,9.87-12.45,9.87h-14.85c-0.78,0-1.55,0.27-2.15,0.76l-17.05,13.83
				C152.19,154.58,151.78,154.72,151.36,154.72z M154.25,145.1l-3.69,7.34c-0.24,0.48-0.03,0.88,0.24,1.1
				c0.27,0.22,0.71,0.33,1.13,0l17.04-13.83c0.78-0.63,1.76-0.98,2.77-0.98h14.85c5.51,0,10.24-3.75,11.5-9.11l18.83-80.21
				c0.83-3.54,0.02-7.19-2.22-10.01c-2.79-3.53-7.29-5.18-11.71-4.24L51.98,66.95c-3.34,0.7-6.22,2.82-7.88,5.8
				c-1.66,2.98-1.96,6.54-0.8,9.75l17.43,48.41c1.68,4.67,6.15,7.81,11.11,7.81h78.35c1.13,0,2.17,0.36,2.95,1.01
				C154.71,141.07,155.17,143.27,154.25,145.1L154.25,145.1z"/>
		</g>
		<g>
			<polygon class="st26" points="39.69,98.88 15.84,89.06 13.89,99.7 			"/>
		</g>
		<g>
			<polygon class="st26" points="41.29,110.31 19.37,123.68 27.65,131.57 			"/>
		</g>
		<g>
			<g>
				<g>
					<path class="st0" d="M226.08,101.59c-0.47,0-0.92-0.19-1.25-0.53l-8.15-8.35l-1.52,5.41c-0.15,0.54-0.63,0.9-1.19,0.9
						c-0.51,0-0.96-0.3-1.14-0.78l-8.06-20.04c-0.16-0.4-0.11-0.84,0.13-1.2c0.24-0.36,0.64-0.57,1.06-0.57
						c0.18,0,0.35,0.04,0.52,0.11l19.79,8.67c0.48,0.21,0.78,0.71,0.74,1.24c-0.05,0.54-0.41,0.96-0.93,1.09l-5.45,1.36l8.14,8.33
						c0.67,0.69,0.66,1.8-0.03,2.47l-1.42,1.39C226.97,101.41,226.54,101.59,226.08,101.59
						C226.08,101.59,226.08,101.59,226.08,101.59z"/>
				</g>
				<g>
					<path class="st12" d="M205.95,77.22c0.07,0,0.14,0.01,0.2,0.04l19.79,8.67c0.4,0.17,0.35,0.75-0.07,0.85l-6.77,1.69l9.09,9.31
						c0.37,0.38,0.36,0.99-0.02,1.36l-1.42,1.39c-0.19,0.18-0.43,0.27-0.67,0.27c-0.25,0-0.5-0.1-0.69-0.29l-9.1-9.32l-1.89,6.71
						c-0.06,0.22-0.25,0.33-0.44,0.33c-0.17,0-0.34-0.09-0.42-0.28l-8.06-20.04C205.35,77.56,205.62,77.22,205.95,77.22
						 M205.95,75.66c-0.69,0-1.33,0.34-1.71,0.91c-0.38,0.57-0.46,1.29-0.2,1.92l8.06,20.04c0.31,0.77,1.04,1.26,1.87,1.26
						c0.91,0,1.69-0.59,1.94-1.47l1.16-4.11l7.21,7.38c0.48,0.49,1.12,0.76,1.81,0.76c0.66,0,1.29-0.26,1.77-0.72l1.42-1.39
						c0.48-0.47,0.75-1.1,0.76-1.78c0.01-0.68-0.25-1.31-0.72-1.8l-7.18-7.36l4.13-1.03c0.84-0.21,1.45-0.93,1.52-1.79
						c0.07-0.86-0.41-1.67-1.2-2.02l-19.79-8.67C206.52,75.72,206.24,75.66,205.95,75.66L205.95,75.66z"/>
				</g>
			</g>
			<g>
				<g>
					<path class="st22" d="M197.13,70.12c-0.2,0-0.4-0.08-0.55-0.23l-7.74-7.74c-0.31-0.3-0.31-0.8,0-1.11c0.3-0.31,0.8-0.31,1.11,0
						l7.74,7.74c0.31,0.3,0.31,0.8,0,1.11C197.53,70.04,197.33,70.12,197.13,70.12z"/>
				</g>
				<g>
					<path class="st22" d="M214.28,70.12c-0.2,0-0.4-0.08-0.55-0.23c-0.31-0.3-0.31-0.8,0-1.11l7.74-7.74c0.3-0.31,0.8-0.31,1.11,0
						c0.31,0.3,0.31,0.8,0,1.11l-7.74,7.74C214.68,70.04,214.48,70.12,214.28,70.12z"/>
				</g>
				<g>
					<path class="st22" d="M189.39,95c-0.2,0-0.4-0.08-0.55-0.23c-0.31-0.3-0.31-0.8,0-1.11l7.74-7.74c0.3-0.31,0.8-0.31,1.11,0
						c0.31,0.3,0.31,0.8,0,1.11l-7.74,7.74C189.79,94.93,189.59,95,189.39,95z"/>
				</g>
				<g>
					<path class="st22" d="M205.71,66.57c-0.43,0-0.78-0.35-0.78-0.78V54.83c0-0.43,0.35-0.78,0.78-0.78s0.78,0.35,0.78,0.78v10.95
						C206.49,66.21,206.14,66.57,205.71,66.57z"/>
				</g>
				<g>
					<path class="st22" d="M193.58,78.69h-10.95c-0.43,0-0.78-0.35-0.78-0.78s0.35-0.78,0.78-0.78h10.95c0.43,0,0.78,0.35,0.78,0.78
						S194.01,78.69,193.58,78.69z"/>
				</g>
			</g>
		</g>
		<g>
			<g>
				<path class="st30" d="M94.07,85.78c1.22,0.8,2.09,1.8,2.62,3.01c0.53,1.21,0.67,2.51,0.43,3.9c-0.1,0.46-0.26,0.97-0.47,1.54
					c-0.21,0.57-0.53,1.17-0.96,1.82c-0.43,0.64-0.98,1.31-1.64,2s-1.5,1.38-2.5,2.08c-3.12,2.16-7.22,3.84-12.3,5.06
					c0.36,1.36,0.67,2.47,0.95,3.33c0.27,0.86,0.41,1.3,0.42,1.33c0.19,0.53,0.15,1.04-0.11,1.55c-0.26,0.51-0.65,0.85-1.18,1.04
					c-0.08,0.04-0.2,0.07-0.36,0.09c-0.49,0.07-0.94-0.02-1.36-0.26c-0.42-0.24-0.71-0.61-0.86-1.08c-0.04-0.05-0.14-0.35-0.31-0.89
					s-0.38-1.25-0.61-2.13c-0.24-0.88-0.5-1.89-0.78-3.04c-0.29-1.15-0.54-2.37-0.77-3.66s-0.42-2.63-0.57-4
					c-0.15-1.37-0.22-2.73-0.18-4.06c0.03-0.78,0.36-1.35,1-1.72c-0.2-0.44-0.25-0.91-0.14-1.41c0.11-0.5,0.38-0.89,0.81-1.17
					c1.89-1.29,3.77-2.35,5.64-3.17c0.86-0.34,1.73-0.65,2.59-0.91c0.86-0.26,1.7-0.45,2.51-0.56c1.62-0.29,3.11-0.29,4.47-0.01
					C91.78,84.66,93,85.11,94.07,85.78z M93.08,91.94c0.12-0.71,0.03-1.27-0.26-1.7c-0.3-0.43-0.61-0.77-0.95-1.02
					c-0.64-0.41-1.44-0.67-2.39-0.8c-0.96-0.13-2.06-0.07-3.29,0.16c-1.24,0.23-2.59,0.66-4.05,1.28c-1.46,0.62-3,1.49-4.6,2.6
					l-0.11,0.1c0.14,0.23,0.21,0.54,0.21,0.92c-0.04,1.25,0.01,2.53,0.17,3.85c0.16,1.32,0.36,2.6,0.59,3.84
					c2.27-0.54,4.31-1.19,6.13-1.95c1.81-0.75,3.37-1.58,4.68-2.49c1.48-1.04,2.48-1.98,3-2.83C92.71,93.04,93,92.39,93.08,91.94z"
					/>
				<path class="st30" d="M118.54,92.63c0.71,1.14,1.08,2.36,1.1,3.66c-0.01,0.69-0.12,1.37-0.31,2.03c-0.2,0.66-0.5,1.3-0.91,1.91
					c-0.32,0.49-0.75,0.78-1.3,0.89s-1.06,0-1.52-0.32c-0.49-0.32-0.79-0.75-0.89-1.3c-0.11-0.55,0-1.06,0.32-1.52
					c0.45-0.7,0.61-1.32,0.48-1.87c-0.13-0.55-0.29-0.97-0.47-1.28c-0.29-0.48-0.73-0.9-1.32-1.24s-1.25-0.46-1.98-0.36
					c-0.92,0.13-1.78,0.78-2.58,1.94c-0.72,1.13-1.32,2.65-1.8,4.57c-0.21,0.89-0.37,1.75-0.48,2.58c-0.12,0.83-0.21,1.58-0.26,2.23
					c-0.06,0.66-0.1,1.39-0.12,2.19c0.02,0.5-0.13,0.92-0.44,1.29c-0.31,0.36-0.7,0.6-1.18,0.73l-0.12,0.02
					c-0.46,0.07-0.89-0.01-1.28-0.23c-0.39-0.22-0.68-0.54-0.88-0.95c-0.04-0.05-0.15-0.32-0.34-0.82c-0.19-0.5-0.42-1.14-0.67-1.92
					c-0.25-0.78-0.5-1.68-0.76-2.71c-0.26-1.03-0.45-2.11-0.59-3.25c-0.14-1.14-0.18-2.31-0.13-3.51c0.05-1.2,0.25-2.36,0.58-3.48
					c0.14-0.57,0.46-0.99,0.96-1.26c0.5-0.26,1.03-0.31,1.58-0.14c0.54,0.14,0.95,0.46,1.22,0.97c0.26,0.5,0.32,1.03,0.18,1.57
					c-0.16,0.44-0.26,0.91-0.32,1.41c-0.05,0.5-0.09,1.04-0.13,1.59c0.22-0.58,0.46-1.14,0.72-1.68c0.25-0.53,0.53-1.02,0.83-1.44
					c0.63-0.97,1.38-1.79,2.22-2.43c0.98-0.72,2.05-1.16,3.21-1.33c1.46-0.21,2.85,0,4.17,0.63
					C116.66,90.41,117.73,91.36,118.54,92.63z"/>
				<path class="st30" d="M135.25,88.55c0.82,0.69,1.48,1.51,1.99,2.47c0.51,0.96,0.86,2.01,1.05,3.15c0.2,1.21,0.18,2.4-0.05,3.55
					c-0.24,1.15-0.66,2.21-1.27,3.18c-0.25,0.39-0.56,0.8-0.92,1.23c-0.37,0.43-0.82,0.83-1.34,1.21c-0.53,0.38-1.14,0.73-1.84,1.05
					c-0.7,0.32-1.51,0.56-2.43,0.72l-0.41,0.06c-1.49,0.21-2.84,0.11-4.07-0.31c-1.22-0.42-2.25-1.15-3.09-2.19
					c-1.1-1.31-1.75-2.94-1.94-4.91c-0.12-1.83,0.13-3.58,0.75-5.25c0.28-0.76,0.64-1.45,1.07-2.08c0.43-0.63,0.92-1.19,1.46-1.68
					c1.22-1.14,2.67-1.83,4.35-2.07c1.35-0.19,2.6-0.11,3.73,0.26C133.32,87.24,134.31,87.77,135.25,88.55z M129.69,101.07
					c0.92-0.16,1.69-0.45,2.32-0.89c0.63-0.44,1.12-0.93,1.49-1.5c0.36-0.56,0.6-1.18,0.71-1.86c0.11-0.68,0.12-1.34,0.03-1.99
					c-0.08-0.6-0.26-1.16-0.53-1.69s-0.62-0.99-1.05-1.38c-0.43-0.4-0.93-0.69-1.51-0.88s-1.25-0.24-2.01-0.13
					c-0.54,0.08-1.02,0.24-1.42,0.49s-0.75,0.54-1.04,0.85c-0.29,0.32-0.52,0.65-0.71,0.99c-0.19,0.34-0.33,0.65-0.43,0.91
					c-0.43,1.08-0.59,2.19-0.5,3.33c0.09,1.13,0.42,2.05,0.99,2.74C126.82,101,128.04,101.34,129.69,101.07z"/>
				<path class="st30" d="M157.04,86.66c0.19,0.53,0.15,1.04-0.11,1.55c-0.26,0.51-0.65,0.87-1.17,1.08
					c-0.53,0.19-1.15,0.38-1.86,0.6c-0.72,0.21-1.48,0.44-2.29,0.68c-0.81,0.24-1.64,0.48-2.49,0.73s-1.67,0.48-2.47,0.7
					c0.4,1.49,0.86,2.9,1.37,4.22c0.5,1.32,1.04,2.47,1.59,3.44c0.29,0.51,0.36,1.03,0.2,1.57c-0.16,0.54-0.48,0.95-0.96,1.24
					c-0.23,0.12-0.48,0.19-0.75,0.23c-0.41,0.06-0.79,0-1.17-0.19c-0.37-0.18-0.67-0.45-0.88-0.81c-0.63-1.15-1.24-2.46-1.8-3.93
					c-0.57-1.47-1.08-3.02-1.54-4.67c-0.32,0.1-0.57,0.17-0.76,0.21c-0.19,0.04-0.31,0.08-0.36,0.11l-0.24,0.03
					c-0.51,0.07-0.99-0.03-1.43-0.31c-0.44-0.28-0.72-0.68-0.85-1.18c-0.13-0.53-0.06-1.05,0.21-1.54c0.28-0.49,0.69-0.82,1.25-0.99
					c0.11-0.02,0.23-0.05,0.36-0.09c0.13-0.05,0.27-0.08,0.42-0.1c0.15-0.02,0.33-0.07,0.54-0.16c-0.17-1.03-0.31-2-0.4-2.93
					c-0.09-0.93-0.13-1.81-0.11-2.64c0.01-2.24,0.36-4.06,1.05-5.46c0.64-1.36,1.56-2.41,2.77-3.15c1.21-0.74,2.54-1.06,3.99-0.96
					c1.51,0.09,2.86,0.6,4.07,1.54c0.62,0.46,1.16,1.03,1.63,1.7c0.47,0.67,0.85,1.39,1.16,2.18c0.18,0.53,0.16,1.05-0.09,1.57
					c-0.24,0.52-0.63,0.87-1.16,1.05c-0.52,0.21-1.04,0.19-1.56-0.07c-0.52-0.26-0.87-0.65-1.06-1.18
					c-0.36-0.94-0.84-1.62-1.45-2.03c-0.61-0.41-1.2-0.63-1.75-0.66c-1.31-0.06-2.26,0.54-2.85,1.82c-0.36,0.77-0.57,1.86-0.63,3.28
					c-0.06,1.42,0.06,3.03,0.38,4.84c0.74-0.21,1.52-0.44,2.33-0.66s1.6-0.46,2.37-0.69c0.77-0.23,1.49-0.45,2.17-0.66
					c0.68-0.21,1.25-0.4,1.72-0.58c0.53-0.18,1.04-0.15,1.55,0.11C156.46,85.75,156.82,86.14,157.04,86.66z"/>
				<path class="st30" d="M160,78.65c-0.62,0.09-1.19-0.06-1.7-0.44c-0.51-0.38-0.81-0.89-0.9-1.51c-0.09-0.62,0.06-1.18,0.45-1.68
					c0.38-0.5,0.89-0.79,1.51-0.88c0.62-0.09,1.19,0.05,1.7,0.42c0.51,0.37,0.81,0.87,0.9,1.49c0.09,0.62-0.06,1.19-0.44,1.7
					C161.13,78.26,160.62,78.56,160,78.65z M166.26,99.94c-1.44,0.21-2.72-0.19-3.86-1.19c-1.45-1.23-2.54-3.29-3.28-6.17
					c-0.32-1.25-0.56-2.59-0.74-4.02c-0.18-1.43-0.26-2.9-0.26-4.42c0-0.55,0.21-1.03,0.61-1.43c0.4-0.4,0.89-0.6,1.47-0.6
					c0.55-0.02,1.03,0.17,1.43,0.58c0.4,0.41,0.6,0.9,0.6,1.45c0.01,3.01,0.31,5.52,0.91,7.54s1.23,3.33,1.93,3.95
					c0.16,0.14,0.29,0.22,0.39,0.24c0.1,0.01,0.17,0.02,0.23,0.01c0.57-0.08,1.08,0.05,1.53,0.41c0.45,0.35,0.71,0.8,0.79,1.34
					c0.08,0.57-0.05,1.08-0.38,1.53C167.28,99.59,166.83,99.86,166.26,99.94z"/>
				<path class="st30" d="M174.87,94.57c0.54-0.08,1.04,0.06,1.51,0.41c0.46,0.35,0.73,0.79,0.81,1.33c0.08,0.57-0.05,1.08-0.4,1.53
					s-0.8,0.71-1.34,0.79c-1.38,0.2-2.61-0.17-3.68-1.09c-1.22-1.01-2.23-2.74-3.01-5.17c-0.3-0.92-0.58-1.96-0.83-3.09
					c-0.26-1.14-0.49-2.4-0.68-3.78c-0.16-1.11-0.3-2.23-0.42-3.36c-0.12-1.13-0.22-2.22-0.3-3.27c-0.08-1.05-0.15-2.05-0.2-3
					c-0.05-0.95-0.09-1.82-0.12-2.62c-0.02-0.55,0.16-1.03,0.54-1.44c0.38-0.41,0.86-0.63,1.44-0.66c0.55-0.02,1.03,0.17,1.45,0.56
					c0.41,0.4,0.63,0.87,0.66,1.42c0.05,1.51,0.15,3.32,0.29,5.41s0.38,4.21,0.71,6.34c0.25,1.79,0.53,3.27,0.84,4.44
					c0.3,1.17,0.6,2.11,0.9,2.82c0.29,0.7,0.55,1.23,0.78,1.57c0.23,0.34,0.42,0.57,0.57,0.69c0.15,0.12,0.26,0.18,0.32,0.18
					C174.76,94.58,174.81,94.58,174.87,94.57z"/>
			</g>
		</g>
	</g>
</g>
</svg>
