<?xml version="1.0" encoding="utf-8"?>
<!-- Generator: Adobe Illustrator 23.0.2, SVG Export Plug-In . SVG Version: 6.00 Build 0)  -->
<svg version="1.1" xmlns="http://www.w3.org/2000/svg" xmlns:xlink="http://www.w3.org/1999/xlink" x="0px" y="0px"
	 viewBox="0 0 193.91 234" style="enable-background:new 0 0 193.91 234;" xml:space="preserve">
<style type="text/css">
	.st0{fill-rule:evenodd;clip-rule:evenodd;fill:#F16465;}
	.st1{fill:#C2CADC;}
	.st2{fill-rule:evenodd;clip-rule:evenodd;fill:#FFFFFF;}
	.st3{fill:#FFFFFF;}
	.st4{fill:none;stroke:#FFFFFF;stroke-width:4;stroke-miterlimit:10;}
	.st5{fill:#FFD55E;}
	.st6{fill-rule:evenodd;clip-rule:evenodd;fill:#08A84B;}
	.st7{fill:#A91E22;}
	.st8{fill:#F16465;}
	.st9{fill:#3E1211;}
	.st10{fill:#FFF6F0;}
	.st11{fill:#FABCAE;}
	.st12{filter:url(#Adobe_OpacityMaskFilter);}
	.st13{filter:url(#Adobe_OpacityMaskFilter_1_);}
	.st14{mask:url(#SVGID_1_);fill:url(#SVGID_2_);}
	.st15{fill:url(#SVGID_3_);}
	.st16{filter:url(#Adobe_OpacityMaskFilter_2_);}
	.st17{filter:url(#Adobe_OpacityMaskFilter_3_);}
	.st18{mask:url(#SVGID_4_);fill:url(#SVGID_5_);}
	.st19{fill:url(#SVGID_6_);}
	.st20{fill:#EB414C;}
	.st21{fill:#F2F4FA;}
	.st22{fill:#0E0D09;}
	.st23{fill:#FDE410;}
	.st24{fill:#FBAD1B;}
	.st25{fill:#BBBDBF;}
	.st26{fill:#E5E6E7;}
	.st27{fill:#851B1A;}
	.st28{fill:none;stroke:#FFF6F0;stroke-miterlimit:10;}
	.st29{fill:none;stroke:#851B1A;stroke-width:3;stroke-linecap:round;stroke-linejoin:round;stroke-miterlimit:10;}
	.st30{fill:#8A8083;stroke:#851B1A;stroke-width:3;stroke-linecap:round;stroke-linejoin:round;stroke-miterlimit:10;}
	.st31{fill:#AC97AD;stroke:#851B1A;stroke-width:3;stroke-linecap:round;stroke-linejoin:round;stroke-miterlimit:10;}
	.st32{fill:#EBEAEA;}
	.st33{fill:#F3D038;}
	.st34{fill:#BC2D26;}
	.st35{fill:#E83628;}
	.st36{fill:#EE543C;}
	.st37{fill:#C92F27;}
	.st38{fill:#FDBD60;}
	.st39{fill:#010101;}
	.st40{fill:#91C83E;}
	.st41{fill:#BDD631;}
	.st42{fill:#7C3B1A;}
	.st43{fill:#86201A;}
	.st44{fill:#491E12;}
	.st45{fill:#581F0E;}
	.st46{fill:#B22F25;}
	.st47{opacity:0.5;}
	.st48{fill:#813829;}
	.st49{fill:#1F4922;}
	.st50{fill:#4C8C40;}
	.st51{fill:#69B445;}
	.st52{fill:#ADD691;}
	.st53{fill:#E8CA5C;}
	.st54{fill:#9E6B28;}
	.st55{fill:#955B25;}
	.st56{fill:#C09333;}
	.st57{fill:#F9EC8C;}
	.st58{fill:#C3903A;}
	.st59{fill:#A9772B;}
	.st60{filter:url(#Adobe_OpacityMaskFilter_4_);}
	.st61{filter:url(#Adobe_OpacityMaskFilter_5_);}
	.st62{mask:url(#SVGID_7_);fill:url(#SVGID_8_);}
	.st63{fill:url(#SVGID_9_);}
	.st64{filter:url(#Adobe_OpacityMaskFilter_6_);}
	.st65{filter:url(#Adobe_OpacityMaskFilter_7_);}
	.st66{mask:url(#SVGID_10_);fill:url(#SVGID_11_);}
	.st67{fill:url(#SVGID_12_);}
	.st68{fill:#C2CADC;stroke:#851B1A;stroke-linecap:round;stroke-linejoin:round;stroke-miterlimit:10;}
	.st69{fill:none;stroke:#851B1A;stroke-miterlimit:10;}
</style>
<g id="Layer_2">
</g>
<g id="Layer_1">
	<path class="st1" d="M94.91,63.83l17.22,34.08l28.16,58.17c0,0,16.57-14.95,18.33-40.61C160.36,89.8,109,57.27,109,57.27
		L94.91,63.83z"/>
	<g>
		<g>
			<g>
				<path class="st10" d="M131.93,96.18c12.77,24.96,14.17,31.27,14.17,41.52c0,5.76-1.83,14.29-3.44,20.66
					c-3.35,3.71-7.01,7.34-11.29,9.86c-0.22-0.41-0.67-0.68-1.25-0.51c-1.43,0.43-2.74,1.15-4.07,1.81
					c-1.35,0.66-2.74,1.14-4.16,1.61c-3.17,1.04-6.36,1.6-9.64,2.09c-1.94,0.29-3.95,0.46-5.7,1.34c-0.56,0.05-1.13,0.12-1.69,0.21
					c-0.84,0.15-1.61,0.39-2.14,1.1c-0.54,0.74-0.83,1.7-1.12,2.57c-0.18,0.53-0.35,1.08-0.54,1.61c-0.04,0.13-0.09,0.26-0.14,0.39
					c-0.02,0.03-0.07,0.15-0.09,0.21c-0.08,0.18-0.16,0.34-0.26,0.51c-0.03,0.03-0.05,0.09-0.06,0.13c-0.14,0-0.27-0.01-0.41-0.03
					c-0.02-0.05-0.02-0.1-0.04-0.16c-0.35-1.09-0.65-2.2-1.1-3.27c-0.38-0.9-0.84-1.86-1.87-2.1c-0.56-0.12-1.14-0.12-1.71-0.13
					c-0.78-0.03-1.56-0.2-2.34-0.32c-1.88-0.29-3.78-0.55-5.66-0.83c-3.1-0.47-6.15-0.84-9.26-1.13c-0.06-0.45-0.37-0.91-0.83-0.98
					c-2.47-0.34-5.06-0.52-7.61-0.89c-0.36-0.17-0.72-0.36-1.08-0.58c-0.31-0.19-0.61-0.22-0.87-0.14
					c-4.23-1.87-8.21-4.33-11.46-7.65c-1-1.02-1.82-2.16-2.68-3.27c-0.01-0.01-0.01-0.03-0.02-0.03c-2.44-5.14-2.49-8.77-4.61-17.92
					c-0.97-4.24-2-7.99-2.95-11.13c0.2-0.85,0.45-1.69,0.6-2.55c0.3-1.65,0.6-3.3,0.99-4.93c0.82-3.35,1.84-6.67,3-9.9
					c1.14-3.21,2.46-6.33,3.94-9.4c0.82-1.69,1.64-3.38,2.39-5.1c6.22-8.8,14.21-17.47,22.9-22.96c5.84-3.69,12.34-5.61,18.98-5.84
					h0.01C108.18,72.8,123.47,79.65,131.93,96.18z"/>
				<path class="st10" d="M158.54,133.24l-0.13-6.02C158.91,129.3,158.94,131.34,158.54,133.24z"/>
				<path class="st10" d="M54.9,197.38c1.13-1.54,2.09-3.23,3.07-4.9c0.56-2.16,0.96-4.38,1.47-6.58
					c-0.84-3.73-2.84-8.27-5.04-11.25c-0.89-1.2-2.03-2.61-3.44-3.23c-1.71-0.76-2.82,0.21-4.41,0.08c-0.02,0-0.05-0.01-0.07-0.01
					c-0.01,0.03-0.01,0.06-0.03,0.08c-0.28,0.54-1.06,0.73-1.57,0.41c-0.76-0.47-1.29-1.24-1.75-2.01
					c-1.91-1.27-3.75-2.61-6.03-0.91c-2.44,1.83-1.42,4.6-0.29,6.96c0.26,4.23,2.4,9.85,5.04,13.06c1.2,1.45,1.91,1.46,3.64,1.99
					c1.37,0.41,2.3,1.16,3.14,2.04c1.88,1.27,3.62,2.75,5.49,4.02C54.36,197.23,54.61,197.31,54.9,197.38z"/>
				<path class="st11" d="M44.16,171.82c-0.57-1.36-2.04-3.15-3.69-3.02c-2.06,0.16-1.56,3.19-1.31,4.54
					c0.12,0.66,0.92,1.03,1.52,0.86c0.4-0.11,0.66-0.38,0.79-0.72c0.07-0.04,0.13-0.07,0.2-0.1c0.47-0.2,1-0.32,1.51-0.29
					C43.78,173.14,44.41,172.41,44.16,171.82z"/>
				<path class="st11" d="M57.11,187.83c1.03-1.9,0.89-4.29,0.19-7.14c-0.22-0.9-1.45-0.79-1.72,0c-0.48,1.43-1.3,2.71-2.36,3.75
					c-1.17,0.75-2.3,1.54-3.45,2.14c-0.59,0.2-1.21,0.35-1.84,0.42c-4.08,0.48-6.62-3.1-8.52-6.15c-0.63-1-2.12-0.12-1.58,0.92
					c0.75,1.43,1.59,2.94,2.59,4.26c-0.03,0.1-0.05,0.21-0.02,0.34c0.33,1.44,1.05,2.85,2.26,3.73c0.29,0.21,0.56,0.14,0.74-0.05
					c1.51,1.42,3.42,2.02,5.5,1.95c0.04,0.06,0.09,0.11,0.15,0.16c1.45,1.23,3.73,3.58,5.85,3.23c1.04-0.17,1.5-0.95,1.93-1.8
					c0.63-1.24,1.15-2.52,1.65-3.82C58.92,188.63,58.06,187.9,57.11,187.83z"/>
				<path class="st11" d="M129.7,164.69c-13.55,5.98-28.55,8.25-43.28,6.85c-7.2-0.69-14.8-2.32-21.36-5.47
					c-6.79-3.25-9.97-8.27-13-14.89c-0.22-0.48-0.98-0.23-0.97,0.26c0.31,11.71,10.18,17.3,20.54,20.26
					c1.91,0.22,3.82,0.38,5.66,0.64c0.43,0.06,0.73,0.47,0.81,0.9c1.83,0.36,3.61,0.66,5.29,0.91c5.32,0.81,10.65,1.07,15.95,0.86
					c-0.16,0.12-0.26,0.32-0.19,0.52c-0.13,0.22-0.18,0.5-0.1,0.82c0.25,1.07,0.44,2.1,0.99,3.06c0.49,0.86,1.82,0.47,1.84-0.5
					c0.02-1.11-0.32-2.11-0.61-3.17c-0.12-0.45-0.43-0.7-0.77-0.78c10.59-0.57,21.03-3.12,30.85-7.48
					C133.23,166.64,131.58,163.86,129.7,164.69z"/>
				<path class="st11" d="M101.07,132.54c-1.02-2.33-3.93-2.3-5.95-1.38c-0.93,0.42-1.52,1.15-1.72,1.94
					c-0.49,0.47-0.8,1.07-0.79,1.83c0.02,1.06,0.82,1.99,1.78,2.35c0.17,0.06,0.34,0.1,0.51,0.13c0.34,0.14,0.71,0.22,1.06,0.26
					c1.63,0.16,4.73,0.03,4.99-2.12c0.02-0.15,0.02-0.29,0.01-0.43C101.43,134.33,101.44,133.38,101.07,132.54z"/>
				<defs>
					<filter id="Adobe_OpacityMaskFilter" filterUnits="userSpaceOnUse" x="49.18" y="134.78" width="28.5" height="28.5">
						<feFlood  style="flood-color:white;flood-opacity:1" result="back"/>
						<feBlend  in="SourceGraphic" in2="back" mode="normal"/>
					</filter>
				</defs>
				<mask maskUnits="userSpaceOnUse" x="49.18" y="134.78" width="28.5" height="28.5" id="SVGID_1_">
					<g class="st12">
						<defs>
							<filter id="Adobe_OpacityMaskFilter_1_" filterUnits="userSpaceOnUse" x="49.18" y="134.78" width="28.5" height="28.5">
								<feFlood  style="flood-color:white;flood-opacity:1" result="back"/>
								<feBlend  in="SourceGraphic" in2="back" mode="normal"/>
							</filter>
						</defs>
						<mask maskUnits="userSpaceOnUse" x="49.18" y="134.78" width="28.5" height="28.5" id="SVGID_1_">
						</mask>
						<radialGradient id="SVGID_2_" cx="63.4266" cy="149.0326" r="14.2485" gradientUnits="userSpaceOnUse">
							<stop  offset="0" style="stop-color:#FFFFFF"/>
							<stop  offset="0.1273" style="stop-color:#FBFBFB"/>
							<stop  offset="0.2531" style="stop-color:#EFEFEF"/>
							<stop  offset="0.3783" style="stop-color:#DBDBDB"/>
							<stop  offset="0.5032" style="stop-color:#BFBFBF"/>
							<stop  offset="0.6281" style="stop-color:#9B9B9B"/>
							<stop  offset="0.7528" style="stop-color:#6F6F6F"/>
							<stop  offset="0.8764" style="stop-color:#3C3C3C"/>
							<stop  offset="0.9982" style="stop-color:#010101"/>
							<stop  offset="1" style="stop-color:#000000"/>
						</radialGradient>
						<circle class="st14" cx="63.43" cy="149.03" r="14.25"/>
					</g>
				</mask>
				<radialGradient id="SVGID_3_" cx="63.4266" cy="149.0326" r="14.2485" gradientUnits="userSpaceOnUse">
					<stop  offset="0" style="stop-color:#F1697C"/>
					<stop  offset="0.151" style="stop-color:#F26D7E"/>
					<stop  offset="0.3003" style="stop-color:#F27685"/>
					<stop  offset="0.4488" style="stop-color:#F4858F"/>
					<stop  offset="0.597" style="stop-color:#F69A9F"/>
					<stop  offset="0.745" style="stop-color:#F9B6B6"/>
					<stop  offset="0.8908" style="stop-color:#FCD8D4"/>
					<stop  offset="1" style="stop-color:#FFF6F0"/>
				</radialGradient>
				<circle class="st15" cx="63.43" cy="149.03" r="14.25"/>
				<defs>
					<filter id="Adobe_OpacityMaskFilter_2_" filterUnits="userSpaceOnUse" x="120.41" y="135.11" width="25.69" height="25.69">
						<feFlood  style="flood-color:white;flood-opacity:1" result="back"/>
						<feBlend  in="SourceGraphic" in2="back" mode="normal"/>
					</filter>
				</defs>
				<mask maskUnits="userSpaceOnUse" x="120.41" y="135.11" width="25.69" height="25.69" id="SVGID_4_">
					<g class="st16">
						<defs>
							<filter id="Adobe_OpacityMaskFilter_3_" filterUnits="userSpaceOnUse" x="120.41" y="135.11" width="25.69" height="25.69">
								<feFlood  style="flood-color:white;flood-opacity:1" result="back"/>
								<feBlend  in="SourceGraphic" in2="back" mode="normal"/>
							</filter>
						</defs>
						<mask maskUnits="userSpaceOnUse" x="120.41" y="135.11" width="25.69" height="25.69" id="SVGID_4_">
						</mask>
						<radialGradient id="SVGID_5_" cx="133.2506" cy="147.9578" r="12.8431" gradientUnits="userSpaceOnUse">
							<stop  offset="0" style="stop-color:#FFFFFF"/>
							<stop  offset="0.1273" style="stop-color:#FBFBFB"/>
							<stop  offset="0.2531" style="stop-color:#EFEFEF"/>
							<stop  offset="0.3783" style="stop-color:#DBDBDB"/>
							<stop  offset="0.5032" style="stop-color:#BFBFBF"/>
							<stop  offset="0.6281" style="stop-color:#9B9B9B"/>
							<stop  offset="0.7528" style="stop-color:#6F6F6F"/>
							<stop  offset="0.8764" style="stop-color:#3C3C3C"/>
							<stop  offset="0.9982" style="stop-color:#010101"/>
							<stop  offset="1" style="stop-color:#000000"/>
						</radialGradient>
						<circle class="st18" cx="133.25" cy="147.96" r="12.84"/>
					</g>
				</mask>
				<radialGradient id="SVGID_6_" cx="133.2506" cy="147.9578" r="12.8431" gradientUnits="userSpaceOnUse">
					<stop  offset="0" style="stop-color:#F1697C"/>
					<stop  offset="0.151" style="stop-color:#F26D7E"/>
					<stop  offset="0.3003" style="stop-color:#F27685"/>
					<stop  offset="0.4488" style="stop-color:#F4858F"/>
					<stop  offset="0.597" style="stop-color:#F69A9F"/>
					<stop  offset="0.745" style="stop-color:#F9B6B6"/>
					<stop  offset="0.8908" style="stop-color:#FCD8D4"/>
					<stop  offset="1" style="stop-color:#FFF6F0"/>
				</radialGradient>
				<circle class="st19" cx="133.25" cy="147.96" r="12.84"/>
				<path class="st20" d="M128.95,143.26c-0.08-0.06-0.18-0.09-0.28-0.07c-0.11,0.02-0.18,0.07-0.25,0.15c-0.49,0.5-0.99,1-1.48,1.5
					c-0.06,0.06-0.09,0.2-0.07,0.28c0.01,0.09,0.07,0.2,0.15,0.25c0.08,0.06,0.18,0.09,0.28,0.07c0.11-0.02,0.18-0.07,0.25-0.15
					c0.49-0.5,0.99-1,1.48-1.5c0.06-0.06,0.09-0.2,0.07-0.28C129.08,143.42,129.02,143.31,128.95,143.26z"/>
				<path class="st20" d="M130.38,144.05c-0.02-0.05-0.05-0.08-0.1-0.12c-0.08-0.06-0.18-0.09-0.28-0.07
					c-0.1,0.02-0.2,0.06-0.25,0.15c-0.11,0.17-0.22,0.33-0.33,0.5c-0.03,0.04-0.05,0.09-0.06,0.14c-0.02,0.05-0.02,0.1-0.01,0.15
					c0.01,0.05,0.02,0.1,0.05,0.14c0.02,0.05,0.05,0.08,0.1,0.12c0.08,0.06,0.18,0.09,0.28,0.07c0.1-0.02,0.2-0.06,0.25-0.15
					c0.11-0.17,0.22-0.33,0.33-0.5c0.03-0.04,0.05-0.09,0.06-0.14c0.02-0.05,0.02-0.1,0.01-0.15
					C130.42,144.13,130.41,144.09,130.38,144.05z"/>
				<path class="st20" d="M62.44,149.13c-0.14-0.17-0.36-0.19-0.54-0.07c-0.56,0.36-1.03,0.85-1.38,1.42
					c-0.05,0.09-0.09,0.18-0.07,0.28c0.01,0.09,0.07,0.2,0.15,0.25c0.16,0.11,0.43,0.11,0.54-0.08c0.16-0.26,0.35-0.5,0.56-0.72
					c0.21-0.21,0.43-0.39,0.68-0.55C62.54,149.56,62.57,149.28,62.44,149.13z"/>
				<path class="st20" d="M64.44,148.81c-0.06-0.08-0.16-0.14-0.26-0.15c-0.09-0.01-0.21,0.01-0.28,0.08
					c-0.28,0.28-0.55,0.55-0.83,0.83c-0.04,0.03-0.08,0.07-0.1,0.12c-0.03,0.04-0.05,0.09-0.05,0.14c-0.01,0.09,0.02,0.21,0.08,0.28
					c0.06,0.08,0.16,0.14,0.26,0.15c0.09,0.01,0.21-0.01,0.28-0.08l0.83-0.83c0.04-0.03,0.08-0.07,0.1-0.12
					c0.03-0.04,0.05-0.09,0.05-0.14C64.53,149,64.5,148.88,64.44,148.81z"/>
				<path class="st3" d="M77,117.5c-2.24-0.44-4.64-0.12-6.9,1.27c-5.18,3.18-7.39,10.81-5.84,16.48c0.81,2.94,2.45,5.56,4.89,7.07
					c2.03,1.27,4.05,1.59,5.94,1.25c0.63-0.01,1.28-0.07,1.92-0.2C89.55,140.76,89.82,120.02,77,117.5z"/>
				<path class="st3" d="M131.21,125.25c-2.49-6.8-11.64-8-17.09-4.03c-7.84,5.7-4.87,20.56,4.96,21.71
					c6.82,0.8,11.9-4.98,12.69-10.94c0.29-2.21,0.23-4.5-0.51-6.61C131.24,125.34,131.23,125.29,131.21,125.25z"/>
				<path class="st21" d="M80.87,178.54c0.11-0.79,0.32-1.63,0.21-2.43c-0.15-1.04-0.96-1.22-1.9-1.08c-0.25,0.04-0.49,0-0.71-0.07
					c-2.31,1.94-4.71,3.76-7.19,5.47c-1.21,0.83-2.5,1.97-3.84,2.57c-0.07,0.03-0.13,0.05-0.2,0.08c-0.1,0.23-0.27,0.42-0.48,0.56
					c-0.71,0.47-1.53,0.72-2.38,0.73c-0.31,0-0.59-0.13-0.81-0.34c-0.23-0.21-0.32-0.51-0.34-0.81c0-0.01,0-0.02,0-0.03
					c-0.47-0.17-0.96-0.38-1.51-0.64c-0.54-0.25-1.02-0.28-1.42-0.16c-0.24-0.02-0.47,0.08-0.59,0.32
					c-0.74,0.63-0.93,1.88-0.29,2.65c-0.35,2.85-1.06,5.71-2.15,8.33c-0.28,0.75-0.61,1.47-1,2.17c-0.8,1-1.59,1.05-2.34,0.14
					c-1.32-0.44-2.77-1.83-3.9-2.63c-0.75-0.53-1.69,0.34-1.48,1.14c1.05,4.09,7.57,12.14,11.88,6.69c0.27-0.34,0.47-0.72,0.61-1.12
					c0.07-0.11,0.14-0.23,0.2-0.35c2.5,1.4,5.7,2.95,8.34,2.39c0.91-0.19,1.62-0.66,2.21-1.33c-0.27-0.29-0.41-0.72-0.28-1.09
					c0.33-0.88,0.7-1.77,1.35-2.46c0.9-0.97,2.16-1.02,3.32-0.53c0.41,0.17,0.8,0.38,1.19,0.59c0.01-0.02,0.02-0.04,0.03-0.06
					c1.14-3.49,1.23-7.22,1.87-10.82c0.42-2.4,0.93-4.79,1.51-7.16C80.81,179.02,80.84,178.77,80.87,178.54z"/>
				<path class="st21" d="M121.62,171.78c-0.28-0.79-1.07-1.37-2.15-0.79c-2.41,1.29-5.55,1.63-8.18,2.32
					c-2.6,0.68-5.15,1.5-7.85,1.65c-0.46,0.02-0.81,0.29-0.95,0.72c-0.52,1.54-1.13,2.93-1.93,4.27c-1.06-1.29-1.77-2.71-2.23-4.41
					c-0.11-0.42-0.51-0.71-0.94-0.72c-4.04-0.09-8.12-0.47-12.14-0.89c-0.4-0.04-0.69,0.15-0.87,0.44c-0.41,0.24-0.7,0.69-0.6,1.28
					c0.56,3.23,1.12,6.45,1.74,9.67c0.32,1.64,0.34,3.6,1.82,4.58c1.75,1.15,5.39,0.38,7.39,0.38c3.5-0.01,7.01-0.07,10.51-0.12
					c3.25-0.04,6.51-0.23,9.75-0.55c1.46-0.14,3.11-0.21,4.16-1.38c1.43-1.59,1.34-4.69,1.61-6.62c0.43-3.05,0.71-6.12,1-9.19
					C121.78,172.15,121.73,171.94,121.62,171.78z"/>
				<path class="st21" d="M151.95,180.17c-2.45-1.55-5.04-2.87-7.61-4.18c-1.46-0.74-3.68-2.44-5.43-2.26
					c-2.65,0.28-1.49,2.8-5.5,1.82c-2.51-0.62-5.43-3.51-7.62-4.81c-0.05-0.03-0.1-0.05-0.14-0.07c-0.66-1-2.42-0.47-2.05,0.86
					c0.03,0.1,0.05,0.21,0.08,0.31c-0.05,0.35,0.03,0.72,0.27,1.02c0.69,2.61,1.25,5.27,1.58,7.94c0.38,3.02-0.29,6.54,0.31,9.47
					c0.61,2.95,3.62,2.65,5.98,3.05c2.24,0.37,3.66,1.98,6.08,1.72c1.81-0.19,3.47-1.2,4.89-2.27c3.94-2.96,6.74-7.06,9.59-10.99
					C152.75,181.25,152.45,180.49,151.95,180.17z"/>
				<path class="st21" d="M188.75,92.09c-0.28-0.05-0.55-0.22-0.74-0.55c-1.05-1.92-2.63-3.48-4.95-3.39
					c-1.21,0.04-1.47-1.54-0.58-2.14c3.39-2.28,4.04-6.39,3.13-10.13c-0.06-0.26-0.04-0.49,0.04-0.69c-0.48-2.17-2-4.29-4.02-5.87
					c-0.29,0.15-0.65,0.16-1.02-0.09c-1.16-0.78-2.41-1.26-3.76-1.43c-0.03,0-0.05,0.01-0.09,0.01c0,0,0,0-0.01,0
					c-0.1,0-0.21-0.01-0.31-0.04c0,0-0.02-0.01-0.03-0.01c-0.21-0.02-0.41-0.03-0.63-0.03c-0.95-0.01-1.32-0.95-0.99-1.73
					c1.33-3.15,2.29-6.44,1.94-9.87c-0.12-0.55-0.25-1.09-0.4-1.59c-1.96-6.85-9.45-11.13-16.58-13.5c0.39-1.4,0.37-3.04,0.45-4.34
					c0.21-3.26-0.09-6.64-0.98-9.78c-1.84-6.54-6.28-11.5-12.35-14.45c-5.79-2.82-12.81-4.53-19.32-3.64
					c-3.36,0.46-6.54,1.49-9.45,3.2c-1.62,0.96-3.25,2.03-4.72,3.2c-0.74,0.59-3.56,2.44-4.42,3.2c-3.61-5.09-7.64-8.45-13.41-10.82
					c-6.84-2.81-14.58-3.06-21.64-1.52c-6.76,1.47-12.87,4.26-17.83,9.14c-2.25,2.21-4.1,4.33-5.49,7.16c-1.6,3.26-2.51,7-5.1,9.65
					c-0.12,0.12-0.2,0.26-0.26,0.41c-10.24,2.38-19.39,7.97-26.45,15.85C11.85,56.04,5.64,66.79,8.02,77.59
					c0.3,1.37,1.29,2.91,1.39,4.28c0.11,1.7-0.78,3.71-1.4,5.28c-1.3,3.25-2.24,6.62-2.74,10.1c-0.75,5.19-0.63,10.63,1.23,15.59
					c1.66,4.44,4.51,8.45,8.29,11.33c1.27,0.97,4.28,3.15,6.67,3.47c-0.43,1.03-0.71,2.1-0.77,3.46c-0.12,2.67,0.44,5.36,1.49,7.81
					c0.64,1.49,1.46,2.86,2.43,4.1c2.11,4.57,7.04,9.32,12.46,8.69c0.03,0,0.05-0.02,0.08-0.02c0.26,0.33,0.53,0.62,0.8,0.88
					c0.93,0.86,2.17-0.43,1.37-1.37c-1.82-2.14-2.86-6.32-2.89-9.11c-0.01-0.74,0.1-1.4,0.29-2.02c0.19-0.12,0.37-0.29,0.5-0.55
					c1.27-2.45,3.28-4.09,5.56-5.48c0.45-0.18,0.9-0.38,1.31-0.65c0.11,0.03,0.21,0.06,0.31,0.08c0.35,0.08,0.73-0.08,0.87-0.43
					c0.1-0.25,0.06-0.49-0.08-0.68c0.57-0.79,0.69-1.69,0.88-2.79c0.68-3.88,1.16-7.54,2.56-11.26c1.36-3.63,3.21-7.05,5.09-10.43
					c3.52-6.36,6.69-13.15,11.21-18.87c3.56-4.5,7.85-8.19,12.45-11.54c0.05-0.02,0.1-0.05,0.15-0.08
					c7.88-5.2,16.75-8.03,26.23-7.06c10.6,1.09,17.96,6.71,25.96,13.2c0.36,0.29,0.75,0.38,1.12,0.34
					c8.53,11.78,17.69,23.86,20.53,38.35c0.12,0.64,0.58,1,1.12,1.13c0.11,0.07,0.24,0.14,0.39,0.17c3.28,0.78,5.55,2.8,4.99,6.46
					c-0.14,0.93,0.56,1.93,1.61,1.61c4.3-1.31,8.59-1.91,12.98-2.66c1.18-0.91,2.37-1.98,3.32-3.19c0.03-0.05,0.1-0.13,0.1-0.14
					c0.06-0.09,0.13-0.18,0.19-0.26c0.12-0.17,0.23-0.33,0.34-0.5c0.24-0.37,0.47-0.74,0.68-1.13c0.49-0.87,0.92-1.77,1.32-2.68
					c0.12-0.27,0.37-0.44,0.65-0.51c0.39-3.25-0.32-6.53-1.9-9.44c-0.04-0.05-0.09-0.11-0.12-0.17c-0.29-0.5-0.15-1.31,0.41-1.57
					c1.77-0.8,3.56-1.54,5.26-2.48c0.77-0.43,1.54-0.9,2.24-1.44c2.35-2.36,4.07-5.25,4.44-8.48
					C189.58,95.31,189.33,93.64,188.75,92.09z"/>
				<path class="st3" d="M110.75,142.15c-1.51-2.26-3.62-3.2-6.28-2.28c-4.42,1.53-7.64,3.11-12.39,2.77
					c-0.3-0.47-0.87-0.74-1.46-0.33c-4.71,3.28-5.29,11.84-0.67,15.44c5.13,3.98,12.93,3.71,18.07-0.02
					C112.93,154.16,114.11,147.17,110.75,142.15z"/>
				<polygon class="st21" points="32.48,147.3 40.02,151.93 46.92,153.55 42.55,139.52 35.14,134.14 				"/>
				<g>
					<path class="st1" d="M71.23,198.3c-0.05-0.65-0.63-1.23-1.33-1.01c-3.67,1.14-6.07-0.32-8.87-2.47
						c-0.39-0.3-0.92,0.04-1.05,0.43c-1.22,3.76-4.84,6.14-8.14,2.9c-0.91-0.9-2.12,0.42-1.37,1.37c1.8,2.29,4.46,3.91,7.43,2.64
						c1.47-0.63,2.27-1.66,2.73-2.89c0.02,0.02,0.03,0.04,0.05,0.05C63.04,201.65,71.66,203.91,71.23,198.3z"/>
					<path class="st1" d="M76.84,191.34c-0.56,1.51-1.4,2.78-2.65,3.81c-0.36,0.29-0.05,0.74,0.32,0.77
						c0.11,1.38,2.01,1.42,2.64,0.3c0.35-0.62,0.32-1.45,0.38-2.14c0.08-0.87,0.16-1.73,0.23-2.6
						C77.8,190.9,77.01,190.87,76.84,191.34z"/>
					<path class="st1" d="M133.51,177.32c-0.53,1.74-1.35,3.73-1.11,5.58c0.12,0.93,0.62,1.73,1.63,1.85
						c0.88,0.11,1.85-0.42,2.06-1.35c0.39-1.72,0.1-3.54,0.36-5.27C136.74,176.24,134.1,175.4,133.51,177.32z"/>
					<path class="st1" d="M128.64,190.62c-0.7-0.41-1.48-0.74-2.1-1.27c-1.14-0.98-2.54,0.48-1.62,1.62c0.57,0.72,1.3,1.4,2.18,1.71
						c0.77,0.27,2.04,0.52,2.57-0.29C130.19,191.59,129.23,190.97,128.64,190.62z"/>
					<path class="st1" d="M151,180.66c-2.18,5.11-11.2,12.4-17.41,11.52c-1.49-0.21-2.15,1.83-0.64,2.32
						c8.94,2.87,12.58-6.28,17.93-10.86C152.64,182.14,151.87,178.63,151,180.66z"/>
					<path class="st1" d="M174.1,110.51c2.98-4.86,0.67-9.01-1.7-13.37c-1.99-3.64-0.51-5.48,1.04-8.73
						c0.9-1.89,1.34-3.89,0.68-5.94c-0.61-1.89-2.01-3.35-3.61-4.47c-2.86-2.01-5.83-1.89-5.38-6.39c0.48-4.82-1.51-7.83-6.4-8.93
						c-1.96-0.44-3.95-1.14-4.08-3.54c-0.08-1.42,1.01-2.56,0.95-3.99c-0.08-1.83-1.7-3.64-2.89-4.86c-1.31-1.34-2.9-2.43-4.8-2.6
						c-0.91-0.08-1.83,0.03-2.67,0.4c-0.42,0.19-1.36,1.07-2.13,1.37c-0.49-3.35-1.45-6.68-4.17-8.91c-3.32-2.73-6.41-2-9.91-0.23
						c-2.87,1.45-4.19,1.39-5.74-1.54c-0.95-1.79-1.42-3.8-2.39-5.59c-1.72-3.19-4.81-5.81-8.64-5.58c-1.68,0.1-2.63,0.88-4.01,1.68
						c-2.19,1.27-3.59,1.37-5.99,1.72c-4.24,0.61-6.51,4.84-10.51,5.7c-4.78,1.03-9.14-3.82-13.54-5.07
						c-3.86-1.1-7.03-0.18-9.72,2.72c-0.88,0.95-1.88,2.89-3.32,3.09c-1.33,0.19-1.87-0.87-2.88-1.37
						c-1.13-0.56-2.21-0.66-3.39-0.23c-3.55,1.28-5.09,6.21-6.21,9.4c-1.52,4.32-3,10.33-7.98,11.89c-2.94,0.92-6.79-0.17-8.37,3.29
						c-0.93,2.05-0.19,4.36-0.99,6.48c-0.92,2.43-2.91,3.18-4.28,5.14c-2.17,3.1,1.03,6.91,0.22,10.41
						c-0.63,2.69-2.32,4.75-4.72,6.07c-1.5,0.82-3.22,1.17-4.42,2.47c-2.24,2.43-1.63,5.88-0.06,8.49c1.18,1.96,4.23,3.36,4.99,5.38
						c0.77,2.06-2.3,3.88-2.85,5.71c-1.64,5.47,6.17,9.88,2.66,14.92c-1.82,2.61-4.65,4.92-2.25,8.28c2.4,3.37,7.34,2.14,10.22,4.48
						c0.11,0.31,0.36,0.55,0.67,0.68c0.11,0.13,0.23,0.26,0.33,0.41c0.42,0.63,1.62,0.25,1.31-0.55c-0.06-0.15-0.12-0.27-0.18-0.41
						c1.28-1.96,2.84-3.58,4.63-5.08c0.26-0.22,0.37-0.68,0.26-0.99c-11.17-34.12,0.13-60.88,25.69-76.29
						c12.52-7.55,27.24-11.24,41.71-9.1c16.04,2.38,34.1,10.54,42.58,25.03c9.79,16.72,17.29,34.84,8.3,54.35
						c-0.08,0.16-0.03,0.34-0.01,0.5c-0.53,0.78-1.01,1.62-1.42,2.51c-0.7,1.5,1.45,2.83,2.26,1.32c0.48-0.9,1-1.65,1.56-2.31
						c0.35-0.14,0.64-0.41,0.81-0.85c1.51-1.43,3.3-2.37,5.48-3.44c1.48-0.73,2.97-1.5,3.68-3.09c0.67-1.5,0.3-2.84-0.31-4.27
						c-0.88-2.06-1.13-2.24,0.29-4.18C172.95,111.83,173.64,111.26,174.1,110.51z"/>
					<path class="st1" d="M118.64,171.5c-1.29,0.42-2.36,0.32-3.46,1.13c-0.84,0.62-1.72,2.19-2.36,2.92
						c-2.12,2.38-4.85,4.25-7.91,5.17c-6.48,1.96-13.96-0.96-18.12-6.19c-0.36-0.45-0.97-0.26-1.26,0.14
						c-0.3-0.08-0.61-0.14-0.91-0.21c-0.42-0.09-0.91,0.13-1.02,0.58c-0.1,0.42,0.13,0.92,0.58,1.02c0.52,0.12,1.04,0.26,1.57,0.29
						c0.09,0.01,0.18-0.01,0.27-0.04c3.6,5.08,8.74,8.09,15.32,7.75c3.09-0.16,6.13-1.1,8.77-2.72c1.39-0.85,2.7-1.89,3.8-3.09
						c1.12-1.23,2.55-4.7,4.72-3.91C120.94,175.17,121.08,170.7,118.64,171.5z"/>
				</g>
				<path class="st22" d="M110.84,182.81c-1.73-1.58-4.18-2.26-6.43-2.56c-1.75-0.23-1.77,2.31-0.39,2.85
					c1.29,0.51,2.63,1.16,3.8,1.91c0.44,0.29,0.85,0.48,0.84,1.01c-0.01,0.41-0.17,0.84-0.29,1.26c-0.67,1.13-0.29,2.67,1.21,2.87
					c1.33,0.18,2.17-0.96,2.02-2.12C112.3,186.18,112.53,184.36,110.84,182.81z"/>
				<g>
					<path class="st23" d="M140.07,205.8c-2.88-0.51-8.24-1.15-9.86-3.72c2.77,0.18,6.9,2.15,8.66,0.17
						c1.45-1.62,0.91-3.25-0.19-4.73c-1.4-1.9-3.97-5.51-6.52-5.94c-2.1-0.35-4.21,1.92-6.17,3.84c0.08-4.07-0.2-8.17-0.37-12.24
						c-0.18-4.32-0.33-8.55-1.51-12.73c-0.43-1.54-2.78-0.44-2.91,1.03c-0.27,3-0.35,5.32-0.57,8.33c-0.19,2.54-0.12,5.57-1.74,7.69
						c-3.13,4.1-12.33,2.68-16.88,2.78c-4.18,0.09-14.04,2.06-16.05-2.62c-1.78-4.14-1.43-9.37-2.5-13.75
						c-0.21-0.86-1.21-0.82-1.63-0.25c-0.49-0.1-1.05,0.17-1.1,0.85c-0.3,4.11-0.69,8.21-1.21,12.29c-0.29,2.25-0.58,4.51-0.97,6.74
						c-0.09,0.49-0.26,2.4-0.57,3.89c-0.95-0.58-1.91-1.17-2.87-1.74c-0.7-0.42-1.47,0.01-1.73,0.71
						c-1.41,3.76-3.01,7.05-4.39,10.82c-0.24,0.66,0.88,1.05,1.54,1.03c0.87-0.03,1.83,0.37,2.7,0.34c-1.47,2.43-3.98,4.46-6.79,5.6
						c-0.76,0.31-1.11,1.43-0.25,1.89c1.82,0.96,3.56,2.05,5.34,3.09c-0.89,5.03,0.1,4.58,2.77,5.82c5.6,2.61,12.8,3.71,18.87,3.76
						c13.93,0.12,28.44-1.5,41.37-6.89c0.68-0.28,0.96-0.78,0.86-1.51c-0.03-0.23-0.49-2.88-0.5-3.46c-0.03-2.17,0.82-2.18,2.1-3.62
						c1.53-1.72,2.71-3.72,3.75-5.77C141.06,206.88,140.85,205.93,140.07,205.8z"/>
					<path class="st24" d="M86.91,207.74c-2.06-1.62-4.72-1.56-7.21-1.87c-1.25-0.16-1.56,2.02-0.3,2.22
						c2.29,0.36,4.26,1.7,6.56,1.95C87.07,210.16,87.8,208.44,86.91,207.74z"/>
					<path class="st24" d="M87.06,205.7c-0.76-1.28-2.14-2.17-3.31-3.07c-0.96-0.74-2.25,0.92-1.3,1.69
						c1.08,0.88,2.07,2.05,3.31,2.68C86.58,207.42,87.57,206.56,87.06,205.7z"/>
					<path class="st24" d="M76.46,203.37c0.12-0.57,0.03-1.18-0.31-1.68c-0.45-0.65-1.12-0.99-1.84-1.25
						c-0.62-0.23-1.36,0.2-1.59,0.78c-0.14,0.34-0.12,0.7,0.01,1.03c-0.38,0.11-0.69,0.32-0.92,0.7c-0.3,0.52-0.26,1.09,0,1.61
						c0.57,1.12,1.91,1.19,3,0.71c0.07,0.01,0.15,0,0.22,0.01c0.74,0.09,1.39-0.64,1.48-1.31
						C76.53,203.77,76.51,203.57,76.46,203.37z"/>
					<path class="st24" d="M126.74,199.87c-0.66-0.45-1.42-0.29-2.08,0.05c-0.4-0.16-0.86-0.17-1.22,0.08
						c-0.86,0.58-2.34,1.23-2.65,2.29c-0.35,1.2,0.54,2.32,1.77,2.29c1.02-0.03,1.89-0.6,2.68-1.18c0.75-0.55,1.86-1.1,2.09-2.08
						C127.47,200.74,127.23,200.2,126.74,199.87z"/>
					<path class="st24" d="M137.08,199.27c-1.61-0.72-3.65-0.38-5.33-0.15c-0.34,0.05-0.6,0.21-0.79,0.43
						c-0.68-0.11-1.36-0.21-2.05-0.22c-1.08-0.01-1.65,1.65-0.58,2.14c1.73,0.79,3.72,1.13,5.59,1.43c1.3,0.21,3.01,0.35,3.94-0.79
						C138.7,201.06,138.23,199.78,137.08,199.27z"/>
					<path class="st24" d="M138.68,209.38c-1.33-0.6-2.69-1.15-3.93-1.94c-1.34-0.85-2.37-2.08-3.42-3.25
						c-0.75-0.83-1.92,0.38-1.22,1.22c0.27,0.33,0.54,0.67,0.82,1.02c-0.2,0.22-0.3,0.52-0.19,0.82c0.89,2.32,2.61,4.23,3.69,6.48
						c0.27,0.56,1.2,0.83,1.7,0.45c1.02-0.78,1.95-1.62,2.84-2.55C139.54,211.01,139.54,209.77,138.68,209.38z"/>
					<path class="st24" d="M72.44,211.03c-0.34,0.79-0.77,1.51-1.32,2.17c-0.46,0.55-1.07,1-1.47,1.6
						c-0.84,1.25-0.23,2.59,0.75,3.52c1.14,1.09,2.66-0.52,1.7-1.7c-0.48-0.59-0.53-0.78-0.12-1.43c0.22-0.35,0.52-0.66,0.75-0.99
						c0.54-0.78,0.94-1.62,1.25-2.51C74.29,210.79,72.82,210.15,72.44,211.03z"/>
					<path class="st24" d="M122.91,171.59c-0.03-0.46-0.66-0.56-0.81-0.11c-1.52,4.65-1.04,9.78-2.41,14.44
						c-1.6,5.44-10.08,4.91-14.7,5.18c-4.9,0.29-10.18,0.15-15.05-0.46c-4.42-0.55-4.52-3.88-4.92-7.6
						c-0.29-2.74-0.38-5.49-0.54-8.24c-0.07-1.22-1.85-1.23-1.9,0c-0.17,3.66-0.01,7.32,0.13,10.97c0.08,2.05-0.17,4.84,1.82,6.07
						c1.91,1.18,5.4,0.69,7.55,0.93c4.08,0.45,8.11,0.32,12.19,0.15c3.44-0.15,6.86-0.38,10.28-0.86c2.29-0.32,4.26-0.65,5.67-2.64
						c1.21-1.7,1.44-3.86,1.67-5.87C122.35,179.66,123.16,175.51,122.91,171.59z"/>
					<path class="st24" d="M94.87,217.66c-0.55-0.29-1.16-0.46-1.81-0.66c-1.09-0.33-2.17-0.8-3.19-1.3
						c-1.34-0.65-2.96,1.07-1.7,2.2c1.42,1.26,3.95,2.93,6.08,2.65c-0.27,1.35-0.5,2.7-0.63,4.06c-0.13,1.32,2.08,1.63,2.33,0.31
						c0.41-2.21,0.71-4.43,1.16-6.63C97.41,216.84,95.21,216.21,94.87,217.66z"/>
					<path class="st3" d="M127.95,201.13c-0.51-0.73-1.68-0.07-1.21,0.71c3.69,6.05,5.3,12.42,6.74,19.27
						c0.12,0.56,0.92,0.39,0.95-0.13C134.85,213.8,132,206.93,127.95,201.13z"/>
					<path class="st3" d="M135.94,195.53c-0.97-1.17-3.03-3.06-4.68-2.81c-1.58,0.24-3.17,2.42-4.27,3.44
						c-0.77,0.72,0.36,1.82,1.14,1.14c0.98-0.84,2.41-2.65,3.67-2.72c1.25-0.08,2.6,1.13,3.9,1.37
						C135.95,196,136.1,195.73,135.94,195.53z"/>
				</g>
				<g>
					<path class="st27" d="M79.84,174.6c-0.3,4.73-1.1,9.41-1.88,14.08c-0.55,3.31-1.42,6.84-1.2,10.22
						c0.07,0.98,1.58,0.78,1.52-0.2c-0.09-1.39,0.12-2.8,0.31-4.17c0.27-1.98,0.61-3.95,0.94-5.93c0.76-4.57,1.53-9.16,1.83-13.79
						C81.41,173.83,79.9,173.61,79.84,174.6L79.84,174.6z"/>
					<path class="st27" d="M46.4,133.87c1.27-11.55,5.03-22.8,10.83-32.87c5.51-9.57,13.05-18.27,22.54-24.06
						c8.57-5.23,19.09-8.02,28.97-5.3c10.31,2.85,18.97,10.29,25.63,18.4c7.01,8.53,12.5,18.55,15.5,29.19
						c0.34,1.22,0.65,2.46,0.91,3.7c0.2,0.96,1.73,0.77,1.52-0.2c-2.36-10.99-7.53-21.41-14.2-30.41
						c-6.53-8.8-15.03-16.93-25.38-20.96c-4.7-1.83-9.75-2.7-14.8-2.23c-5.24,0.49-10.37,2.04-15.08,4.37
						c-10.08,4.99-18.27,13.28-24.39,22.61c-6.55,9.98-11.02,21.38-12.97,33.16c-0.24,1.45-0.44,2.91-0.6,4.38
						C44.78,134.63,46.3,134.85,46.4,133.87L46.4,133.87z"/>
					<path class="st27" d="M86.32,174.57c0.93,1.73,2.8,3.06,4.33,4.21c1.71,1.28,3.49,2.45,5.57,3.01
						c4.5,1.22,9.63,0.26,13.54-2.21c2.19-1.38,3.99-3.36,4.96-5.78c0.36-0.92-1.04-1.52-1.41-0.61c-1.58,3.98-5.61,6.38-9.66,7.22
						c-2.05,0.43-4.18,0.5-6.24,0.1c-1.89-0.37-3.46-1.25-5.02-2.35c-0.97-0.68-1.9-1.41-2.79-2.19c-0.65-0.57-1.46-1.21-1.87-1.98
						C87.27,173.13,85.85,173.7,86.32,174.57L86.32,174.57z"/>
					<path class="st27" d="M83.29,174.4c0.66,3.95,0.61,8,1.46,11.93c0.35,1.61,0.74,3.79,2.55,4.32c1.1,0.32,2.38,0.24,3.51,0.3
						c1.27,0.06,2.54,0.12,3.81,0.17c5.03,0.19,10.09,0.21,15.11-0.32c2.39-0.25,5-0.47,7.28-1.25c1.42-0.48,2.37-1.55,2.81-2.97
						c0.63-2.04,0.74-4.31,1.03-6.42c0.38-2.77,0.73-5.54,0.99-8.32c0.09-0.98-1.42-1.2-1.52-0.21c-0.4,4.24-0.99,8.47-1.6,12.68
						c-0.18,1.25-0.36,2.74-1.54,3.48c-0.77,0.48-1.75,0.59-2.63,0.75c-1.19,0.23-2.38,0.41-3.58,0.57
						c-4.56,0.58-9.18,0.68-13.77,0.57c-2.24-0.05-4.48-0.16-6.72-0.27c-0.9-0.05-2.56,0.17-3.24-0.51
						c-0.56-0.56-0.75-1.75-0.92-2.5c-0.92-4-0.84-8.15-1.52-12.19C84.64,173.23,83.12,173.42,83.29,174.4L83.29,174.4z"/>
					<path class="st27" d="M100.15,182.3c2.85,1.49,5.7,2.96,8.54,4.45c0.87,0.46,1.48-0.95,0.61-1.41
						c-2.85-1.49-5.7-2.96-8.54-4.45C99.88,180.44,99.28,181.84,100.15,182.3L100.15,182.3z"/>
					<path class="st27" d="M97.58,176.28c0.06,0.08,0.11,0.17,0.16,0.25c0.05,0.07-0.06-0.12,0,0.01c0.03,0.05,0.06,0.11,0.08,0.16
						c0.1,0.19,0.19,0.39,0.28,0.59c0.21,0.47,0.39,0.96,0.57,1.44c0.34,0.9,0.68,1.85,1.24,2.65c0.33,0.48,1.09,0.36,1.31-0.16
						c0.71-1.64,1.26-3.35,1.97-4.99c0.16-0.37-0.01-0.86-0.4-1.01c-0.39-0.15-0.84,0.01-1.01,0.4c-0.71,1.64-1.26,3.35-1.97,4.99
						c0.44-0.05,0.88-0.1,1.31-0.16c-0.06-0.08-0.11-0.17-0.16-0.25c-0.05-0.07,0.06,0.12,0-0.01c-0.03-0.05-0.06-0.11-0.08-0.16
						c-0.1-0.19-0.19-0.39-0.28-0.59c-0.21-0.47-0.39-0.96-0.57-1.44c-0.34-0.9-0.68-1.85-1.24-2.65c-0.24-0.34-0.75-0.39-1.07-0.15
						C97.39,175.46,97.34,175.94,97.58,176.28L97.58,176.28z"/>
					<path class="st27" d="M36.24,102.61c-0.54,4.77-0.22,9.68,0.45,14.42c0.76,5.36,2.06,10.75,4.37,15.67
						c0.42,0.89,1.84,0.31,1.42-0.58c-2.26-4.81-3.52-10.04-4.27-15.28c-0.66-4.61-0.98-9.37-0.45-14.01
						C37.87,101.85,36.36,101.63,36.24,102.61L36.24,102.61z"/>
					<path class="st27" d="M38.91,96.17C41.27,81.8,49.77,69.22,61.3,60.52c11.78-8.88,26.48-13.8,41.23-13.84
						c8.66-0.02,17.29,1.73,25.25,5.13c0.91,0.39,1.51-1.02,0.61-1.41c-14.41-6.16-30.67-6.76-45.65-2.33
						c-14.25,4.21-27.38,12.98-35.98,25.19c-4.77,6.77-8.02,14.52-9.36,22.7C37.24,96.93,38.75,97.14,38.91,96.17L38.91,96.17z"/>
					<path class="st27" d="M40.02,151.93c-5.92-0.4-11.46-3.26-14.84-8.2c-3.1-4.54-4.18-10.31-2.91-15.65
						c0.08-0.33-0.17-0.67-0.45-0.81c-8.48-4.15-14.69-12.45-16.05-21.82c-0.74-5.12-0.12-10.42,1.8-15.22
						C8,89.13,8.5,88.08,9.06,87.05c0.6-1.09,1.39-2.12,1.8-3.3c0.9-2.55-0.86-4.54-1.64-6.85C7.56,72,8.84,66.5,10.64,61.81
						c1.61-4.2,3.86-8.12,6.64-11.65c5.45-6.92,12.85-12.27,21.19-15.14c1.08-0.37,2.18-0.7,3.28-0.98
						c1.11-0.28,2.27-0.46,3.33-0.89c2.26-0.91,3.14-2.91,3.88-5.08c1.36-4.05,3.45-7.74,6.34-10.91
						c5.8-6.36,14.12-10.07,22.59-11.12c8.3-1.02,17.85,0.19,24.54,5.59c1.62,1.31,3.01,2.86,4.13,4.61
						c0.74,1.15,1.46,3.59,3.27,2.77c1.33-0.59,2.44-1.85,3.47-2.83c1.01-0.96,1.97-1.98,3.16-2.73c9.29-5.88,21-5.72,30.41-0.22
						c7.38,4.31,14.12,12.17,13.36,21.23c-0.19,2.27-0.85,4.43-1.83,6.48c-0.23,0.48,0.14,0.95,0.6,1.06
						c5.99,1.42,12.19,4.47,15.38,9.97c2.82,4.86,2.79,11.6-1.33,15.72c-0.46,0.46,0.07,1.37,0.7,1.23
						c4.69-1.04,9.93,1.83,11.31,6.51c1.35,4.59-1.4,9.82-5.8,11.52c-0.78,0.3-0.47,1.69,0.39,1.47c5.24-1.35,9.45,4.7,8.66,9.47
						c-0.96,5.77-6.82,9.29-11.98,10.79c-0.94,0.27-0.36,1.69,0.58,1.42c4.79-1.39,9.59-4.25,11.88-8.86
						c2.12-4.26,1.06-9.36-2.51-12.5c-1.87-1.65-4.38-2.46-6.83-1.83c0.13,0.49,0.26,0.98,0.39,1.47c3.97-1.54,6.75-5.5,7.05-9.73
						c0.31-4.4-2.24-8.34-6.14-10.29c-2.21-1.11-4.78-1.49-7.2-0.95c0.23,0.41,0.47,0.82,0.7,1.23c3.48-3.48,4.29-8.78,3.08-13.41
						c-1.32-5.08-5.08-8.97-9.56-11.51c-2.67-1.51-5.59-2.53-8.57-3.24c0.2,0.35,0.4,0.71,0.6,1.06c2.01-4.2,2.55-8.87,1.34-13.38
						c-1.15-4.27-3.68-8.03-6.79-11.12c-7.17-7.12-17.58-10.87-27.62-9.16c-2.78,0.47-5.49,1.34-8.02,2.57
						c-1.74,0.84-3.45,1.78-4.87,3.1c-1.25,1.17-2.44,2.41-3.78,3.46c-0.22,0.17-0.5,0.46-0.77,0.54c-0.26,0.08-0.15,0.05-0.19,0.03
						c-0.32-0.17-0.58-1.02-0.76-1.34c-0.32-0.56-0.65-1.1-1.02-1.63C102.23,7.37,92.98,4.52,84.48,4.23
						c-8.86-0.3-17.89,2.1-25.13,7.3c-3.48,2.5-6.52,5.67-8.76,9.33c-1.12,1.83-2.06,3.77-2.77,5.79c-0.38,1.08-0.67,2.22-1.23,3.22
						c-0.74,1.32-1.93,1.89-3.34,2.25c-4.46,1.11-8.7,2.53-12.74,4.78c-3.94,2.2-7.54,4.94-10.73,8.13
						c-3.2,3.21-5.94,6.87-8.1,10.85c-2.3,4.23-4.11,8.97-4.61,13.78C6.8,72.3,6.96,74.98,7.8,77.49c0.42,1.23,1.14,2.32,1.57,3.53
						c0.57,1.59-0.18,2.81-0.99,4.15c-2.65,4.4-4.19,9.41-4.42,14.55c-0.45,9.75,3.87,19.19,11.48,25.3
						c1.78,1.43,3.72,2.64,5.77,3.65c-0.15-0.27-0.3-0.54-0.45-0.81c-1.36,5.74-0.11,11.93,3.2,16.79c3.59,5.25,9.55,8.37,15.85,8.8
						C40.79,153.51,41.01,152,40.02,151.93L40.02,151.93z"/>
					<path class="st27" d="M41.07,66.46c2.16,1.64,4.32,3.29,6.48,4.93c0.78,0.6,1.73-0.6,0.95-1.2c-2.16-1.64-4.32-3.29-6.48-4.93
						C41.23,64.67,40.28,65.87,41.07,66.46L41.07,66.46z"/>
					<path class="st27" d="M114.16,32.66c0.95,4.4,1.05,8.92,0.29,13.36c-0.17,0.97,1.35,1.18,1.52,0.21
						c0.78-4.56,0.69-9.24-0.29-13.77C115.48,31.51,113.95,31.69,114.16,32.66L114.16,32.66z"/>
					<path class="st27" d="M126.18,44.17c-0.33,1.71-1.01,3.43-1.97,4.89c-0.23,0.35-0.22,0.8,0.13,1.08
						c0.3,0.24,0.85,0.22,1.08-0.13c1.12-1.71,1.9-3.61,2.28-5.62c0.08-0.41-0.26-0.81-0.65-0.86
						C126.62,43.46,126.26,43.76,126.18,44.17L126.18,44.17z"/>
					<path class="st27" d="M131.99,54.33c7.2,3.16,13.24,8.53,18.05,14.67c5.04,6.43,8.88,13.85,11.22,21.69
						c1.25,4.18,2.02,8.51,2.2,12.87c0.04,0.98,1.56,0.78,1.52-0.2c-0.33-8.12-2.72-16.12-6.28-23.39
						c-3.66-7.46-8.66-14.37-14.94-19.85c-3.35-2.92-7.09-5.41-11.16-7.19C131.7,52.52,131.09,53.93,131.99,54.33L131.99,54.33z"/>
					<path class="st27" d="M163.41,106.17c0.43,3.93-0.08,8.04-0.82,11.89c-0.42,2.16-0.96,4.3-1.76,6.36
						c-0.62,1.6-1.4,3.3-2.65,4.51c-0.7,0.68,0.22,1.91,0.92,1.22c2.97-2.89,4.11-7.46,4.91-11.38c0.84-4.14,1.39-8.58,0.92-12.8
						C164.82,104.99,163.3,105.19,163.41,106.17L163.41,106.17z"/>
					<path class="st27" d="M176.08,110.41c3.22,3.62,3.01,9.84,0.16,13.61c-0.6,0.79,0.61,1.74,1.2,0.95
						c3.24-4.27,3.54-11.35-0.14-15.48C176.65,108.75,175.42,109.67,176.08,110.41L176.08,110.41z"/>
					<path class="st27" d="M167.64,75.77c-1.47,2.68-3.68,4.89-6.31,6.42c-0.36,0.21-0.38,0.77-0.15,1.07
						c0.27,0.36,0.71,0.36,1.07,0.15c2.87-1.67,5.2-4.13,6.79-7.04c0.2-0.36-0.04-0.85-0.4-1.01
						C168.24,75.2,167.84,75.41,167.64,75.77L167.64,75.77z"/>
					<path class="st27" d="M165.4,85.11c1.54,0.02,3.03-0.43,4.27-1.37c0.32-0.24,0.41-0.75,0.15-1.07
						c-0.26-0.32-0.73-0.41-1.07-0.15c-0.13,0.1-0.27,0.2-0.41,0.29c-0.02,0.01-0.21,0.13-0.13,0.08c0.08-0.05-0.12,0.06-0.14,0.07
						c-0.28,0.15-0.57,0.27-0.87,0.37c-0.08,0.03-0.16,0.05-0.24,0.08c-0.2,0.06,0.15-0.03-0.05,0.01c-0.16,0.04-0.33,0.07-0.49,0.1
						c-0.15,0.02-0.29,0.04-0.44,0.05c-0.08,0.01-0.17,0.01-0.25,0.02c-0.04,0-0.31,0-0.11,0.01c-0.4,0-0.82,0.2-0.86,0.65
						C164.71,84.62,164.97,85.11,165.4,85.11L165.4,85.11z"/>
					<path class="st27" d="M67.34,39.95c1.44,4.06,2.98,8.1,4.42,12.16c0.33,0.93,1.75,0.35,1.42-0.58
						c-1.44-4.06-2.98-8.1-4.42-12.16C68.43,38.44,67.01,39.02,67.34,39.95L67.34,39.95z"/>
					<path class="st27" d="M65.6,52.14c0.97,1,2.03,1.88,3.22,2.61c0.18,0.11,0.35,0.19,0.57,0.16c0.18-0.02,0.39-0.13,0.5-0.28
						c0.22-0.3,0.24-0.85-0.13-1.08c-0.56-0.34-1.09-0.71-1.6-1.12c-0.25-0.2-0.5-0.41-0.73-0.62c-0.12-0.1-0.23-0.21-0.34-0.32
						c-0.06-0.06-0.12-0.11-0.18-0.17c-0.03-0.03-0.06-0.07-0.1-0.1c-0.08-0.07,0.13,0.13,0,0c-0.15-0.15-0.29-0.27-0.5-0.3
						c-0.19-0.03-0.42,0.03-0.57,0.15C65.46,51.3,65.3,51.83,65.6,52.14L65.6,52.14z"/>
					<path class="st27" d="M50.83,151.04c-0.22,3.8,0.71,7.5,2.96,10.6c2.23,3.08,5.44,5.33,8.8,7.03
						c7.82,3.96,16.83,5.5,25.46,6.43c4.23,0.46,8.48,0.73,12.73,0.9c0.98,0.04,1.2-1.48,0.21-1.52c-7.8-0.31-15.62-0.94-23.28-2.5
						c-4.17-0.85-8.3-1.97-12.22-3.65c-3.42-1.47-6.8-3.4-9.32-6.18c-2.74-3.02-4.07-6.84-3.84-10.91
						C52.4,150.27,50.89,150.05,50.83,151.04L50.83,151.04z"/>
					<path class="st27" d="M102.13,175.92c7.8-1.44,15.88-2.73,23.31-5.61c1.28-0.5,2.54-1.05,3.77-1.65
						c0.88-0.43,0.31-1.85-0.58-1.42c-8.31,4.04-17.7,5.5-26.7,7.16C100.97,174.58,101.16,176.1,102.13,175.92L102.13,175.92z"/>
					<path class="st27" d="M48.39,170.6c-2.6,0.61-5.19,1.42-7.59,2.6c-0.76,0.37-1.72,0.62-2.39,1.12
						c-0.88,0.67-1.32,1.86-1.6,2.89c-0.27,0.98-0.36,2.02-0.15,3.02c0.27,1.3,1,2.55,1.53,3.77c0.53,1.23,1.06,2.46,1.59,3.7
						c0.4,0.93,0.76,1.94,1.51,2.65c0.83,0.78,2.01,1.15,3.07,1.48c1.14,0.36,2.31,0.63,3.5,0.76c2.26,0.23,4.63-0.05,6.64-1.16
						c1.7-0.94,3.15-2.38,3.94-4.17c0.9-2.05,0.63-4.21-0.09-6.27c-0.94-2.69-2.25-5.36-3.81-7.74c-0.59-0.91-1.3-1.78-2.25-2.33
						C51.07,170.21,49.74,170.31,48.39,170.6c-0.95,0.21-0.77,1.73,0.2,1.52c1.02-0.23,2.07-0.41,3.01,0.17
						c0.81,0.5,1.38,1.33,1.88,2.13c1.1,1.75,2.02,3.62,2.82,5.52c0.78,1.85,1.58,3.89,1.03,5.92c-0.42,1.53-1.49,2.84-2.77,3.75
						c-3.23,2.29-7.71,1.74-11.16,0.26c-1.93-0.83-2.45-3.31-3.21-5.1c-0.38-0.9-0.77-1.79-1.16-2.68c-0.43-0.97-0.94-1.9-0.95-2.98
						c-0.01-1.04,0.32-2.47,1.01-3.28c0.33-0.39,0.73-0.45,1.18-0.64c0.48-0.2,0.93-0.47,1.4-0.69c2.2-1.04,4.56-1.81,6.93-2.36
						C49.54,171.9,49.35,170.38,48.39,170.6z"/>
					<path class="st27" d="M38.14,176.54c-0.71-1.09-1.25-2.26-1.61-3.5c-0.29-1.01-0.75-2.46-0.11-3.41
						c0.51-0.75,1.49-1.08,2.36-1.09c1.02-0.02,1.85,0.48,2.6,1.13c1.01,0.87,1.83,1.92,2.73,2.9c0.28,0.3,0.72,0.42,1.07,0.15
						c0.31-0.23,0.43-0.77,0.15-1.07c-1.75-1.91-3.55-4.58-6.42-4.62c-1.27-0.02-2.56,0.42-3.44,1.36
						c-1.09,1.17-0.95,2.76-0.62,4.21c0.4,1.75,1.09,3.36,2.07,4.86C37.45,178.29,38.67,177.36,38.14,176.54L38.14,176.54z"/>
					<path class="st27" d="M58.76,182.62c0.48,0.15,0.96,0.32,1.42,0.54c0.09,0.04,0.18,0.09,0.26,0.14
						c0.06,0.03,0.29,0.17,0.12,0.06c0.16,0.1,0.31,0.19,0.46,0.29c0.8,0.51,1.61,0.91,2.51,1.19c0.38,0.12,0.85,0.02,1.01-0.4
						c0.13-0.35,0.01-0.88-0.4-1.01c-0.48-0.15-0.96-0.32-1.42-0.54c-0.09-0.04-0.18-0.09-0.26-0.14c-0.06-0.03-0.29-0.17-0.12-0.06
						c-0.16-0.1-0.31-0.19-0.46-0.29c-0.8-0.51-1.61-0.91-2.51-1.19c-0.38-0.12-0.85-0.02-1.01,0.4
						C58.23,181.96,58.35,182.49,58.76,182.62L58.76,182.62z"/>
					<path class="st27" d="M64.15,184.55c0,1.05,0,2.1,0,3.15c0,0.18,0.15,0.4,0.28,0.5c0.15,0.12,0.38,0.19,0.57,0.16
						c0.19-0.03,0.38-0.12,0.5-0.28c0.13-0.18,0.16-0.36,0.16-0.57c0-1.05,0-2.1,0-3.15c0-0.18-0.15-0.4-0.28-0.5
						c-0.15-0.12-0.38-0.19-0.57-0.16c-0.19,0.03-0.38,0.12-0.5,0.28C64.18,184.16,64.15,184.34,64.15,184.55L64.15,184.55z"/>
					<path class="st27" d="M65.57,183.92c0.11,0.09,0.21,0.18,0.3,0.28c-0.05-0.05-0.09-0.09-0.14-0.14
						c0.22,0.23,0.42,0.49,0.58,0.77c-0.03-0.06-0.06-0.11-0.1-0.17c0.12,0.21,0.22,0.43,0.3,0.65c0.06,0.18,0.24,0.34,0.4,0.41
						c0.17,0.08,0.42,0.09,0.59,0.01c0.39-0.18,0.56-0.59,0.42-1c-0.27-0.78-0.78-1.48-1.41-2.01c-0.15-0.13-0.38-0.18-0.57-0.16
						c-0.18,0.02-0.39,0.13-0.5,0.28C65.2,183.19,65.24,183.64,65.57,183.92L65.57,183.92z"/>
					<path class="st27" d="M67.38,184.21c2.18-1.7,4.35-3.41,6.61-5.01c1.24-0.88,2.49-1.74,3.82-2.49
						c0.82-0.46,1.81-1.05,2.71-1.06c0.98-0.02,0.78-1.54-0.2-1.52c-1.02,0.02-2.07,0.6-2.94,1.08c-1.4,0.77-2.73,1.66-4.04,2.57
						c-2.36,1.66-4.62,3.44-6.89,5.2C65.68,183.59,66.6,184.81,67.38,184.21L67.38,184.21z"/>
					<path class="st27" d="M61.33,200.66c1.36,0.68,2.72,1.35,4.2,1.71c1.54,0.38,3.15,0.34,4.71,0.16c0.98-0.11,0.78-1.63-0.2-1.52
						c-1.44,0.17-2.89,0.19-4.3-0.16c-1.34-0.33-2.59-0.99-3.81-1.6C61.06,198.81,60.45,200.22,61.33,200.66L61.33,200.66z"/>
					<path class="st27" d="M48.07,193.11c0.92,0.82,1.88,1.6,2.91,2.28c1.07,0.7,2.19,1.29,3.33,1.86c0.37,0.19,0.85-0.03,1.01-0.4
						c0.17-0.4-0.03-0.82-0.4-1.01c-1.07-0.54-2.1-1.08-3.06-1.71c-1.01-0.66-1.94-1.43-2.84-2.23c-0.31-0.28-0.83-0.18-1.08,0.13
						C47.67,192.38,47.76,192.84,48.07,193.11L48.07,193.11z"/>
					<path class="st27" d="M47.01,192.48c0.67,1.21,1.43,2.36,2.31,3.43c0.77,0.93,1.72,2.12,2.84,2.64c2.26,1.04,3.9-1.3,4.77-3.04
						c1.06-2.11,1.79-4.39,2.31-6.69c0.53-2.33,0.83-4.77,0.58-7.17c-0.1-0.98-1.62-0.78-1.52,0.2c0.41,3.88-0.63,8.04-2.11,11.6
						c-0.47,1.13-1.71,4.48-3.42,3.68c-0.91-0.42-1.69-1.51-2.31-2.27c-0.76-0.93-1.45-1.93-2.03-2.98
						C47.96,191.05,46.53,191.62,47.01,192.48L47.01,192.48z"/>
					<path class="st27" d="M62.74,185.12c0.43,2.82,0.34,5.68-0.27,8.47c-0.31,1.4-0.75,2.78-1.32,4.1
						c-0.55,1.28-1.22,2.91-2.23,3.9c-1.05,1.02-2.91,0.51-4.09-0.02c-1.18-0.54-2.19-1.38-3.05-2.34c-1.67-1.87-3.17-4.27-3.1-6.87
						c0.03-0.97-1.49-1.2-1.52-0.21c-0.12,4.43,3.34,9.37,7.45,11c1.11,0.44,2.4,0.7,3.58,0.47c1.3-0.25,2.07-1.12,2.73-2.21
						c1.39-2.26,2.39-4.73,2.98-7.31c0.7-3,0.8-6.13,0.33-9.18C64.11,183.96,62.59,184.15,62.74,185.12L62.74,185.12z"/>
					<path class="st27" d="M123,171.28c1.03,4.45,1.4,9.08,1.67,13.63c0.23,3.88,0.57,8-0.05,11.87c-0.16,0.97,1.36,1.19,1.52,0.21
						c0.63-3.91,0.29-8.09,0.07-12.02c-0.27-4.63-0.63-9.36-1.68-13.89C124.3,170.13,122.78,170.31,123,171.28L123,171.28z"/>
					<g>
						<path class="st27" d="M92.52,185.64c0.98,0,0.78-1.52-0.2-1.52C91.34,184.12,91.54,185.64,92.52,185.64L92.52,185.64z"/>
					</g>
					<g>
						<path class="st27" d="M101.27,185.93c0.98,0,0.78-1.52-0.2-1.52C100.09,184.42,100.29,185.93,101.27,185.93L101.27,185.93z"/>
					</g>
					<path class="st27" d="M124.55,171.87c0.32-0.08,0.28-0.07,0.6-0.01c0.3,0.05,0.5,0.12,0.81,0.25c0.79,0.32,1.55,0.74,2.29,1.16
						c2.14,1.21,4.24,2.48,6.44,3.58c0.88,0.44,1.49-0.97,0.61-1.41c-2.29-1.14-4.46-2.48-6.69-3.72c-1.18-0.66-2.83-1.71-4.26-1.37
						c-0.4,0.1-0.71,0.42-0.66,0.86C123.74,171.59,124.15,171.97,124.55,171.87L124.55,171.87z"/>
					<path class="st27" d="M136.24,195.77c4,0.01,7.21-2.16,9.95-4.89c2.66-2.65,4.78-5.77,6.83-8.89c0.54-0.82-0.66-1.77-1.2-0.95
						c-1.91,2.91-3.88,5.81-6.29,8.34c-1.17,1.23-2.46,2.36-3.9,3.28c-1.71,1.1-3.56,1.6-5.59,1.6
						C135.06,194.25,135.26,195.77,136.24,195.77L136.24,195.77z"/>
					<path class="st27" d="M126.1,193.17c0.58,0.21,1.15,0.43,1.73,0.64c0.19,0.07,0.4,0.09,0.59,0.01c0.17-0.07,0.35-0.23,0.41-0.4
						c0.07-0.19,0.09-0.41,0.01-0.59c-0.08-0.18-0.22-0.34-0.4-0.41c-0.58-0.21-1.15-0.43-1.73-0.64c-0.19-0.07-0.4-0.09-0.59-0.01
						c-0.17,0.07-0.35,0.23-0.41,0.4c-0.07,0.19-0.09,0.41-0.01,0.59C125.78,192.94,125.92,193.11,126.1,193.17L126.1,193.17z"/>
					<path class="st27" d="M134.11,177.95c-0.53,1.61-0.77,3.27-0.71,4.97c0.01,0.4,0.48,0.73,0.86,0.66
						c0.44-0.08,0.68-0.43,0.66-0.86c-0.02-0.66,0.01-1.37,0.12-2.11c0.11-0.74,0.27-1.42,0.48-2.05c0.13-0.38,0.01-0.85-0.4-1.01
						C134.76,177.42,134.24,177.55,134.11,177.95L134.11,177.95z"/>
					<path class="st27" d="M136.01,178.68c0,1.3,0,2.61,0,3.91c0,0.4,0.49,0.73,0.86,0.66c0.45-0.08,0.66-0.43,0.66-0.86
						c0-1.3,0-2.61,0-3.91c0-0.4-0.49-0.73-0.86-0.66C136.22,177.9,136.01,178.25,136.01,178.68L136.01,178.68z"/>
					<path class="st27" d="M136.07,177.11c0.65-0.76,1.3-1.52,1.96-2.28c0.26-0.3,0.2-0.84-0.13-1.08c-0.35-0.25-0.8-0.2-1.08,0.13
						c-0.65,0.76-1.3,1.52-1.96,2.28c-0.26,0.3-0.2,0.84,0.13,1.08C135.34,177.49,135.79,177.43,136.07,177.11L136.07,177.11z"/>
					<path class="st27" d="M79,204.53c2.45,0.91,4.82,2.04,7.05,3.41c0.35,0.22,0.8,0.22,1.08-0.13c0.23-0.29,0.23-0.86-0.13-1.08
						c-2.34-1.44-4.81-2.66-7.39-3.62C78.69,202.78,78.08,204.19,79,204.53L79,204.53z"/>
					<path class="st27" d="M79.57,209.21c2.04,0.46,4.07,0.92,6.11,1.38c0.4,0.09,0.81-0.27,0.86-0.65
						c0.06-0.44-0.25-0.77-0.65-0.86c-2.04-0.46-4.07-0.92-6.11-1.38c-0.4-0.09-0.81,0.27-0.86,0.65
						C78.86,208.78,79.17,209.12,79.57,209.21L79.57,209.21z"/>
					<path class="st27" d="M76.08,203.15c-2.91,6.24-5.9,13.12-5.91,20.12c0,0.98,1.52,0.78,1.52-0.2c0-3.4,0.9-6.78,1.97-9.98
						c1.07-3.19,2.4-6.29,3.82-9.33C77.91,202.86,76.5,202.26,76.08,203.15L76.08,203.15z"/>
					<path class="st27" d="M70.82,224.25c7.75,3.94,16.78,5.22,25.38,5.47c9.27,0.27,18.65-0.7,27.61-3.1
						c4.27-1.15,8.49-2.64,12.34-4.82c0.85-0.48,0.28-1.9-0.58-1.42c-7.1,4.03-15.41,5.93-23.44,6.99
						c-9.11,1.21-18.49,1.28-27.56-0.34c-4.54-0.81-9.02-2.09-13.15-4.18C70.55,222.4,69.95,223.81,70.82,224.25L70.82,224.25z"/>
					<path class="st27" d="M126.02,199.2c4.43,6.5,7.89,13.52,8.89,21.41c0.12,0.98,1.64,0.78,1.52-0.2
						c-1.02-8.14-4.6-15.42-9.18-22.13C126.69,197.47,125.47,198.39,126.02,199.2L126.02,199.2z"/>
					<path class="st27" d="M126.62,196.82c0.78-0.82,1.55-1.64,2.33-2.45c0.34-0.36,0.67-0.74,1.03-1.09
						c0.42-0.4,0.78-0.51,1.33-0.33c1.62,0.53,3.19,1.58,4.46,2.7c1.23,1.09,2.24,2.45,2.73,4.03c0.12,0.4,0.21,0.81,0.25,1.23
						c0.05,0.51-0.1,0.68-0.56,0.87c-0.89,0.37-1.87,0.48-2.83,0.45c-2.28-0.09-4.47-0.82-6.71-1.17c-0.97-0.15-1.19,1.36-0.21,1.52
						c2.42,0.38,4.79,1.17,7.25,1.18c1.13,0,2.31-0.16,3.33-0.67c1.11-0.55,1.39-1.49,1.21-2.67c-0.63-4.18-4.42-7.42-8.21-8.84
						c-1.34-0.5-2.34-0.19-3.31,0.81c-1.11,1.14-2.19,2.31-3.29,3.47C124.74,196.59,125.95,197.53,126.62,196.82L126.62,196.82z"/>
					<path class="st27" d="M129.47,200.6c1.68-0.48,3.44-0.7,5.18-0.71c0.41,0,0.71-0.49,0.66-0.86c-0.06-0.45-0.44-0.66-0.86-0.66
						c-1.89,0.01-3.75,0.29-5.57,0.81c-0.4,0.11-0.56,0.65-0.42,1C128.65,200.6,129.07,200.71,129.47,200.6L129.47,200.6z"/>
					<path class="st27" d="M78.19,197c-1.73-0.67-3.51-2.45-5.46-1.28c-0.93,0.56-1.23,1.62-1.58,2.57
						c-0.41,1.13-0.82,2.26-1.23,3.39s-0.82,2.26-1.23,3.39c-0.32,0.88-0.78,1.91-0.37,2.84c0.43,0.97,1.48,1.08,2.4,1
						c1.23-0.1,2.45-0.23,3.68-0.34c0.98-0.09,0.78-1.61-0.2-1.52c-0.96,0.09-1.92,0.18-2.87,0.26c-0.41,0.04-0.86,0.14-1.28,0.09
						c-0.33-0.04-0.38-0.14-0.35-0.46c0.07-0.79,0.53-1.63,0.8-2.36c0.33-0.91,0.66-1.82,0.99-2.73c0.33-0.91,0.66-1.82,0.99-2.73
						c0.23-0.63,0.42-1.71,1.03-2.09c0.55-0.35,1.33-0.07,1.85,0.19c0.76,0.37,1.43,0.88,2.22,1.19
						C78.5,198.76,79.11,197.36,78.19,197L78.19,197z"/>
					<path class="st27" d="M72.74,202.62c0.6,0.36,1.2,0.72,1.79,1.08c0.08,0.07,0.17,0.11,0.27,0.13c0.1,0.04,0.2,0.05,0.3,0.03
						c0.18-0.02,0.39-0.13,0.5-0.28c0.12-0.16,0.19-0.37,0.16-0.57c-0.03-0.18-0.12-0.4-0.28-0.5c-0.6-0.36-1.2-0.72-1.79-1.08
						c-0.08-0.07-0.17-0.11-0.27-0.13c-0.1-0.04-0.2-0.05-0.3-0.03c-0.18,0.02-0.39,0.13-0.5,0.28c-0.12,0.16-0.19,0.37-0.16,0.57
						C72.49,202.3,72.57,202.53,72.74,202.62L72.74,202.62z"/>
					<path class="st27" d="M131.15,204.67c1.53,0.85,3.19,1.44,4.91,1.75c0.79,0.15,1.6,0.23,2.41,0.25
						c0.44,0.01,0.88,0.01,1.32-0.01c0.05,0,0.39,0.03,0.44,0c0.07,0.02,0.09,0.02,0.04-0.01c-0.07-0.23-0.12-0.23-0.15-0.02
						c-0.22,0.26-0.33,0.8-0.48,1.1c-0.16,0.34-0.33,0.67-0.51,0.99c-0.37,0.67-0.8,1.3-1.26,1.91c-0.97,1.28-2.12,2.39-3.41,3.34
						c-0.8,0.58,0.13,1.81,0.92,1.22c1.44-1.06,2.73-2.32,3.79-3.75c0.55-0.74,1.05-1.53,1.49-2.34c0.4-0.75,0.94-1.66,1.03-2.51
						c0.1-1.01-0.78-1.48-1.65-1.47c-0.93,0.01-1.83,0.05-2.76-0.06c-1.95-0.23-3.81-0.84-5.53-1.79
						C130.9,202.79,130.3,204.2,131.15,204.67L131.15,204.67z"/>
					<path class="st27" d="M72.87,208.3c-1.85,2.78-4.61,4.79-7.82,5.73c-0.69,0.2-0.53,1.13-0.01,1.41
						c1.94,1.04,3.46,2.66,5.4,3.69c0.87,0.46,1.47-0.95,0.61-1.41c-1.94-1.03-3.46-2.65-5.4-3.69c0,0.47-0.01,0.94-0.01,1.41
						c3.42-1,6.46-3.23,8.44-6.19C74.61,208.43,73.41,207.48,72.87,208.3L72.87,208.3z"/>
					<path class="st27" d="M94.6,202.26c3.46-0.57,6.92-1.05,10.41-1.44c0.44-0.05,0.88-0.1,1.32-0.14
						c0.32-0.03,0.72-0.15,1.04-0.08c0.68,0.14,0.94,1.33,1.12,1.91c0.45,1.45,0.57,3.01,0.39,4.52c-0.33,2.61-1.65,5.29-4.02,6.6
						c-2.11,1.17-4.99,1.21-6.96-0.28c-2.56-1.93-2.6-5.61-2.64-8.52c-0.01-0.98-1.53-0.78-1.52,0.2c0.04,3.19,0.25,6.8,2.74,9.13
						c2.13,2,5.45,2.3,8.11,1.28c3-1.15,4.92-4.04,5.62-7.08c0.37-1.61,0.39-3.31,0.09-4.93c-0.26-1.4-0.73-3.74-2.29-4.26
						c-0.92-0.31-2.1,0.01-3.04,0.12c-1.18,0.13-2.35,0.27-3.53,0.42c-2.35,0.3-4.69,0.65-7.03,1.03
						C93.43,200.9,93.63,202.42,94.6,202.26L94.6,202.26z"/>
					<path class="st27" d="M83.51,125.97c-2.55-7.78-11.65-8.23-15.9-1.53c-1.82,2.87-2.3,6.46-1.69,9.8
						c0.44,2.39,1.44,4.73,3.16,6.44c1.72,1.72,4.2,2.75,6.61,2.4c2.55-0.37,4.69-2.2,6.11-4.35c1.1-1.66,1.83-3.54,2.19-5.49
						C84.42,130.83,84.27,128.31,83.51,125.97z M71.2,128.08c-0.06,0.29-0.18,0.57-0.37,0.79c-0.05,0.05-0.1,0.08-0.16,0.12
						c0,0.01-0.01,0.02-0.01,0.02c-0.71,1.32-1.85,0.1-1.98-0.89C68.37,125.94,71.97,124.69,71.2,128.08z"/>
					<path class="st27" d="M128.78,128.68c-0.3-1.99-1.07-3.86-2.34-5.31c-1.46-1.67-3.69-2.63-5.9-2.54
						c-6.64,0.25-9.24,7.9-8.18,13.45c0.52,2.74,2.1,5.35,4.54,6.69c3.54,1.94,7.25,0.57,9.59-2.48
						C128.45,135.92,129.3,132.13,128.78,128.68z M125.95,129.37c-0.28,0.26-0.71,0.36-1.03,0.15c-0.19-0.13-0.32-0.34-0.43-0.54
						c-0.86-1.51-0.22-3.19,1.34-1.43c0.35,0.39,0.55,0.96,0.37,1.46C126.14,129.14,126.06,129.27,125.95,129.37z"/>
					<path class="st27" d="M113.4,119.54c2.65-4.08,8.81-6.4,13.21-3.9c1.43,0.81,2.47-1.2,1.25-2.14
						c-5.32-4.1-13.48-0.42-16.66,4.75C110.33,119.66,112.51,120.91,113.4,119.54L113.4,119.54z"/>
					<path class="st27" d="M83.77,116.45c-4.22-6.13-14.41-5.72-18.39,0.4c-0.8,1.22,1.13,2.77,2.06,1.59
						c3.14-4.02,10.76-5.23,14.04-0.65C82.46,119.16,84.74,117.87,83.77,116.45L83.77,116.45z"/>
					<path class="st27" d="M76.3,198.53c-0.89,0.57-1.39,1.68-1.27,2.72c0.12,1.02,0.85,1.95,1.81,2.32c0.37,0.14,0.86,0,1.01-0.4
						c0.14-0.37,0-0.85-0.4-1.01c-0.08-0.03-0.17-0.07-0.25-0.11c-0.1-0.05,0.02-0.01,0.03,0.02c-0.01-0.02-0.09-0.06-0.11-0.08
						c-0.07-0.05-0.14-0.11-0.21-0.17c-0.08-0.06,0.12,0.14,0.01,0c-0.02-0.03-0.05-0.05-0.07-0.08c-0.04-0.05-0.15-0.16-0.16-0.22
						c0.01,0.07,0.06,0.11,0.01,0c-0.02-0.04-0.04-0.08-0.06-0.12c-0.01-0.03-0.03-0.07-0.04-0.1c0-0.01-0.07-0.17-0.02-0.06
						c0.04,0.11-0.01-0.03-0.01-0.06c-0.01-0.04-0.02-0.09-0.02-0.13c0-0.04-0.01-0.07-0.01-0.11c-0.01-0.14-0.03-0.03,0,0.01
						c-0.03-0.04,0.02-0.22,0.03-0.27c0.01-0.04,0.01-0.07,0.02-0.11c0.04-0.17-0.04,0.11,0,0.01c0.04-0.09,0.06-0.17,0.1-0.26
						c0.01-0.02,0.07-0.12,0.06-0.12c0.01,0.01-0.09,0.13-0.02,0.03c0.05-0.08,0.11-0.15,0.17-0.22c0.02-0.02,0.12-0.14,0.04-0.05
						c-0.08,0.08,0.04-0.04,0.05-0.04c0.07-0.06,0.15-0.11,0.22-0.16c0.34-0.22,0.4-0.77,0.15-1.07
						C77.09,198.34,76.66,198.3,76.3,198.53L76.3,198.53z"/>
					<path class="st27" d="M125.29,197.54c-0.16,0.13-0.33,0.25-0.51,0.37c-0.08,0.05-0.16,0.1-0.24,0.15
						c-0.04,0.02-0.08,0.05-0.12,0.07c-0.15,0.09,0.07-0.04-0.07,0.04c-0.37,0.2-0.74,0.39-1.11,0.58
						c-0.81,0.42-1.58,0.87-2.23,1.51c-0.59,0.59-1.17,1.49-1,2.36c0.11,0.59,0.57,1.04,1.18,1.11c0.57,0.06,1.12-0.23,1.6-0.49
						c1.06-0.56,1.99-1.27,2.83-2.12c0.28-0.29,0.18-0.85-0.13-1.08c-0.37-0.26-0.78-0.18-1.08,0.13c-0.21,0.21-0.54,0.51-0.85,0.76
						c-0.33,0.26-0.67,0.5-1.03,0.71c-0.25,0.15-0.66,0.37-1.02,0.52c-0.01,0.01-0.17,0.06-0.1,0.04c0.06-0.02-0.06,0.01-0.06,0.01
						c-0.21,0.03-0.04,0-0.03,0c0.03,0.02,0.09,0.03,0.13,0.05c-0.05-0.03-0.07-0.1,0.03,0.03c0,0,0.06,0.14,0.04,0.06
						c-0.03-0.1,0.03,0.15,0.01,0.05c-0.02-0.12-0.04-0.04-0.01,0.02c-0.02-0.06,0.02-0.17,0.03-0.23c0-0.02,0.03-0.11,0-0.02
						c-0.03,0.1,0.01-0.02,0.02-0.05c0.03-0.07,0.05-0.13,0.08-0.2c0.02-0.04,0.04-0.07,0.06-0.11c-0.05,0.09-0.04,0.06,0.01-0.01
						c0.1-0.14,0.2-0.28,0.32-0.4c0.03-0.03,0.06-0.07,0.09-0.1c0.01-0.01,0.08-0.09,0.02-0.03c-0.06,0.06,0.04-0.03,0.05-0.05
						c0.04-0.04,0.08-0.07,0.13-0.11c0.27-0.23,0.56-0.42,0.86-0.6c0.04-0.02,0.22-0.13,0.1-0.06c0.08-0.05,0.16-0.09,0.24-0.13
						c0.16-0.09,0.33-0.17,0.49-0.26c0.76-0.39,1.53-0.78,2.21-1.31c0.32-0.25,0.42-0.75,0.15-1.07
						C126.11,197.38,125.63,197.28,125.29,197.54L125.29,197.54z"/>
					<path class="st27" d="M125,197.88c0.11,0.17,0.28,0.28,0.45,0.37c0.08,0.04,0.16,0.07,0.24,0.1c0.25,0.07,0.5,0.12,0.75,0.19
						c-0.07-0.02-0.13-0.04-0.2-0.06c0.09,0.02,0.17,0.05,0.25,0.1c-0.06-0.03-0.11-0.07-0.17-0.1c0.03,0.02,0.06,0.04,0.09,0.07
						c-0.05-0.05-0.09-0.09-0.14-0.14c0.02,0.02,0.03,0.04,0.05,0.06c0.1,0.16,0.33,0.27,0.5,0.3c0.19,0.03,0.42-0.03,0.57-0.15
						c0.15-0.13,0.28-0.3,0.3-0.5c0-0.07,0-0.14,0-0.21c-0.02-0.13-0.07-0.25-0.15-0.36c-0.11-0.17-0.28-0.28-0.45-0.37
						c-0.08-0.04-0.16-0.07-0.24-0.1c-0.25-0.07-0.5-0.12-0.75-0.19c0.07,0.02,0.13,0.04,0.2,0.06c-0.09-0.02-0.17-0.05-0.25-0.1
						c0.06,0.03,0.11,0.07,0.17,0.1c-0.03-0.02-0.06-0.04-0.09-0.07c0.05,0.05,0.09,0.09,0.14,0.14c-0.02-0.02-0.03-0.04-0.05-0.06
						c-0.1-0.16-0.33-0.27-0.5-0.3c-0.19-0.03-0.42,0.03-0.57,0.15c-0.15,0.13-0.28,0.3-0.3,0.5c0,0.07,0,0.14,0,0.21
						C124.87,197.65,124.92,197.77,125,197.88L125,197.88z"/>
					<path class="st27" d="M23.24,95.63c4.49,1.1,9.31,0.55,13.44-1.52c0.87-0.44,0.3-1.86-0.58-1.42
						c-3.92,1.97-8.39,2.47-12.65,1.42C22.5,93.88,22.29,95.39,23.24,95.63L23.24,95.63z"/>
					<path class="st27" d="M30.91,99.04c1.12-0.25,2.23-0.5,3.35-0.75c0.39-0.09,0.74-0.42,0.66-0.86
						c-0.07-0.38-0.44-0.75-0.86-0.66c-1.12,0.25-2.23,0.5-3.35,0.75c-0.39,0.09-0.74,0.42-0.66,0.86
						C30.11,98.76,30.49,99.14,30.91,99.04L30.91,99.04z"/>
					<path class="st27" d="M28.27,127.35c-0.36,0.2-0.73,0.4-1.09,0.6c0.3,0.39,0.59,0.79,0.89,1.18c1.6-1.96,3.67-3.48,6.02-4.41
						c0.92-0.36,0.34-1.78-0.58-1.42c-2.59,1.03-4.89,2.72-6.65,4.88c-0.21,0.26-0.21,0.67-0.01,0.94c0.19,0.25,0.61,0.41,0.9,0.25
						c0.36-0.2,0.73-0.4,1.09-0.6c0.36-0.2,0.59-0.59,0.42-1C29.12,127.41,28.63,127.15,28.27,127.35L28.27,127.35z"/>
					<path class="st27" d="M28.29,120.99c0.62-0.12,1.24-0.25,1.86-0.37c0.2-0.04,0.37-0.12,0.5-0.28c0.12-0.15,0.19-0.38,0.16-0.57
						c-0.03-0.19-0.12-0.38-0.28-0.5c-0.16-0.12-0.37-0.2-0.57-0.16c-0.62,0.12-1.24,0.25-1.86,0.37c-0.2,0.04-0.37,0.12-0.5,0.28
						c-0.12,0.15-0.19,0.38-0.16,0.57c0.03,0.19,0.12,0.38,0.28,0.5C27.87,120.94,28.08,121.03,28.29,120.99L28.29,120.99z"/>
					<path class="st27" d="M146.37,50.23c-0.37,0.87-0.75,1.74-1.12,2.61c-0.16,0.37,0.01,0.86,0.4,1.01c0.39,0.15,0.84,0,1.01-0.4
						c0.37-0.87,0.75-1.74,1.12-2.61c0.16-0.37-0.01-0.86-0.4-1.01C146.99,49.68,146.54,49.83,146.37,50.23L146.37,50.23z"/>
					<g>
						<path class="st27" d="M90.78,143.23c2.5,0.38,5.06,0.36,7.56-0.09c1.16-0.21,2.32-0.52,3.44-0.9
							c0.53-0.18,1.05-0.39,1.56-0.61c0.59-0.26,1.41-0.91,2.05-0.97c0.94-0.08,2.26,0.89,2.94,1.41c0.83,0.64,1.55,1.43,2.11,2.31
							c1.23,1.92,1.58,4.23,1.11,6.45c-1,4.69-5.14,7.85-9.69,8.72c-4.25,0.81-9.76,0.21-12.54-3.5c-1.48-1.98-2.36-4.57-2.01-7.06
							c0.29-2.02,1.23-4.56,3.14-5.57c0.86-0.45,0.29-1.88-0.58-1.42c-4.13,2.18-4.92,8.1-3.38,12.07c0.93,2.42,2.6,4.49,4.91,5.69
							c2.23,1.16,4.76,1.61,7.25,1.61c5.34,0,10.66-2.35,13.26-7.19c2.42-4.52,1.47-10.14-2.65-13.32c-0.99-0.77-2.33-1.59-3.6-1.73
							c-0.7-0.08-1.25,0.27-1.85,0.57c-0.75,0.38-1.52,0.71-2.31,1c-3.36,1.22-6.98,1.54-10.52,1.01
							C90.02,141.56,89.81,143.08,90.78,143.23L90.78,143.23z"/>
						<path class="st27" d="M104.89,150.34c1.35-0.5,2.63-1.23,3.82-2.04c1.18-0.81,2.32-1.74,3.22-2.87
							c0.61-0.77-0.59-1.72-1.2-0.95c-0.82,1.03-1.86,1.86-2.94,2.59c-1.09,0.74-2.25,1.38-3.48,1.84
							C103.39,149.27,103.97,150.69,104.89,150.34L104.89,150.34z"/>
					</g>
					<path class="st27" d="M108.3,186.06c-0.43,1.2-0.86,2.4-1.29,3.59c-0.14,0.38,0,0.85,0.4,1.01c0.37,0.14,0.86,0,1.01-0.4
						c0.43-1.2,0.86-2.4,1.29-3.59c0.14-0.38,0-0.85-0.4-1.01C108.94,185.53,108.45,185.66,108.3,186.06L108.3,186.06z"/>
					<path class="st27" d="M105.55,181.58c1.12,0.31,2.17,0.83,3.16,1.42c0.81,0.48,1.82,0.98,2.3,1.83
						c0.8,1.42,0.12,3.28-0.37,4.68c-0.32,0.93,1.08,1.54,1.41,0.61c0.64-1.85,1.35-4.09,0.34-5.94c-0.59-1.08-1.6-1.7-2.62-2.32
						c-1.14-0.69-2.32-1.33-3.61-1.69c-0.4-0.11-0.83-0.02-1.01,0.4C105.01,180.91,105.15,181.46,105.55,181.58L105.55,181.58z"/>
				</g>
				<path class="st28" d="M46.01,130.73c0.95,3.14,1.98,6.89,2.95,11.12c2.12,9.15,2.16,12.78,4.61,17.92
					c0.01,0.01,0.01,0.02,0.02,0.03"/>
				<path class="st1" d="M39.77,129.63l5.28,8.07l-0.28,10.25c0,0-7.1-2.02-7.58-4.96c-0.47-2.94-2.63-7.39-2.63-7.39L39.77,129.63z
					"/>
			</g>
			<g>
				<path class="st29" d="M53.57,111.74c-1.63,2.4-5.61,9.92-7.62,18.65c-0.73,3.15-1.19,6.45-1.19,9.73
					c-0.01,10.3,3.7,17.93,5.7,21.43c0.02,0.05,0.04,0.08,0.04,0.08c-0.05-0.35-0.09-0.76-0.14-1.21c-0.12-1.15-0.23-2.6-0.3-4.3
					c-0.31-8.54,0.74-23.42,9.86-38.53c12.44-20.62,31.59-27.89,36.87-29.7"/>
				<path class="st30" d="M64.15,168.8l-10.36-4.77c-1.19-0.55-2.19-1.43-2.86-2.52c-0.23-0.35-0.41-0.71-0.56-1.1
					c-0.13-0.32-0.23-0.64-0.31-0.98l-0.47-2.07l0.48-1.25l1.02-2.67l3.66,7.05l1.12,2.15L64.15,168.8z"/>
				<path class="st31" d="M97.15,70.49v17.5c-0.12-0.04-0.24-0.08-0.35-0.11c-5.28,1.81-24.44,9.09-36.87,29.7
					c-9.13,15.12-10.17,30-9.86,38.54l1.02-2.67l3.66,7.05l2.91,5.31l-7.16-4.19c0,0-0.01-0.02-0.03-0.07
					c-0.49-1-5.59-11.86-5.58-19.69c0-4.24,0.54-8.42,1.07-11.47c0.49-2.86,0.96-4.73,0.96-4.73s7.26-25.49,18-36.66
					C74.49,79.04,85.77,72.06,97.15,70.49z"/>
				<g>
					<path class="st30" d="M129.31,168.24l9.96-4.77c1.15-0.55,2.1-1.43,2.75-2.52c0.22-0.35,0.4-0.71,0.54-1.1
						c0.12-0.32,0.22-0.64,0.3-0.98l0.46-2.07l-0.46-1.25l-0.98-2.67l-3.53,7.05l-1.08,2.15L129.31,168.24z"/>
					<path class="st31" d="M97.56,69.93v17.5c0.12-0.04,0.23-0.08,0.34-0.11c5.08,1.81,23.51,9.09,35.47,29.7
						c8.78,15.12,9.78,30,9.49,38.54l-0.98-2.67l-3.52,7.05l-2.8,5.31l6.89-4.19c0,0,0.01-0.02,0.03-0.07
						c0.47-1,5.38-11.86,5.37-19.69c0-4.24-0.52-8.42-1.03-11.47c-0.47-2.86-0.92-4.73-0.92-4.73s-6.98-25.49-17.32-36.66
						C119.36,78.48,108.51,71.5,97.56,69.93z"/>
				</g>
			</g>
			<g>
				<path class="st27" d="M52.96,95.05c2.6-4.6,5.82-8.85,9.4-12.77c3.58-3.92,7.63-7.44,12.1-10.38c4.46-2.95,9.36-5.24,14.5-6.81
					l1.94-0.55c0.65-0.18,1.29-0.39,1.96-0.48l3.98-0.7c2.64-0.39,5.33-0.61,8.02-0.63c5.38-0.04,10.82,0.75,15.93,2.58
					c5.13,1.76,9.89,4.57,14,8.09c8.17,7.17,13.41,17.32,14.84,27.81c-2.99-10.12-8.48-19.4-16.35-26.05
					c-3.96-3.26-8.43-5.93-13.28-7.63c-4.83-1.77-9.99-2.51-15.15-2.57c-2.58-0.02-5.17,0.15-7.76,0.5l-3.83,0.62
					c-1.28,0.21-2.51,0.61-3.77,0.91c-4.99,1.37-9.77,3.51-14.23,6.22C66.38,78.66,58.82,86.29,52.96,95.05z"/>
			</g>
		</g>
	</g>
	<path class="st11" d="M167.49,159.67c-0.01,0.3-0.01,0.65-0.01,1.05v0.45c-0.03,0.35-0.1,0.69-0.18,1.03
		c-0.38,1.68-1.04,3.22-1.96,4.68c0.01,0.03,0.02,0.06,0.02,0.09c0.24,0.93,0.31,1.91,0.12,2.87c-0.07,0.36-0.18,0.72-0.32,1.07
		c-0.34,0.92-0.83,1.81-1.21,2.69c-0.53,1.23-1.06,2.47-1.59,3.7c-0.07,0.17-0.14,0.35-0.22,0.52l-2.26,2.8
		c-0.66,0.36-1.41,0.6-2.1,0.82c-0.87,0.27-1.75,0.49-2.65,0.64c-0.06,0.1-0.12,0.21-0.18,0.31c-0.01,0.39-0.06,0.78-0.13,1.18
		c-0.25,0.09-0.51,0.18-0.77,0.28c-0.3,0.1-0.6,0.21-0.91,0.32c-0.53,0.19-1.07,0.38-1.59,0.56h-0.01c-0.03,0-0.05,0.01-0.08,0.03
		h-0.01c-1.73,0.58-3.29,1.06-4.03,1.17c-0.24,0.04-0.45,0.06-0.62,0.06h-0.01c-1.35,0.08-0.77-0.71-1.82-3.38
		c-0.42-1.07-0.84-3.27-1.22-5.64c-0.2-1.3-0.39-2.64-0.56-3.89c-0.03-0.26-0.07-0.51-0.1-0.76c-0.07-0.55-0.13-1.07-0.19-1.54
		c0-0.05-0.01-0.09-0.02-0.14c0.18-0.04,0.37-0.02,0.54,0.07c0.11,0.04,0.2,0.11,0.27,0.19c0.03-0.1,0.06-0.21,0.1-0.31
		c0.39-1.13,0.85-2.25,1.37-3.34c0.71-1.53,1.54-3.01,2.44-4.4c0.59-0.9,1.3-1.77,2.25-2.32c1.23-0.72,2.56-0.62,3.9-0.32
		c0.44,0.1,0.87,0.21,1.3,0.32c0.64,0.17,1.28,0.35,1.91,0.55c1.13-1.25,2.28-2.78,3.74-3.68c0.75-0.47,1.59-0.77,2.54-0.78
		c0.09,0,0.17,0,0.26,0.01c1.28,0.57,2.58,1.17,3.35,1.56C167.21,158.64,167.4,159.14,167.49,159.67z"/>
	<path class="st10" d="M165.48,169.84c-0.07,0.36-0.18,0.72-0.32,1.07c-2.22,1.67-5.18,2.68-8.44,2.68c-5.24,0-9.73-2.62-11.56-6.34
		c0.71-1.53,1.54-3.01,2.44-4.4c0.59-0.9,1.3-1.77,2.25-2.32c1.23-0.72,2.56-0.62,3.9-0.32c0.44,0.1,0.87,0.21,1.3,0.32l5.86,4.4
		l4.45,2.04C165.6,167.9,165.67,168.88,165.48,169.84z"/>
	<path class="st10" d="M167.49,159.67c-0.01,0.3-0.01,0.65-0.01,1.05c-0.7,0.57-1.52,0.9-2.41,0.9c-2.07,0-3.82-1.78-4.37-4.22
		c0.75-0.47,1.59-0.77,2.54-0.78c0.09,0,0.17,0,0.26,0.01c1.28,0.57,2.58,1.17,3.35,1.56C167.21,158.64,167.4,159.14,167.49,159.67z
		"/>
	<path class="st68" d="M148.84,113.52c0,0,2.05,2.9,2.73,13.28c0.68,10.38-5.12,23.28-5.12,23.28l9.49-16.3
		c0,0,5.25-5.53,6.82-12.96c1.57-7.43,1.7-17.86,1.7-17.86"/>
	<path class="st21" d="M154.16,185.83c-1.23,3.05-3.77,5.79-6.64,6.92c-1.1,0.43-2.4,0.69-3.58,0.47c-1.3-0.25-2.07-1.12-2.74-2.21
		c-1.39-2.25-2.38-4.72-2.98-7.31c-0.7-3-0.8-6.13-0.33-9.17c0.01-0.05,0.02-0.09,0.04-0.13c-0.14-0.07-0.26-0.18-0.32-0.35
		c-0.14-0.35-0.01-0.88,0.39-1.01c0.49-0.15,0.97-0.32,1.42-0.54c0.09-0.05,0.18-0.09,0.26-0.14c0.04-0.02,0.15-0.08,0.17-0.1
		c0.14-0.08,0.28-0.17,0.41-0.26c0.7-0.45,1.4-0.81,2.18-1.07c0.2-0.33,0.65-0.39,0.98-0.22l0.01,0.14l0.04,0.79l0.03,0.54
		l0.26,4.81l0.08,1.38l2.26,6.8l0.73,0.71l1.01,0.97l0.47-0.12l1.76-0.44l1.4-0.36l1.77-2.11l0.63-0.75l0.1,0.9L154.16,185.83z"/>
	<g>
		<path class="st27" d="M165.34,166.88c0-0.02,0-0.04-0.01-0.06c-0.16-0.59-0.37-1.23-0.69-1.79c-0.23-0.43-0.53-0.82-0.91-1.1
			c-0.68-0.51-1.63-0.75-2.39-1.12c-0.91-0.45-1.85-0.85-2.81-1.2c-0.52-0.19-1.04-0.37-1.57-0.53c-1.06-0.34-2.13-0.62-3.21-0.87
			c-1.34-0.3-2.67-0.4-3.9,0.32c-0.95,0.55-1.66,1.42-2.25,2.32c-1.55,2.39-2.87,5.05-3.81,7.74c-0.04,0.1-0.07,0.21-0.1,0.31
			c-0.02,0.04-0.03,0.07-0.04,0.11v0.01c-0.13,0.4-0.24,0.81-0.32,1.22c-0.06,0.28-0.11,0.56-0.14,0.84
			c-0.15,1.27-0.03,2.54,0.51,3.78c0.02,0.04,0.03,0.07,0.05,0.11c0.16,0.36,0.35,0.7,0.57,1.02V178c0.83,1.27,2,2.31,3.32,3.03
			c1.42,0.78,3.01,1.16,4.63,1.22h0.01c0.33,0.02,0.66,0.02,0.99,0.01c0.07,0,0.13,0,0.19-0.01c0.28-0.01,0.55-0.03,0.82-0.06
			c0.02,0,0.05,0,0.07-0.01c0.2-0.02,0.41-0.05,0.61-0.08c0.06,0,0.11-0.01,0.17-0.02c0.9-0.15,1.78-0.37,2.65-0.64
			c0.69-0.22,1.44-0.46,2.1-0.82c0.35-0.18,0.68-0.4,0.97-0.67c0.62-0.58,0.97-1.36,1.29-2.13c0.08-0.17,0.15-0.35,0.22-0.52
			c0.53-1.23,1.06-2.47,1.59-3.7c0.53-1.21,1.26-2.46,1.53-3.76C165.68,168.85,165.59,167.84,165.34,166.88z M163.12,171.68
			c-0.4,0.89-0.78,1.79-1.17,2.69c-0.76,1.78-1.28,4.26-3.21,5.09c-3.45,1.49-7.92,2.03-11.15-0.25c-1.28-0.91-2.35-2.22-2.77-3.75
			c-0.55-2.03,0.25-4.07,1.03-5.92c0.8-1.9,1.72-3.77,2.82-5.52c0.5-0.8,1.06-1.63,1.88-2.13c0.94-0.58,1.98-0.39,3-0.17
			c2.37,0.56,4.73,1.33,6.93,2.37c0.47,0.22,0.92,0.49,1.4,0.69c0.45,0.19,0.85,0.25,1.18,0.64c0.69,0.81,1.02,2.24,1.01,3.28
			C164.06,169.79,163.55,170.71,163.12,171.68z"/>
		<path class="st27" d="M167.48,161.17c-0.03,0.35-0.1,0.69-0.18,1.03c-0.38,1.68-1.04,3.22-1.96,4.68
			c-0.03,0.06-0.07,0.12-0.11,0.18c-0.54,0.83-1.76-0.1-1.22-0.92c0.23-0.36,0.45-0.73,0.63-1.11c0.41-0.76,0.73-1.56,0.98-2.4
			c0.29-1,0.75-2.45,0.1-3.4c-0.51-0.75-1.48-1.08-2.35-1.09c-1.03-0.02-1.85,0.48-2.6,1.12c-0.82,0.71-1.52,1.54-2.24,2.35
			c-0.16,0.18-0.32,0.37-0.49,0.55c-0.28,0.3-0.72,0.41-1.07,0.15c-0.31-0.23-0.43-0.77-0.15-1.07c0.05-0.05,0.1-0.11,0.14-0.16
			c1.71-1.9,3.49-4.43,6.28-4.46c0.09,0,0.17,0,0.26,0.01c1.19,0.03,2.36,0.47,3.18,1.35c0.06,0.07,0.12,0.14,0.17,0.21
			c0.36,0.45,0.55,0.95,0.64,1.48C167.56,160.16,167.55,160.67,167.48,161.17z"/>
		<path class="st27" d="M143.84,171.46c-0.01,0.07-0.01,0.14-0.02,0.21c-0.03,0.21-0.14,0.41-0.32,0.51
			c-0.04,0.01-0.07,0.03-0.11,0.04c-0.02,0.01-0.04,0.01-0.06,0.02c-0.37,0.11-0.74,0.24-1.09,0.4c-0.09,0.04-0.18,0.08-0.27,0.12
			c-0.09,0.05-0.18,0.09-0.26,0.14c-0.02,0.01-0.08,0.04-0.12,0.07c-0.02,0.02-0.04,0.02-0.04,0.03c-0.02,0-0.02,0.01-0.02,0.01
			c-0.14,0.08-0.27,0.16-0.4,0.25c-0.59,0.38-1.19,0.7-1.83,0.95c-0.23,0.09-0.46,0.17-0.69,0.24s-0.48,0.06-0.68-0.05
			c-0.14-0.07-0.26-0.18-0.32-0.35c-0.14-0.35-0.01-0.88,0.39-1.01c0.49-0.15,0.97-0.32,1.42-0.54c0.09-0.05,0.18-0.09,0.26-0.14
			c0.04-0.02,0.15-0.08,0.17-0.1c0.14-0.08,0.28-0.17,0.41-0.26c0.7-0.45,1.4-0.81,2.18-1.07c0.11-0.05,0.22-0.08,0.34-0.12
			c0.21-0.06,0.45-0.06,0.65,0.04c0.08,0.03,0.16,0.08,0.22,0.16c0.06,0.04,0.1,0.11,0.13,0.2
			C143.81,171.28,143.83,171.37,143.84,171.46z"/>
		<path class="st27" d="M154.07,182.71c-0.92,0.82-1.88,1.6-2.91,2.28c-1.07,0.7-2.19,1.29-3.33,1.86c-0.37,0.19-0.85-0.03-1.01-0.4
			c-0.17-0.4,0.03-0.82,0.4-1.01c1.07-0.54,2.1-1.08,3.06-1.71c1.01-0.66,1.94-1.43,2.84-2.23c0.31-0.28,0.83-0.18,1.08,0.13
			C154.47,181.98,154.38,182.44,154.07,182.71L154.07,182.71z"/>
		<path class="st27" d="M155.13,182.08c-0.06,0.1-0.12,0.21-0.18,0.31c-0.28,0.5-0.58,0.99-0.9,1.46c-0.03,0.04-0.05,0.08-0.08,0.12
			c-0.36,0.53-0.74,1.04-1.15,1.54c-0.14,0.17-0.3,0.35-0.46,0.54c-0.68,0.8-1.47,1.68-2.38,2.1c-2.26,1.04-3.9-1.3-4.77-3.04
			c-1.06-2.1-1.79-4.39-2.31-6.69c-0.43-1.88-0.71-3.84-0.66-5.78c0-0.46,0.03-0.93,0.08-1.38c0.01-0.13,0.05-0.24,0.12-0.33
			c0.1-0.16,0.26-0.26,0.44-0.29c0.18-0.04,0.37-0.02,0.54,0.07c0.11,0.04,0.2,0.11,0.27,0.19c0.11,0.14,0.18,0.33,0.15,0.56
			c-0.01,0.07-0.01,0.14-0.02,0.21c-0.19,2.08,0.02,4.23,0.5,6.32V178c0.39,1.76,0.97,3.46,1.63,5.06c0.23,0.54,0.63,1.6,1.18,2.46
			c0.09,0.14,0.19,0.28,0.29,0.41c0.23,0.31,0.5,0.58,0.78,0.74c0.04,0.02,0.07,0.04,0.11,0.06c0.33,0.16,0.68,0.19,1.06,0.01
			c0.24-0.11,0.48-0.27,0.7-0.45c0.49-0.42,0.94-0.98,1.33-1.46c0.02-0.03,0.04-0.05,0.05-0.07h0.01c0.07-0.1,0.15-0.19,0.22-0.28
			c0.58-0.7,1.11-1.45,1.59-2.22c0.06-0.11,0.13-0.22,0.19-0.33c0.09-0.14,0.17-0.29,0.25-0.43c0.02-0.04,0.05-0.08,0.09-0.12
			c0.1-0.13,0.23-0.22,0.37-0.26c0,0,0,0,0.01,0C154.76,180.94,155.5,181.43,155.13,182.08z"/>
		<path class="st27" d="M154.97,181.75c0,0.11,0,0.23-0.01,0.35c0.01,0.1,0,0.19-0.01,0.29c-0.01,0.39-0.06,0.78-0.13,1.18
			c-0.13,0.76-0.36,1.52-0.66,2.26c-1.23,3.05-3.77,5.79-6.64,6.92c-1.1,0.43-2.4,0.69-3.58,0.47c-1.3-0.25-2.07-1.12-2.74-2.21
			c-1.39-2.25-2.38-4.72-2.98-7.31c-0.7-3-0.8-6.13-0.33-9.17c0.01-0.05,0.02-0.09,0.04-0.13c0.19-0.64,1.05-0.65,1.37-0.19
			c0.09,0.14,0.13,0.31,0.1,0.52c-0.42,2.82-0.34,5.68,0.27,8.47c0.31,1.4,0.75,2.77,1.32,4.1c0.55,1.28,1.22,2.91,2.23,3.9
			c1.05,1.02,2.91,0.51,4.09-0.03c1.17-0.54,2.19-1.38,3.05-2.34c0.74-0.83,1.45-1.77,2-2.78c0.33-0.6,0.6-1.23,0.78-1.88
			c0.04-0.11,0.07-0.23,0.1-0.35c0.05-0.16,0.08-0.31,0.1-0.47c0.08-0.36,0.11-0.73,0.12-1.1v-0.32c0-0.24,0.09-0.43,0.24-0.57
			c0.13-0.12,0.29-0.21,0.47-0.24c0,0,0,0,0.01,0C154.56,181.06,154.96,181.25,154.97,181.75z"/>
	</g>
	<path class="st69" d="M179.16,118.95c0,0-2.43,8.58-6.22,10.68c-3.78,2.1-15.83,2.75-15.83,2.75"/>
</g>
</svg>
