<?xml version="1.0" encoding="utf-8"?>
<!-- Generator: Adobe Illustrator 23.0.2, SVG Export Plug-In . SVG Version: 6.00 Build 0)  -->
<svg version="1.1" xmlns="http://www.w3.org/2000/svg" xmlns:xlink="http://www.w3.org/1999/xlink" x="0px" y="0px"
	 viewBox="0 0 508.08 114.15" style="enable-background:new 0 0 508.08 114.15;" xml:space="preserve">
<style type="text/css">
	.st0{fill-rule:evenodd;clip-rule:evenodd;fill:#F16465;}
	.st1{fill:#C2CADC;}
	.st2{fill-rule:evenodd;clip-rule:evenodd;fill:#FFFFFF;}
	.st3{fill:#FFFFFF;}
	.st4{fill:none;stroke:#FFFFFF;stroke-width:4;stroke-miterlimit:10;}
	.st5{fill:#FFD55E;}
	.st6{fill-rule:evenodd;clip-rule:evenodd;fill:#08A84B;}
	.st7{fill:#A91E22;}
	.st8{fill:#F16465;}
	.st9{fill:#3E1211;}
	.st10{fill:#F99C1C;}
	.st11{fill:#BE1E2D;}
	.st12{fill:#FFF6F0;}
	.st13{fill:#FABCAE;}
	.st14{filter:url(#Adobe_OpacityMaskFilter);}
	.st15{filter:url(#Adobe_OpacityMaskFilter_1_);}
	.st16{mask:url(#SVGID_1_);fill:url(#SVGID_2_);}
	.st17{fill:url(#SVGID_3_);}
	.st18{filter:url(#Adobe_OpacityMaskFilter_2_);}
	.st19{filter:url(#Adobe_OpacityMaskFilter_3_);}
	.st20{mask:url(#SVGID_4_);fill:url(#SVGID_5_);}
	.st21{fill:url(#SVGID_6_);}
	.st22{fill:#EB414C;}
	.st23{fill:#F2F4FA;}
	.st24{fill:#0E0D09;}
	.st25{fill:#FDE410;}
	.st26{fill:#FBAD1B;}
	.st27{fill:#BBBDBF;}
	.st28{fill:#E5E6E7;}
	.st29{fill:#851B1A;}
	.st30{fill:none;stroke:#FFF6F0;stroke-miterlimit:10;}
	.st31{fill:none;stroke:#851B1A;stroke-width:3;stroke-linecap:round;stroke-linejoin:round;stroke-miterlimit:10;}
	.st32{fill:#8A8083;stroke:#851B1A;stroke-width:3;stroke-linecap:round;stroke-linejoin:round;stroke-miterlimit:10;}
	.st33{fill:#AC97AD;stroke:#851B1A;stroke-width:3;stroke-linecap:round;stroke-linejoin:round;stroke-miterlimit:10;}
	.st34{fill:#EBEAEA;}
	.st35{fill:#F3D038;}
	.st36{fill:#BC2D26;}
	.st37{fill:#E83628;}
	.st38{fill:#EE543C;}
	.st39{fill:#C92F27;}
	.st40{fill:#FDBD60;}
	.st41{fill:#010101;}
	.st42{fill:#91C83E;}
	.st43{fill:#BDD631;}
	.st44{fill:#7C3B1A;}
	.st45{fill:#86201A;}
	.st46{fill:#491E12;}
	.st47{fill:#581F0E;}
	.st48{fill:#B22F25;}
	.st49{opacity:0.5;}
	.st50{fill:#813829;}
	.st51{fill:#1F4922;}
	.st52{fill:#4C8C40;}
	.st53{fill:#69B445;}
	.st54{fill:#ADD691;}
	.st55{fill:#E8CA5C;}
	.st56{fill:#9E6B28;}
	.st57{fill:#955B25;}
	.st58{fill:#C09333;}
	.st59{fill:#F9EC8C;}
	.st60{fill:#C3903A;}
	.st61{fill:#A9772B;}
	.st62{filter:url(#Adobe_OpacityMaskFilter_4_);}
	.st63{filter:url(#Adobe_OpacityMaskFilter_5_);}
	.st64{mask:url(#SVGID_7_);fill:url(#SVGID_8_);}
	.st65{fill:url(#SVGID_9_);}
	.st66{filter:url(#Adobe_OpacityMaskFilter_6_);}
	.st67{filter:url(#Adobe_OpacityMaskFilter_7_);}
	.st68{mask:url(#SVGID_10_);fill:url(#SVGID_11_);}
	.st69{fill:url(#SVGID_12_);}
	.st70{fill:#C2CADC;stroke:#851B1A;stroke-linecap:round;stroke-linejoin:round;stroke-miterlimit:10;}
	.st71{fill:none;stroke:#851B1A;stroke-miterlimit:10;}
</style>
<g id="Layer_2">
</g>
<g id="Layer_1">
	<g>
		<path class="st9" d="M58.81,95.64c-3.49,0-6.71-0.36-9.56-1.07c-3.01-0.75-5.68-1.82-7.94-3.17c-2.7-1.61-4.85-3.61-6.4-5.93
			c-1.81-2.71-2.77-5.8-2.77-8.92c0-1.62,0.29-3.27,0.87-4.9c0.59-1.65,1.45-3.17,2.56-4.53c1.21-1.47,2.69-2.69,4.41-3.62
			c1.19-0.64,2.45-1.11,3.78-1.38c-2.14-2.08-3.98-4.3-5.45-6.58c-2.15-3.32-3.24-6.94-3.24-10.73c0-3.65,0.92-7.05,2.72-10.1
			c1.62-2.73,3.82-5.07,6.52-6.93c2.42-1.66,5.19-2.94,8.26-3.81c2.89-0.81,5.97-1.23,9.17-1.23c3.12,0,6,0.27,8.56,0.8
			c2.81,0.58,5.23,1.4,7.38,2.49c2.71,1.38,4.9,3.18,6.5,5.34c1.97,2.65,3,5.72,3,8.9c0,1.63-0.29,3.27-0.86,4.86
			c-0.64,1.8-1.64,3.44-2.96,4.86c-0.78,0.84-1.67,1.59-2.64,2.23c1.41,1.29,2.7,2.65,3.86,4.04c1.63,1.96,2.97,4.06,3.99,6.26
			c1.27,2.74,1.92,5.66,1.92,8.68c0,4.22-1.11,8.09-3.29,11.51c-1.95,3.05-4.57,5.61-7.79,7.62c-2.86,1.78-6.15,3.14-9.8,4.04
			C66.21,95.22,62.58,95.64,58.81,95.64z"/>
		<path class="st9" d="M113.14,88.66c-2.99,0-5.78-0.63-8.31-1.88c-0.15,0.06-0.31,0.12-0.46,0.18c-1.56,0.6-3.17,1.04-4.79,1.32
			c-1.52,0.25-3.05,0.38-4.57,0.38c-2.09,0-4.16-0.26-6.16-0.77c-2.36-0.6-4.53-1.6-6.46-2.95c-2.21-1.55-3.99-3.58-5.3-6.01
			c-1.35-2.52-2.04-5.41-2.04-8.59c0-4.12,1.26-7.86,3.64-10.81c0.13-0.16,0.26-0.32,0.4-0.48c-0.68-1.67-1.03-3.49-1.03-5.4
			c0-3.84,1.4-7.33,4.04-10.09c1.79-1.87,4.04-3.38,6.66-4.48c2.08-0.87,4.4-1.51,6.88-1.91c2.22-0.35,4.48-0.54,6.71-0.54
			c2.65,0,5.24,0.23,7.7,0.68c2.84,0.52,5.46,1.4,7.78,2.61c2.78,1.45,5.08,3.39,6.84,5.76c2.13,2.87,3.25,6.38,3.25,10.15v9.73
			l10.47,6.76l-8.13,8.74c-0.58,0.63-1.24,1.27-1.99,1.96c-1.11,1.02-2.41,1.95-3.86,2.77c-1.46,0.82-3.11,1.5-4.91,2.02
			C117.55,88.37,115.41,88.66,113.14,88.66z"/>
		<path class="st9" d="M177.93,88.66c-2.04,0-3.94-0.24-5.64-0.7c-1.89-0.51-3.61-1.28-5.1-2.27c-0.07-0.05-0.14-0.09-0.2-0.14
			c-1.4,1.04-3.04,1.82-5,2.38c-1.73,0.49-3.71,0.73-6.06,0.73c-2.44,0-4.5-0.28-6.3-0.84c-1.6-0.5-2.98-1.15-4.19-1.98
			c-1.29,0.89-2.78,1.57-4.53,2.07c-1.73,0.5-3.72,0.74-6.08,0.74c-2.44,0-4.5-0.28-6.3-0.84c-2.05-0.64-3.74-1.53-5.17-2.69
			c-1.99-1.63-3.4-3.72-4.07-6.04c-0.37-1.27-0.55-2.47-0.55-3.65V59.02L107.03,48.3l11.02-7c0.89-0.56,1.87-1.12,2.93-1.65
			c1.19-0.59,2.47-1.11,3.8-1.55c1.29-0.42,2.68-0.77,4.12-1.03c1.58-0.29,3.25-0.44,4.95-0.44c3.2,0,5.87,0.51,8.16,1.57
			c0.51,0.24,1,0.49,1.47,0.76c0.65-0.29,1.31-0.56,1.98-0.81c1.21-0.45,2.47-0.81,3.76-1.07c1.45-0.3,2.92-0.45,4.38-0.45
			c2.78,0,5.33,0.45,7.57,1.33c0.97,0.38,1.88,0.82,2.73,1.31c0.88-0.42,1.79-0.8,2.72-1.14c1.2-0.44,2.43-0.79,3.67-1.05
			c1.44-0.3,2.92-0.45,4.39-0.45c2.81,0,5.38,0.46,7.65,1.38c2.45,0.99,4.53,2.39,6.19,4.18c1.62,1.75,2.83,3.76,3.59,5.99
			c0.66,1.94,0.99,3.92,0.99,5.9v11.35l9.98,6.71l-7.41,8.54c-0.71,0.81-1.53,1.62-2.53,2.47c-1.1,0.93-2.36,1.8-3.74,2.58
			c-1.5,0.84-3.19,1.54-5.02,2.06C182.4,88.37,180.23,88.66,177.93,88.66z"/>
		<path class="st9" d="M209.78,88.66c-4.51,0-8.35-0.6-11.74-1.83c-3.65-1.33-6.72-3.24-9.13-5.68c-2.47-2.5-4.27-5.47-5.34-8.81
			c-0.91-2.82-1.37-5.82-1.37-8.9V43.3l-11.68-10.78l10.99-6.97c0.89-0.57,1.88-1.12,2.92-1.64c1.19-0.59,2.46-1.11,3.79-1.55
			c1.29-0.42,2.68-0.77,4.11-1.03c1.59-0.29,3.26-0.44,4.95-0.44c2.77,0,5.14,0.39,7.23,1.18c2.37,0.9,4.34,2.18,5.87,3.8
			c1.64,1.74,2.77,3.75,3.36,5.97c0.38,1.44,0.57,2.85,0.57,4.22v0.58c2.7,0.04,5.4,0.53,8.04,1.47c3.01,1.07,5.73,2.75,8.09,4.99
			c2.34,2.23,4.23,5.02,5.61,8.3c1.36,3.23,2.05,6.97,2.05,11.11c0,3.46-0.63,6.81-1.87,9.94c-1.3,3.3-3.26,6.22-5.83,8.68
			c-2.52,2.42-5.6,4.32-9.18,5.64C217.84,88.02,213.98,88.66,209.78,88.66z"/>
		<path class="st9" d="M251.26,88.6c-3.24,0-6.44-0.46-9.52-1.36c-3.33-0.98-6.36-2.49-9.01-4.49c-2.84-2.15-5.15-4.86-6.84-8.04
			c-1.79-3.35-2.69-7.19-2.69-11.38c0-3.1,0.54-6.04,1.6-8.74c1-2.54,2.39-4.88,4.13-6.94c1.63-1.94,3.55-3.66,5.7-5.1
			c1.95-1.31,4.04-2.43,6.2-3.3c2.11-0.85,4.29-1.5,6.5-1.94c2.23-0.44,4.42-0.66,6.54-0.66c2.71,0,5.09,0.24,7.28,0.73
			c2.45,0.55,4.53,1.32,6.38,2.37c2.34,1.33,4.21,3.04,5.56,5.08c1.55,2.35,2.37,5.04,2.37,7.77c0,3.47-1.34,6.81-3.77,9.4
			c-0.1,0.1-0.2,0.21-0.29,0.31l11.59,8.57l-7.93,8.21c-0.93,0.96-2.02,1.93-3.33,2.97c-1.5,1.19-3.26,2.28-5.24,3.25
			c-1.98,0.97-4.25,1.77-6.74,2.38C257.19,88.28,254.34,88.6,251.26,88.6z"/>
		<path class="st9" d="M278.37,88.66c-2.46,0-4.53-0.28-6.33-0.86c-2.18-0.7-3.95-1.68-5.41-3c-1.85-1.67-3.13-3.76-3.71-6.05
			c-0.29-1.16-0.44-2.25-0.44-3.32V43.3L250.8,32.52l10.98-6.97c0.87-0.55,1.82-1.09,2.84-1.61c1.21-0.61,2.52-1.15,3.9-1.59
			c1.29-0.41,2.67-0.76,4.09-1.02c1.59-0.29,3.25-0.44,4.95-0.44c2.94,0,5.39,0.38,7.49,1.16c2.53,0.95,4.6,2.33,6.15,4.12
			c1.66,1.92,2.74,4.2,3.13,6.61c0.18,1.13,0.27,2.14,0.27,3.12V75.5c0,1.31-0.22,2.67-0.67,4.03c-0.77,2.35-2.28,4.41-4.37,5.97
			c-1.44,1.07-3.13,1.87-5.17,2.45C282.67,88.42,280.7,88.66,278.37,88.66z"/>
		<path class="st9" d="M309.7,88.66c-4.03,0-7.69-0.98-10.87-2.9c-2.76-1.67-5.13-3.87-7.04-6.52c-1.62-2.26-2.97-4.79-4.01-7.54
			c-0.89-2.34-1.62-4.73-2.18-7.1c-0.33-1.38-0.61-2.73-0.86-4.05l-12.93-12.43l10.76-6.83c0.89-0.57,1.88-1.12,2.92-1.64
			c1.19-0.59,2.47-1.11,3.79-1.55c1.29-0.42,2.68-0.77,4.12-1.03c1.58-0.29,3.25-0.43,4.95-0.43c2.96,0,5.5,0.46,7.74,1.42
			c1.96,0.83,3.65,1.93,5.05,3.27c0.71-0.84,1.55-1.57,2.5-2.19c1.05-0.67,2.2-1.21,3.43-1.61c1.01-0.33,2.07-0.57,3.13-0.71
			c0.91-0.12,1.7-0.18,2.44-0.18c2.28,0,4.22,0.39,5.93,1.2c2.51,1.19,4.46,3.21,5.66,5.85l0.09,0.19l0.08,0.19
			c0.6,1.49,0.99,3.17,1.17,5.11c0.12,1.29,0.18,2.65,0.18,4.04c0,2.04-0.18,4.26-0.52,6.6c-0.34,2.33-0.88,4.69-1.58,7.03
			c-0.72,2.4-1.65,4.76-2.76,7.01c-1.25,2.54-2.78,4.84-4.55,6.86c-1.98,2.25-4.27,4.1-6.83,5.48
			C316.55,87.84,313.24,88.66,309.7,88.66z M319.19,63.87C319.19,63.87,319.19,63.87,319.19,63.87z"/>
		<path class="st9" d="M347.9,88.6c-3.24,0-6.44-0.46-9.51-1.36c-3.33-0.98-6.36-2.49-9.01-4.49c-2.84-2.15-5.15-4.86-6.84-8.04
			c-1.79-3.35-2.69-7.18-2.69-11.38c0-3.09,0.54-6.03,1.6-8.73c1.01-2.55,2.39-4.89,4.13-6.95c1.63-1.94,3.55-3.66,5.7-5.1
			c1.95-1.32,4.04-2.43,6.2-3.3c2.11-0.85,4.29-1.5,6.5-1.94c2.23-0.44,4.43-0.66,6.54-0.66c2.71,0,5.09,0.24,7.28,0.73
			c2.45,0.55,4.53,1.32,6.38,2.37c2.34,1.33,4.21,3.05,5.56,5.09c1.54,2.34,2.36,5.03,2.36,7.77c0,3.47-1.34,6.81-3.77,9.4
			c-0.1,0.1-0.2,0.21-0.29,0.31l11.58,8.56l-7.92,8.21c-0.93,0.96-2.02,1.93-3.33,2.97c-1.5,1.19-3.26,2.28-5.24,3.24
			c-1.98,0.97-4.25,1.77-6.74,2.38C353.83,88.28,350.98,88.6,347.9,88.6z"/>
		<path class="st9" d="M376.39,88.66c-2.44,0-4.51-0.28-6.3-0.84c-2.05-0.64-3.74-1.53-5.17-2.7c-1.99-1.62-3.4-3.72-4.07-6.05
			c-0.36-1.24-0.54-2.44-0.54-3.63V59.02L348.58,48.3l11.02-7c0.89-0.56,1.87-1.12,2.93-1.64c1.19-0.6,2.47-1.12,3.8-1.55
			c1.29-0.42,2.68-0.77,4.12-1.03c1.58-0.29,3.25-0.44,4.95-0.44c2.09,0,3.95,0.24,5.68,0.74c1.19,0.35,2.3,0.79,3.31,1.33
			c1.14-0.58,2.34-1.05,3.57-1.41c1.53-0.44,3.1-0.66,4.67-0.66c4.59,0,7.67,1.71,9.45,3.15c3.14,2.54,4.86,6.22,4.86,10.38
			c0,1.43-0.16,2.84-0.46,4.2c-0.31,1.34-0.8,2.75-1.52,4.31l-2.68,5.81h-9.83V75.5c0,1.22-0.18,2.44-0.55,3.72
			c-0.68,2.36-2.12,4.47-4.16,6.09c-1.45,1.15-3.17,2-5.25,2.61C380.74,88.41,378.75,88.66,376.39,88.66z"/>
		<path class="st9" d="M411.51,88.66c-2.68,0-5.21-0.31-7.53-0.93c-2.13-0.57-4.09-1.31-5.84-2.19c-1.75-0.88-3.32-1.87-4.66-2.94
			c-1.34-1.06-2.42-2.09-3.3-3.12l-7.93-9.34l10.81-5.94c-0.33-0.46-0.64-0.92-0.94-1.39c-1.64-2.62-2.51-5.59-2.51-8.58
			c0-3.33,0.98-6.48,2.84-9.11c1.54-2.18,3.54-3.97,5.97-5.33c1.97-1.11,4.19-1.93,6.58-2.46c2.14-0.47,4.35-0.7,6.58-0.7
			c2.31,0,4.48,0.17,6.47,0.5c2.36,0.4,4.51,1.05,6.38,1.94c2.5,1.19,4.55,2.83,6.08,4.86c1.88,2.49,2.87,5.48,2.87,8.64
			c0,2.32-0.63,4.53-1.8,6.46c0.3,0.41,0.6,0.82,0.87,1.24c1.82,2.75,2.79,5.92,2.79,9.16c0,3.21-0.77,6.18-2.28,8.84
			c-1.43,2.51-3.43,4.63-5.95,6.29c-2.16,1.42-4.67,2.49-7.48,3.17C417.09,88.35,414.38,88.66,411.51,88.66z"/>
		<path class="st9" d="M448.14,88.6c-3.24,0-6.44-0.46-9.51-1.36c-3.33-0.98-6.36-2.49-9.01-4.49c-2.84-2.15-5.15-4.86-6.84-8.04
			c-1.79-3.35-2.69-7.18-2.69-11.38c0-3.09,0.54-6.03,1.6-8.73c1.01-2.55,2.39-4.89,4.13-6.95c1.63-1.94,3.55-3.66,5.7-5.1
			c1.95-1.32,4.04-2.43,6.2-3.3c2.11-0.85,4.29-1.5,6.5-1.94c2.23-0.44,4.43-0.66,6.54-0.66c2.71,0,5.09,0.24,7.28,0.73
			c2.45,0.55,4.53,1.32,6.38,2.37c2.34,1.33,4.21,3.05,5.56,5.09c1.54,2.34,2.36,5.03,2.36,7.77c0,3.47-1.34,6.81-3.77,9.4
			c-0.1,0.1-0.2,0.21-0.29,0.31l11.58,8.56l-7.92,8.21c-0.93,0.96-2.02,1.93-3.33,2.97c-1.5,1.19-3.26,2.28-5.24,3.24
			c-1.98,0.97-4.25,1.77-6.74,2.38C454.07,88.28,451.21,88.6,448.14,88.6z"/>
	</g>
	<g>
		<g>
			<g>
				<path class="st3" d="M58.81,82.02c-2.92,0-5.56-0.29-7.86-0.86c-2.34-0.59-4.38-1.39-6.05-2.39c-1.8-1.08-3.2-2.36-4.17-3.81
					c-1.06-1.58-1.59-3.27-1.59-5.02c0-0.82,0.16-1.69,0.47-2.57c0.31-0.88,0.78-1.7,1.38-2.43c0.63-0.77,1.41-1.41,2.33-1.91
					c1.02-0.55,2.18-0.83,3.45-0.83c1.35,0,2.53,0.31,3.5,0.91c0.91,0.57,1.65,1.33,2.18,2.27c0.41,0.72,0.74,1.52,0.99,2.4
					c0.18,0.62,0.37,1.25,0.57,1.89c0.17,0.52,0.38,1.05,0.63,1.56c0.15,0.31,0.36,0.58,0.63,0.83c0.25,0.23,0.62,0.43,1.1,0.6
					c0.38,0.13,1.08,0.29,2.29,0.29c0.77,0,1.54-0.11,2.3-0.32c0.62-0.18,1.15-0.46,1.63-0.87c0.47-0.39,0.85-0.92,1.16-1.61
					c0.32-0.7,0.48-1.63,0.48-2.76c0-1.09-0.37-2.16-1.12-3.26c-0.97-1.41-2.21-2.84-3.69-4.23c-1.58-1.48-3.31-2.98-5.15-4.46
					c-1.97-1.58-3.84-3.22-5.54-4.86c-1.8-1.74-3.33-3.58-4.54-5.45c-1.41-2.18-2.12-4.51-2.12-6.93c0-2.38,0.59-4.58,1.74-6.53
					c1.1-1.86,2.61-3.45,4.47-4.74c1.78-1.23,3.86-2.18,6.18-2.83c2.27-0.64,4.72-0.96,7.27-0.96c2.64,0,5.05,0.22,7.15,0.65
					c2.16,0.45,4.05,1.08,5.61,1.88c1.74,0.89,3.11,1.99,4.07,3.28c1.08,1.45,1.62,3.04,1.62,4.72c0,0.83-0.15,1.67-0.45,2.51
					c-0.32,0.9-0.83,1.72-1.5,2.45c-0.66,0.71-1.48,1.29-2.43,1.74c-1,0.47-2.15,0.71-3.4,0.71c-1.79,0-3.22-0.52-4.26-1.55
					c-0.8-0.79-1.39-1.75-1.76-2.87c-0.26-0.79-0.49-1.65-0.67-2.57c-0.1-0.52-0.26-1-0.48-1.42c-0.07-0.13-0.2-0.33-0.53-0.56l0,0
					c0,0-0.33-0.18-1.34-0.18c-0.38,0-0.75,0.06-1.13,0.2c-0.33,0.12-0.63,0.29-0.91,0.53c-0.24,0.21-0.43,0.49-0.6,0.86
					c-0.17,0.38-0.26,0.89-0.26,1.52c0,0.69,0.19,1.37,0.59,2.07c0.53,0.94,1.26,1.89,2.16,2.83c0.99,1.03,2.14,2.08,3.42,3.12
					c1.38,1.12,2.78,2.25,4.2,3.38c1.47,1.17,2.92,2.38,4.33,3.61c1.49,1.3,2.85,2.68,4.03,4.09c1.24,1.49,2.26,3.08,3.02,4.73
					c0.84,1.81,1.27,3.74,1.27,5.73c0,2.86-0.74,5.46-2.19,7.74c-1.38,2.16-3.27,4-5.6,5.46c-2.23,1.39-4.84,2.46-7.77,3.18
					C65.09,81.66,62.01,82.02,58.81,82.02z"/>
			</g>
			<g>
				<path class="st3" d="M113.14,75.03c-2.19,0-4.2-0.52-5.95-1.55c-0.7-0.41-1.32-0.91-1.86-1.48c-0.05,0.03-0.1,0.07-0.15,0.1
					c-1.08,0.7-2.2,1.27-3.34,1.71c-1.13,0.43-2.28,0.75-3.44,0.95c-1.13,0.19-2.27,0.29-3.4,0.29c-1.51,0-2.99-0.19-4.42-0.55
					c-1.53-0.39-2.93-1.03-4.16-1.9c-1.31-0.92-2.38-2.14-3.17-3.6c-0.8-1.49-1.21-3.27-1.21-5.28c0-2.54,0.7-4.69,2.09-6.41
					c1.21-1.49,2.78-2.75,4.69-3.74c0.08-0.04,0.17-0.09,0.26-0.13c-0.58-0.28-1.11-0.62-1.6-1.04c-1.59-1.34-2.42-3.2-2.42-5.36
					c0-2,0.73-3.82,2.1-5.25c1.12-1.18,2.57-2.14,4.31-2.87c1.57-0.66,3.35-1.15,5.29-1.46c1.86-0.3,3.75-0.45,5.61-0.45
					c2.23,0,4.39,0.19,6.43,0.57c2.16,0.4,4.11,1.05,5.8,1.93c1.83,0.96,3.33,2.21,4.46,3.73c1.24,1.68,1.87,3.69,1.87,5.98v14.96
					c0.33-0.12,0.68-0.18,1.03-0.18c0.56,0,1.13,0.16,1.63,0.48l0.99,0.64c0.75,0.48,1.24,1.27,1.35,2.15
					c0.11,0.88-0.18,1.76-0.78,2.41c-0.45,0.48-0.99,1.01-1.59,1.57c-0.72,0.66-1.58,1.27-2.57,1.83c-0.99,0.56-2.13,1.03-3.41,1.39
					C116.24,74.84,114.75,75.03,113.14,75.03z M102.75,57.32c-0.27,0.05-0.53,0.12-0.79,0.22c-0.44,0.17-0.83,0.42-1.17,0.76
					c-0.34,0.34-0.61,0.77-0.83,1.31c-0.22,0.56-0.34,1.26-0.34,2.09c0,1.1,0.12,1.74,0.22,2.08c0.15,0.52,0.3,0.72,0.33,0.75
					c0.05,0.06,0.08,0.08,0.08,0.08c0.15,0.05,0.33,0.08,0.53,0.08c0.26,0,0.48-0.05,0.7-0.15c0.3-0.13,0.54-0.29,0.75-0.49
					c0.2-0.19,0.34-0.38,0.45-0.6c0.05-0.1,0.08-0.19,0.08-0.24V57.32z M99.38,45.5c0.52,0.78,0.8,1.73,0.8,2.77
					c0,0.49-0.07,0.96-0.2,1.42c0.21-0.06,0.42-0.13,0.63-0.19c0.89-0.27,1.52-0.63,1.82-1.02c0.44-0.58,0.44-0.92,0.44-1.03
					c0-0.66-0.22-0.96-0.57-1.24c-0.6-0.47-1.55-0.71-2.83-0.71C99.44,45.5,99.41,45.5,99.38,45.5z"/>
			</g>
			<g>
				<path class="st3" d="M177.93,75.03c-1.42,0-2.7-0.15-3.81-0.45c-1.16-0.32-2.19-0.77-3.05-1.34c-1-0.67-1.78-1.5-2.3-2.47
					c-0.53-0.97-0.79-2.03-0.79-3.14V47.91c-0.12,0.03-0.25,0.08-0.37,0.14c-0.53,0.24-1.03,0.52-1.47,0.82
					c-0.45,0.31-0.83,0.61-1.12,0.89v19.12c0,0.55-0.09,1.13-0.27,1.77c-0.29,0.98-0.89,1.84-1.79,2.56
					c-0.73,0.58-1.67,1.03-2.88,1.37c-1.1,0.31-2.45,0.46-4.14,0.46c-1.72,0-3.09-0.17-4.2-0.52c-1.2-0.38-2.13-0.86-2.85-1.47
					c-0.87-0.73-1.44-1.58-1.72-2.52c-0.19-0.64-0.28-1.2-0.28-1.71V47.9c-0.12,0.03-0.25,0.08-0.37,0.13
					c-0.53,0.24-1.02,0.52-1.47,0.83c-0.46,0.31-0.85,0.62-1.16,0.91v19.1c0,0.55-0.09,1.13-0.27,1.77
					c-0.28,0.98-0.88,1.84-1.79,2.55c-0.72,0.57-1.66,1.02-2.85,1.37c-1.09,0.31-2.44,0.47-4.13,0.47c-1.72,0-3.09-0.17-4.2-0.52
					c-1.18-0.37-2.11-0.84-2.84-1.44c-0.9-0.73-1.5-1.6-1.77-2.56c-0.19-0.64-0.28-1.2-0.28-1.71V46.46c-0.47,0.27-0.99,0.4-1.5,0.4
					c-0.73,0-1.46-0.27-2.03-0.79l-0.83-0.76c-0.69-0.63-1.04-1.54-0.96-2.48c0.08-0.93,0.59-1.77,1.38-2.27
					c0.69-0.44,1.46-0.87,2.3-1.29c0.88-0.44,1.83-0.83,2.84-1.16c0.99-0.32,2.07-0.59,3.2-0.8c1.17-0.21,2.42-0.32,3.7-0.32
					c2.17,0,3.88,0.3,5.24,0.93c1.41,0.65,2.51,1.49,3.26,2.51c0.08,0.11,0.16,0.22,0.23,0.34c0.25-0.16,0.5-0.31,0.75-0.46
					c0.6-0.38,1.34-0.79,2.13-1.18c0.79-0.39,1.61-0.74,2.44-1.05c0.87-0.32,1.79-0.59,2.73-0.78c0.98-0.2,1.99-0.3,2.97-0.3
					c1.9,0,3.58,0.28,5.01,0.85c1.41,0.56,2.6,1.27,3.52,2.1c0.41,0.37,0.77,0.75,1.09,1.15c0.4-0.27,0.81-0.53,1.22-0.78
					c0.62-0.39,1.34-0.79,2.11-1.18c0.79-0.4,1.62-0.75,2.47-1.07c0.88-0.32,1.79-0.58,2.71-0.77c0.97-0.2,1.97-0.31,2.96-0.31
					c1.91,0,3.6,0.29,5.03,0.87c1.49,0.6,2.73,1.43,3.68,2.46c0.95,1.02,1.65,2.19,2.08,3.48c0.41,1.2,0.61,2.43,0.61,3.64v16.61
					c0.34-0.13,0.71-0.2,1.07-0.2c0.58,0,1.17,0.17,1.67,0.51l0.95,0.64c0.71,0.48,1.19,1.24,1.3,2.09
					c0.11,0.85-0.15,1.71-0.71,2.36c-0.47,0.55-1.06,1.11-1.78,1.73c-0.75,0.64-1.64,1.25-2.63,1.81c-1.03,0.58-2.21,1.06-3.52,1.44
					C181.1,74.83,179.57,75.03,177.93,75.03z"/>
			</g>
			<g>
				<path class="st3" d="M209.78,75.03c-3.63,0-6.77-0.48-9.34-1.41c-2.66-0.97-4.86-2.32-6.54-4.02c-1.7-1.72-2.93-3.75-3.66-6.03
					c-0.69-2.13-1.03-4.4-1.03-6.75V30.67c-0.48,0.29-1.01,0.43-1.54,0.43c-0.74,0-1.47-0.27-2.04-0.8l-0.79-0.73
					c-0.68-0.63-1.04-1.55-0.95-2.47c0.08-0.93,0.59-1.76,1.38-2.26c0.69-0.44,1.47-0.87,2.3-1.29c0.88-0.44,1.83-0.83,2.84-1.16
					c0.99-0.32,2.07-0.59,3.2-0.8c1.17-0.21,2.42-0.32,3.7-0.32c1.91,0,3.47,0.24,4.76,0.73c1.38,0.52,2.44,1.2,3.25,2.05
					c0.83,0.88,1.4,1.88,1.69,2.96c0.22,0.85,0.34,1.66,0.34,2.42v8.57c0.69-0.23,1.44-0.43,2.25-0.6c1.26-0.26,2.74-0.4,4.39-0.4
					c2.02,0,4.06,0.36,6.06,1.07c2.08,0.74,3.96,1.9,5.61,3.46c1.64,1.56,2.98,3.55,3.98,5.93c0.99,2.37,1.5,5.19,1.5,8.39
					c0,2.58-0.46,5.05-1.38,7.36c-0.93,2.36-2.34,4.45-4.17,6.21c-1.82,1.75-4.1,3.14-6.76,4.13
					C216.19,74.54,213.15,75.03,209.78,75.03z M207.32,56.42c0,4.91,0.62,7.24,1.15,8.33c0.63,1.31,1.18,1.31,1.54,1.31
					c0.46,0,1.02,0,1.61-1.3c0.51-1.13,1.12-3.5,1.12-8.34c0-1.6-0.11-3.12-0.32-4.51c-0.19-1.27-0.5-2.38-0.91-3.29
					c-0.34-0.74-0.74-1.31-1.2-1.69c-0.19-0.16-0.47-0.33-1.04-0.33c-0.53,0-0.77,0.1-0.85,0.14c-0.32,0.17-0.58,0.36-0.75,0.54
					c-0.24,0.26-0.31,0.41-0.32,0.43c-0.01,0.02-0.01,0.03-0.02,0.04V56.42z"/>
			</g>
			<g>
				<path class="st3" d="M251.26,74.97c-2.57,0-5.11-0.36-7.54-1.08c-2.51-0.74-4.79-1.87-6.75-3.36c-2.03-1.54-3.67-3.47-4.89-5.75
					c-1.24-2.33-1.87-5.06-1.87-8.09c0-2.21,0.38-4.29,1.12-6.17c0.72-1.83,1.72-3.52,2.97-5c1.22-1.44,2.65-2.72,4.25-3.81
					c1.55-1.04,3.2-1.92,4.92-2.62c1.7-0.69,3.46-1.21,5.23-1.56c1.78-0.35,3.52-0.53,5.18-0.53c2.16,0,4.09,0.19,5.75,0.56
					c1.73,0.39,3.23,0.94,4.44,1.63c1.37,0.78,2.44,1.74,3.17,2.85c0.8,1.22,1.21,2.53,1.21,3.92c0,1.71-0.65,3.31-1.88,4.62
					c-0.96,1.03-2.22,1.92-3.74,2.65l-13.46,6.11c0.16,0.36,0.35,0.73,0.58,1.1c0.35,0.57,0.8,1.13,1.33,1.66
					c0.52,0.52,1.14,1,1.84,1.42c0.68,0.41,1.46,0.75,2.32,1c0.83,0.24,1.77,0.37,2.79,0.37c0.72,0,1.38-0.06,1.96-0.18
					c0.6-0.12,1.16-0.29,1.67-0.5c0.55-0.23,1.09-0.5,1.59-0.8c0.58-0.35,1.17-0.72,1.75-1.11c0.51-0.34,1.09-0.51,1.67-0.51
					c0.63,0,1.25,0.2,1.78,0.59l0.99,0.73c0.69,0.51,1.13,1.3,1.21,2.16c0.07,0.86-0.23,1.71-0.83,2.33
					c-0.7,0.73-1.58,1.51-2.63,2.34c-1.11,0.88-2.45,1.7-3.98,2.45c-1.53,0.75-3.32,1.38-5.31,1.86
					C256.08,74.72,253.78,74.97,251.26,74.97z M251.5,46.11c-0.36,0-0.63,0.06-0.8,0.17c-0.3,0.2-0.55,0.45-0.75,0.77
					c-0.28,0.44-0.51,0.97-0.68,1.57c-0.16,0.58-0.3,1.16-0.4,1.74l3.78-1.67c0-0.07,0-0.15,0-0.24c0-0.19-0.02-0.51-0.14-1
					c-0.07-0.29-0.18-0.57-0.35-0.84c-0.13-0.2-0.27-0.36-0.47-0.49c0,0,0,0,0,0C251.68,46.12,251.61,46.11,251.5,46.11z"/>
			</g>
			<g>
				<path class="st3" d="M278.37,75.03c-1.72,0-3.1-0.17-4.19-0.52c-1.21-0.39-2.15-0.89-2.85-1.53c-0.83-0.75-1.37-1.61-1.61-2.56
					c-0.15-0.6-0.23-1.13-0.23-1.61V30.67c-0.48,0.29-1.01,0.43-1.54,0.43c-0.74,0-1.47-0.27-2.04-0.8l-0.79-0.73
					c-0.68-0.63-1.04-1.55-0.95-2.47c0.08-0.93,0.59-1.76,1.38-2.26c0.68-0.43,1.44-0.86,2.26-1.28c0.88-0.45,1.84-0.84,2.87-1.17
					c1-0.32,2.08-0.59,3.21-0.79c1.17-0.21,2.42-0.32,3.7-0.32c2.09,0,3.74,0.24,5.04,0.72c1.44,0.54,2.52,1.24,3.31,2.15
					c0.82,0.94,1.32,2,1.51,3.13c0.12,0.75,0.18,1.41,0.18,2.01v39.59c0,0.58-0.11,1.2-0.32,1.87c-0.32,0.97-0.95,1.81-1.89,2.51
					c-0.74,0.55-1.68,0.98-2.88,1.32C281.41,74.88,280.05,75.03,278.37,75.03z"/>
			</g>
			<g>
				<path class="st3" d="M309.7,75.03c-2.73,0-5.17-0.64-7.24-1.89c-1.95-1.18-3.62-2.73-4.97-4.62c-1.27-1.76-2.33-3.76-3.15-5.94
					c-0.78-2.06-1.42-4.15-1.91-6.22c-0.47-2.01-0.86-3.95-1.15-5.78c-0.27-1.72-0.51-3.15-0.72-4.3c-0.08,0.04-0.17,0.09-0.28,0.16
					c-0.48,0.29-1.02,0.43-1.55,0.43c-0.76,0-1.51-0.29-2.08-0.84l-0.79-0.76c-0.66-0.64-1-1.55-0.91-2.46
					c0.09-0.92,0.6-1.74,1.38-2.23c0.69-0.44,1.47-0.87,2.3-1.29c0.88-0.44,1.83-0.83,2.84-1.16c0.99-0.32,2.07-0.59,3.2-0.8
					c1.17-0.21,2.41-0.32,3.7-0.32c2,0,3.64,0.28,5.01,0.86c1.37,0.58,2.5,1.35,3.35,2.28c0.85,0.93,1.47,1.96,1.84,3.07
					c0.28,0.83,0.49,1.61,0.62,2.31c0.95,5.98,2,10.47,3.13,13.42c0.77,2.02,1.4,2.64,1.6,2.8c0.15-0.04,0.35-0.17,0.57-0.37
					c0.56-0.5,1.08-1.26,1.56-2.23c0.54-1.12,0.99-2.48,1.33-4.02c0.35-1.56,0.52-3.26,0.52-5.06c0-1.08-0.09-1.97-0.26-2.64
					c-0.19-0.74-0.4-1.35-0.61-1.82c-0.25-0.54-0.48-0.99-0.67-1.34c-0.5-0.87-0.75-1.74-0.75-2.59c0-1.33,0.68-2.53,1.85-3.28
					c0.54-0.34,1.15-0.63,1.82-0.84c0.61-0.2,1.24-0.34,1.88-0.43c0.6-0.08,1.09-0.12,1.52-0.12c1.24,0,2.18,0.17,2.94,0.53
					c0.69,0.33,1.64,1.01,2.28,2.41c0.02,0.04,0.03,0.08,0.05,0.12c0.35,0.86,0.58,1.9,0.7,3.16c0.1,1.06,0.15,2.19,0.15,3.37
					c0,1.7-0.15,3.57-0.45,5.57c-0.3,2-0.75,4.03-1.36,6.04c-0.61,2.03-1.4,4.03-2.34,5.93c-0.98,1.99-2.17,3.79-3.54,5.34
					c-1.43,1.63-3.07,2.96-4.9,3.94C314.25,74.5,312.06,75.03,309.7,75.03z"/>
			</g>
			<g>
				<path class="st3" d="M347.9,74.97c-2.57,0-5.1-0.36-7.54-1.08c-2.51-0.74-4.79-1.87-6.75-3.36c-2.03-1.53-3.67-3.47-4.89-5.75
					c-1.24-2.33-1.87-5.06-1.87-8.09c0-2.21,0.38-4.29,1.12-6.17c0.72-1.84,1.72-3.52,2.97-5c1.22-1.44,2.65-2.72,4.25-3.81
					c1.55-1.04,3.2-1.92,4.92-2.62c1.7-0.69,3.45-1.21,5.23-1.56c1.78-0.35,3.52-0.53,5.18-0.53c2.16,0,4.09,0.19,5.75,0.56
					c1.73,0.39,3.23,0.94,4.44,1.63c1.37,0.78,2.44,1.74,3.18,2.86c0.8,1.21,1.21,2.53,1.21,3.91c0,1.71-0.65,3.31-1.88,4.62
					c-0.96,1.03-2.22,1.92-3.74,2.65l-13.46,6.11c0.16,0.36,0.35,0.73,0.58,1.1c0.35,0.57,0.8,1.12,1.33,1.65
					c0.52,0.52,1.14,1,1.83,1.42c0.69,0.41,1.46,0.75,2.32,1c0.83,0.24,1.76,0.37,2.79,0.37c0.72,0,1.38-0.06,1.96-0.18
					c0.6-0.12,1.16-0.29,1.67-0.5c0.55-0.23,1.09-0.5,1.59-0.8c0.58-0.35,1.17-0.72,1.75-1.11c0.51-0.34,1.09-0.51,1.67-0.51
					c0.63,0,1.25,0.2,1.78,0.59l0.99,0.73c0.69,0.51,1.13,1.3,1.21,2.16s-0.23,1.71-0.83,2.33c-0.71,0.73-1.57,1.5-2.63,2.34
					c-1.11,0.88-2.45,1.7-3.98,2.45c-1.53,0.75-3.32,1.38-5.31,1.86C352.72,74.72,350.42,74.97,347.9,74.97z M348.14,46.11
					c-0.36,0-0.62,0.06-0.8,0.17c-0.3,0.2-0.55,0.45-0.76,0.77c-0.28,0.44-0.5,0.97-0.68,1.57c-0.16,0.57-0.3,1.16-0.4,1.74
					l3.78-1.67c0-0.07,0-0.15,0-0.24c0-0.19-0.02-0.51-0.14-1c-0.07-0.29-0.18-0.57-0.35-0.84c-0.13-0.2-0.27-0.36-0.47-0.49
					c0,0,0,0,0,0C348.32,46.12,348.25,46.11,348.14,46.11z"/>
			</g>
			<g>
				<path class="st3" d="M376.39,75.03c-1.72,0-3.09-0.17-4.2-0.52c-1.18-0.37-2.11-0.84-2.84-1.44c-0.9-0.73-1.5-1.6-1.77-2.56
					c-0.18-0.63-0.27-1.19-0.27-1.71V46.46c-0.47,0.27-0.99,0.4-1.5,0.4c-0.73,0-1.46-0.27-2.03-0.79l-0.83-0.76
					c-0.69-0.63-1.05-1.54-0.96-2.48c0.08-0.93,0.59-1.77,1.38-2.27c0.69-0.44,1.46-0.87,2.3-1.29c0.88-0.44,1.84-0.83,2.84-1.16
					c0.99-0.32,2.07-0.59,3.2-0.8c1.17-0.21,2.42-0.32,3.7-0.32c1.43,0,2.65,0.15,3.74,0.47c1.14,0.33,2.12,0.79,2.91,1.37
					c0.76,0.55,1.38,1.2,1.86,1.91c0.48-0.4,1-0.79,1.55-1.18c0.67-0.46,1.36-0.88,2.06-1.24c0.76-0.39,1.56-0.71,2.37-0.94
					c0.9-0.26,1.82-0.39,2.73-0.39c2.04,0,3.74,0.54,5.05,1.59c1.48,1.2,2.26,2.9,2.26,4.93c0,0.91-0.1,1.8-0.29,2.65
					c-0.19,0.85-0.54,1.81-1.05,2.92c-0.49,1.06-1.55,1.74-2.72,1.74h-1.11c-1.32,0-2.48-0.86-2.87-2.11
					c-0.09-0.03-0.33-0.07-0.77-0.07c-0.53,0-1.04,0.07-1.56,0.23c-0.65,0.19-1.29,0.43-1.91,0.72c-0.65,0.3-1.26,0.62-1.83,0.97
					c-0.13,0.08-0.26,0.16-0.39,0.24v18.07c0,0.55-0.09,1.13-0.28,1.78c-0.28,0.97-0.88,1.83-1.79,2.55
					c-0.72,0.57-1.66,1.02-2.85,1.37C379.43,74.88,378.08,75.03,376.39,75.03z M391.94,48.75
					C391.94,48.75,391.94,48.75,391.94,48.75L391.94,48.75z"/>
			</g>
			<g>
				<path class="st3" d="M411.51,75.03c-2.07,0-3.99-0.23-5.71-0.69c-1.67-0.45-3.18-1.01-4.5-1.68c-1.33-0.67-2.49-1.4-3.46-2.17
					c-0.98-0.78-1.74-1.49-2.32-2.17c-0.58-0.69-0.83-1.6-0.66-2.49c0.16-0.89,0.72-1.65,1.51-2.09l1.38-0.76
					c0.45-0.25,0.95-0.37,1.44-0.37c0.72,0,1.43,0.26,1.99,0.76c0.17,0.15,0.47,0.4,0.98,0.74c0.4,0.27,0.86,0.53,1.36,0.76
					c0.48,0.23,1,0.41,1.56,0.56c0.49,0.13,0.99,0.19,1.5,0.19c1.35,0,2.42-0.22,3.16-0.65c0.3-0.18,0.32-0.23,0.32-0.51
					c0,0,0,0,0,0c-0.01,0-0.06-0.18-0.33-0.51c-0.54-0.68-1.26-1.4-2.12-2.15c-0.98-0.85-2.04-1.73-3.15-2.63
					c-1.23-0.99-2.4-2.03-3.47-3.09c-1.16-1.15-2.14-2.36-2.92-3.61c-0.96-1.53-1.44-3.17-1.44-4.87c0-1.9,0.52-3.61,1.56-5.07
					c0.93-1.32,2.17-2.41,3.67-3.26c1.37-0.77,2.94-1.35,4.66-1.73c1.64-0.36,3.35-0.54,5.09-0.54c1.92,0,3.71,0.14,5.32,0.41
					c1.72,0.29,3.24,0.75,4.53,1.36c1.47,0.7,2.66,1.63,3.51,2.77c0.97,1.28,1.46,2.77,1.46,4.42c0,1.65-0.7,3.13-2.03,4.28
					c-0.94,0.81-2.1,1.31-3.47,1.5c0.85,0.65,1.66,1.31,2.43,2c1.31,1.17,2.42,2.44,3.31,3.78c1.08,1.63,1.62,3.41,1.62,5.3
					c0,1.98-0.46,3.79-1.36,5.37c-0.88,1.54-2.13,2.86-3.72,3.91c-1.48,0.98-3.26,1.72-5.29,2.22
					C415.97,74.79,413.82,75.03,411.51,75.03z M413.26,45.82c0.01-0.06,0.03-0.13,0.04-0.19c-0.05,0.02-0.09,0.04-0.14,0.06
					C413.19,45.73,413.22,45.77,413.26,45.82z"/>
			</g>
			<g>
				<path class="st3" d="M448.14,74.97c-2.57,0-5.1-0.36-7.54-1.08c-2.51-0.74-4.79-1.87-6.75-3.36c-2.03-1.53-3.67-3.47-4.89-5.75
					c-1.24-2.33-1.87-5.06-1.87-8.09c0-2.21,0.38-4.29,1.12-6.17c0.72-1.84,1.72-3.52,2.97-5c1.22-1.44,2.65-2.72,4.25-3.81
					c1.55-1.04,3.2-1.92,4.92-2.62c1.7-0.69,3.45-1.21,5.23-1.56c1.78-0.35,3.52-0.53,5.18-0.53c2.16,0,4.09,0.19,5.75,0.56
					c1.73,0.39,3.23,0.94,4.44,1.63c1.37,0.78,2.44,1.74,3.18,2.86c0.8,1.21,1.21,2.53,1.21,3.91c0,1.71-0.65,3.31-1.88,4.62
					c-0.96,1.03-2.22,1.92-3.74,2.65l-13.46,6.11c0.16,0.36,0.35,0.73,0.58,1.1c0.35,0.57,0.8,1.12,1.33,1.65
					c0.52,0.52,1.14,1,1.83,1.42c0.69,0.41,1.46,0.75,2.32,1c0.83,0.24,1.76,0.37,2.79,0.37c0.72,0,1.38-0.06,1.96-0.18
					c0.6-0.12,1.16-0.29,1.67-0.5c0.55-0.23,1.09-0.5,1.59-0.8c0.58-0.35,1.17-0.72,1.75-1.11c0.51-0.34,1.09-0.51,1.67-0.51
					c0.63,0,1.25,0.2,1.78,0.59l0.99,0.73c0.69,0.51,1.13,1.3,1.21,2.16s-0.23,1.71-0.83,2.33c-0.71,0.73-1.57,1.5-2.63,2.34
					c-1.11,0.88-2.45,1.7-3.98,2.45c-1.53,0.75-3.32,1.38-5.31,1.86C452.96,74.72,450.66,74.97,448.14,74.97z M448.37,46.11
					c-0.36,0-0.62,0.06-0.8,0.17c-0.3,0.2-0.55,0.45-0.76,0.77c-0.28,0.44-0.5,0.97-0.68,1.57c-0.16,0.57-0.3,1.16-0.4,1.74
					l3.78-1.67c0-0.07,0-0.15,0-0.24c0-0.19-0.02-0.51-0.14-1c-0.07-0.29-0.18-0.57-0.35-0.84c-0.13-0.2-0.27-0.36-0.47-0.49
					c0,0,0,0,0,0C448.56,46.12,448.49,46.11,448.37,46.11z"/>
			</g>
		</g>
		<g>
			<path class="st10" d="M58.65,75.95c1.05,0,2.09-0.15,3.12-0.44c1.03-0.29,1.94-0.78,2.75-1.46c0.8-0.68,1.46-1.56,1.96-2.66
				c0.5-1.09,0.75-2.43,0.75-4.01c0-1.7-0.55-3.35-1.64-4.95c-1.09-1.6-2.46-3.17-4.11-4.72c-1.65-1.55-3.42-3.09-5.33-4.62
				c-1.91-1.53-3.69-3.09-5.33-4.68c-1.65-1.59-3.02-3.23-4.11-4.92c-1.09-1.69-1.64-3.46-1.64-5.3c0-1.84,0.44-3.51,1.32-5
				c0.88-1.49,2.08-2.75,3.6-3.8c1.51-1.04,3.28-1.85,5.29-2.42c2.02-0.57,4.17-0.85,6.46-0.85c2.45,0,4.63,0.2,6.54,0.59
				c1.91,0.4,3.53,0.93,4.86,1.61c1.33,0.68,2.34,1.48,3.02,2.4c0.68,0.92,1.03,1.9,1.03,2.93c0,0.49-0.09,0.99-0.28,1.5
				c-0.18,0.52-0.47,0.99-0.87,1.41c-0.4,0.43-0.9,0.78-1.5,1.06c-0.61,0.28-1.32,0.43-2.13,0.43c-0.98,0-1.69-0.23-2.15-0.68
				c-0.46-0.46-0.8-1.02-1.03-1.69c-0.22-0.67-0.42-1.4-0.57-2.2c-0.16-0.8-0.41-1.53-0.75-2.2s-0.86-1.23-1.54-1.69
				c-0.69-0.46-1.69-0.68-3-0.68c-0.71,0-1.42,0.12-2.11,0.36c-0.7,0.24-1.33,0.61-1.9,1.11c-0.57,0.5-1.02,1.13-1.36,1.9
				c-0.34,0.77-0.51,1.68-0.51,2.73c0,1.22,0.33,2.4,0.99,3.55c0.66,1.15,1.53,2.29,2.61,3.42c1.08,1.12,2.31,2.25,3.69,3.37
				s2.79,2.26,4.23,3.4c1.44,1.14,2.84,2.32,4.23,3.52s2.61,2.46,3.69,3.75c1.08,1.3,1.95,2.65,2.61,4.07
				c0.66,1.42,0.99,2.91,0.99,4.47c0,2.29-0.57,4.33-1.72,6.12c-1.15,1.79-2.7,3.3-4.66,4.53c-1.96,1.23-4.26,2.16-6.89,2.81
				c-2.63,0.65-5.44,0.97-8.42,0.97c-2.69,0-5.06-0.26-7.13-0.77c-2.07-0.52-3.81-1.2-5.24-2.05s-2.5-1.82-3.22-2.9
				c-0.73-1.08-1.09-2.2-1.09-3.36c0-0.49,0.1-1.01,0.3-1.56c0.2-0.56,0.49-1.07,0.87-1.53c0.38-0.47,0.86-0.85,1.44-1.17
				c0.58-0.31,1.25-0.47,2.02-0.47c0.79,0,1.43,0.15,1.92,0.46c0.49,0.3,0.88,0.71,1.17,1.22c0.29,0.51,0.53,1.08,0.71,1.73
				c0.18,0.65,0.38,1.31,0.59,1.98c0.21,0.67,0.47,1.33,0.79,1.97c0.32,0.65,0.75,1.23,1.3,1.73c0.55,0.51,1.26,0.91,2.13,1.22
				S57.34,75.95,58.65,75.95z"/>
			<path class="st10" d="M99.47,42.5c-0.9,0-1.73,0.08-2.49,0.24c-0.76,0.16-1.42,0.36-1.98,0.61c-0.55,0.24-0.99,0.51-1.3,0.81
				c-0.32,0.29-0.47,0.57-0.47,0.84c0,0.3,0.2,0.52,0.61,0.65c0.41,0.13,0.86,0.28,1.36,0.46c0.5,0.17,0.95,0.42,1.36,0.73
				c0.41,0.31,0.61,0.79,0.61,1.44c0,0.43-0.11,0.82-0.34,1.17c-0.22,0.35-0.53,0.67-0.91,0.94c-0.38,0.27-0.83,0.49-1.34,0.64
				c-0.51,0.15-1.05,0.23-1.6,0.23c-1.48,0-2.67-0.38-3.58-1.15c-0.91-0.77-1.36-1.79-1.36-3.07c0-1.24,0.42-2.29,1.26-3.17
				c0.84-0.88,1.94-1.6,3.3-2.17c1.36-0.57,2.89-0.99,4.6-1.26c1.71-0.27,3.42-0.41,5.14-0.41c2.05,0,4.02,0.17,5.89,0.52
				c1.87,0.34,3.52,0.89,4.96,1.64c1.44,0.75,2.58,1.7,3.44,2.86c0.86,1.15,1.28,2.55,1.28,4.19v17.17c0,0.18,0.01,0.39,0.04,0.61
				c0.03,0.22,0.09,0.43,0.2,0.61c0.1,0.18,0.26,0.33,0.47,0.46c0.21,0.12,0.51,0.18,0.91,0.18c0.47,0,0.92-0.14,1.32-0.41
				c0.41-0.27,0.77-0.55,1.09-0.84l0.99,0.64c-0.4,0.43-0.87,0.89-1.42,1.4c-0.55,0.51-1.23,0.98-2.02,1.43
				c-0.79,0.45-1.71,0.82-2.77,1.12c-1.05,0.3-2.25,0.46-3.6,0.46c-1.66,0-3.14-0.38-4.43-1.14c-1.29-0.76-2.13-1.93-2.53-3.51
				c-0.84,0.87-1.72,1.6-2.63,2.19s-1.84,1.06-2.79,1.43s-1.9,0.63-2.86,0.79c-0.96,0.16-1.93,0.24-2.9,0.24
				c-1.26,0-2.49-0.15-3.67-0.46c-1.19-0.3-2.25-0.78-3.18-1.44c-0.94-0.66-1.69-1.51-2.25-2.57s-0.85-2.34-0.85-3.86
				c0-1.84,0.47-3.35,1.42-4.53c0.95-1.17,2.19-2.16,3.73-2.96s3.29-1.48,5.25-2.05c1.96-0.57,3.97-1.16,6.03-1.79
				c1.53-0.47,2.64-1.16,3.34-2.08c0.7-0.92,1.05-1.87,1.05-2.84c0-1.5-0.57-2.7-1.72-3.6C103,42.95,101.44,42.5,99.47,42.5z
				 M105.75,55.81c0-0.51-0.21-0.89-0.63-1.15c-0.42-0.26-0.96-0.4-1.62-0.4c-0.92,0-1.8,0.16-2.63,0.49
				c-0.83,0.32-1.56,0.8-2.19,1.43c-0.63,0.63-1.13,1.4-1.5,2.32c-0.37,0.92-0.55,1.99-0.55,3.21c0,1.17,0.11,2.15,0.34,2.92
				c0.22,0.77,0.53,1.38,0.91,1.84c0.38,0.46,0.82,0.77,1.32,0.96c0.5,0.18,1.03,0.27,1.58,0.27c0.68,0,1.33-0.14,1.94-0.41
				c0.61-0.27,1.13-0.62,1.58-1.05s0.8-0.9,1.07-1.43c0.26-0.53,0.4-1.05,0.4-1.58V55.81z"/>
			<path class="st10" d="M162.01,68.87c0,0.26-0.05,0.58-0.16,0.94c-0.11,0.36-0.36,0.71-0.77,1.03c-0.41,0.32-1.02,0.6-1.84,0.84
				c-0.82,0.23-1.92,0.35-3.32,0.35c-1.4,0-2.5-0.13-3.3-0.38c-0.8-0.25-1.41-0.55-1.82-0.9c-0.41-0.34-0.67-0.7-0.77-1.06
				c-0.11-0.36-0.16-0.66-0.16-0.88V47.33c0-0.28-0.05-0.57-0.16-0.87c-0.11-0.29-0.26-0.56-0.47-0.81
				c-0.21-0.24-0.47-0.44-0.79-0.59c-0.32-0.15-0.69-0.23-1.11-0.23c-0.71,0-1.41,0.16-2.09,0.47c-0.69,0.31-1.32,0.67-1.92,1.08
				c-0.59,0.41-1.11,0.81-1.54,1.21c-0.43,0.41-0.74,0.71-0.93,0.91v20.36c0,0.26-0.05,0.58-0.16,0.94
				c-0.11,0.36-0.36,0.71-0.77,1.03c-0.41,0.32-1.01,0.6-1.82,0.84c-0.8,0.23-1.9,0.35-3.3,0.35s-2.5-0.13-3.3-0.38
				c-0.8-0.25-1.42-0.55-1.84-0.9c-0.42-0.34-0.69-0.7-0.79-1.06c-0.11-0.36-0.16-0.66-0.16-0.88V45.36c0-0.59-0.18-1.1-0.53-1.53
				s-0.96-0.65-1.8-0.65c-0.45,0-0.83,0.06-1.15,0.18s-0.66,0.29-1.03,0.52l-0.83-0.76c0.61-0.38,1.28-0.76,2.03-1.14
				c0.75-0.37,1.56-0.7,2.43-0.99s1.8-0.52,2.81-0.7c1-0.18,2.05-0.27,3.16-0.27c1.71,0,3.04,0.22,3.99,0.65s1.65,0.96,2.09,1.56
				c0.45,0.61,0.72,1.24,0.81,1.9s0.14,1.21,0.14,1.66c1.24-1.07,2.57-2.04,3.99-2.89c0.58-0.36,1.22-0.72,1.92-1.06
				c0.7-0.34,1.42-0.65,2.15-0.93c0.74-0.27,1.5-0.49,2.29-0.65c0.79-0.16,1.58-0.24,2.37-0.24c1.53,0,2.83,0.21,3.91,0.64
				c1.08,0.43,1.95,0.94,2.61,1.53c0.66,0.6,1.14,1.23,1.44,1.88c0.3,0.66,0.45,1.23,0.45,1.72c1.26-1.07,2.59-2.04,3.99-2.89
				c0.58-0.36,1.21-0.72,1.9-1.06c0.68-0.34,1.4-0.65,2.15-0.93c0.75-0.27,1.51-0.49,2.29-0.65c0.78-0.16,1.56-0.24,2.35-0.24
				c1.53,0,2.83,0.22,3.91,0.65c1.08,0.44,1.95,1.01,2.61,1.72c0.66,0.71,1.14,1.51,1.44,2.4c0.3,0.89,0.45,1.78,0.45,2.67v18.81
				c0,0.18,0.01,0.38,0.04,0.59c0.03,0.21,0.09,0.42,0.2,0.61c0.1,0.19,0.27,0.35,0.49,0.47c0.22,0.12,0.52,0.18,0.89,0.18
				c0.5,0,0.95-0.14,1.34-0.41s0.76-0.55,1.11-0.84l0.95,0.64c-0.37,0.43-0.86,0.9-1.46,1.41s-1.32,1.01-2.15,1.47
				c-0.83,0.47-1.79,0.86-2.88,1.17c-1.09,0.31-2.33,0.47-3.69,0.47c-1.16,0-2.17-0.12-3.02-0.35c-0.86-0.23-1.58-0.55-2.17-0.94
				c-0.59-0.4-1.03-0.86-1.32-1.4c-0.29-0.54-0.43-1.11-0.43-1.72v-20.3c0-0.28-0.05-0.57-0.16-0.87c-0.11-0.29-0.26-0.56-0.45-0.81
				c-0.2-0.24-0.45-0.44-0.77-0.59s-0.69-0.23-1.11-0.23c-0.71,0-1.42,0.16-2.11,0.47c-0.7,0.31-1.34,0.67-1.94,1.08
				c-0.59,0.41-1.1,0.81-1.52,1.21c-0.42,0.41-0.72,0.71-0.91,0.91V68.87z"/>
			<path class="st10" d="M192.19,29.62c0-0.59-0.18-1.1-0.53-1.53c-0.36-0.44-0.96-0.65-1.8-0.65c-0.45,0-0.84,0.06-1.17,0.17
				s-0.68,0.28-1.05,0.5l-0.79-0.73c0.61-0.38,1.28-0.76,2.03-1.14c0.75-0.37,1.56-0.7,2.43-0.99s1.8-0.52,2.81-0.7
				c1-0.18,2.05-0.27,3.16-0.27c1.53,0,2.76,0.18,3.69,0.53c0.93,0.35,1.65,0.79,2.13,1.31s0.81,1.07,0.97,1.67
				c0.16,0.6,0.24,1.15,0.24,1.66v13.55c0.32-0.22,0.72-0.5,1.23-0.84c0.5-0.33,1.13-0.66,1.9-0.99c0.76-0.32,1.68-0.6,2.75-0.82
				c1.07-0.22,2.32-0.33,3.77-0.33c1.69,0,3.37,0.3,5.06,0.9c1.69,0.6,3.2,1.53,4.54,2.81c1.34,1.28,2.44,2.92,3.28,4.92
				c0.84,2.01,1.26,4.42,1.26,7.23c0,2.21-0.39,4.29-1.17,6.26c-0.78,1.96-1.93,3.68-3.46,5.15c-1.53,1.47-3.44,2.63-5.73,3.48
				c-2.29,0.85-4.95,1.28-7.98,1.28c-3.29,0-6.06-0.41-8.32-1.23s-4.06-1.92-5.43-3.31c-1.37-1.39-2.35-3-2.94-4.85
				c-0.59-1.84-0.89-3.79-0.89-5.83V29.62z M215.74,56.42c0-1.76-0.12-3.42-0.36-4.97c-0.24-1.55-0.62-2.91-1.15-4.07
				c-0.53-1.16-1.2-2.09-2.02-2.76s-1.8-1.02-2.96-1.02c-0.9,0-1.65,0.17-2.27,0.5c-0.62,0.33-1.13,0.71-1.52,1.14
				s-0.69,0.85-0.87,1.26c-0.18,0.42-0.28,0.69-0.28,0.84v9.08c0,4.42,0.48,7.63,1.44,9.63c0.96,2,2.38,3.01,4.25,3.01
				c1.98,0,3.42-1.02,4.35-3.07C215.28,63.94,215.74,60.75,215.74,56.42z"/>
			<path class="st10" d="M245.93,57.6c0,0.65,0.13,1.35,0.38,2.11c0.25,0.76,0.61,1.52,1.09,2.29c0.47,0.77,1.06,1.5,1.76,2.2
				c0.7,0.7,1.5,1.32,2.41,1.87c0.91,0.55,1.92,0.98,3.02,1.31c1.11,0.32,2.32,0.49,3.63,0.49c0.92,0,1.78-0.08,2.57-0.24
				c0.79-0.16,1.53-0.38,2.21-0.67c0.68-0.28,1.34-0.61,1.98-0.99c0.63-0.37,1.26-0.77,1.9-1.2l0.99,0.73
				c-0.61,0.63-1.38,1.32-2.33,2.07c-0.95,0.75-2.09,1.45-3.44,2.11c-1.34,0.66-2.91,1.21-4.7,1.64c-1.79,0.44-3.83,0.65-6.12,0.65
				c-2.29,0-4.52-0.32-6.7-0.96s-4.1-1.6-5.79-2.87s-3.04-2.87-4.05-4.77c-1.01-1.9-1.52-4.13-1.52-6.68c0-1.84,0.3-3.53,0.91-5.07
				c0.61-1.54,1.43-2.93,2.47-4.16c1.04-1.23,2.25-2.32,3.63-3.25s2.84-1.71,4.37-2.32c1.53-0.62,3.09-1.08,4.68-1.4
				c1.59-0.31,3.13-0.47,4.6-0.47c1.95,0,3.65,0.16,5.1,0.49c1.45,0.32,2.65,0.76,3.62,1.31c0.96,0.55,1.68,1.18,2.15,1.9
				c0.47,0.72,0.71,1.47,0.71,2.26c0,0.95-0.36,1.81-1.07,2.57c-0.71,0.76-1.66,1.42-2.84,1.99L245.93,57.6z M253.87,51.43
				c0.34-0.16,0.63-0.32,0.85-0.47c0.22-0.15,0.4-0.33,0.53-0.55c0.13-0.21,0.23-0.48,0.3-0.79c0.07-0.31,0.1-0.7,0.1-1.17
				c0-0.51-0.07-1.07-0.22-1.69c-0.14-0.62-0.39-1.2-0.73-1.75c-0.34-0.55-0.78-1-1.3-1.37c-0.53-0.36-1.16-0.55-1.9-0.55
				c-0.95,0-1.76,0.22-2.43,0.65c-0.67,0.44-1.22,1-1.66,1.69s-0.78,1.47-1.03,2.35c-0.25,0.88-0.44,1.77-0.57,2.66
				c-0.13,0.89-0.21,1.75-0.24,2.57c-0.03,0.82-0.04,1.51-0.04,2.08L253.87,51.43z"/>
			<path class="st10" d="M284.61,68.87c0,0.26-0.06,0.58-0.18,0.94c-0.12,0.36-0.4,0.71-0.83,1.03c-0.43,0.32-1.07,0.6-1.9,0.84
				c-0.83,0.23-1.94,0.35-3.34,0.35c-1.4,0-2.49-0.13-3.28-0.38c-0.79-0.25-1.38-0.55-1.76-0.9c-0.38-0.34-0.62-0.7-0.71-1.06
				c-0.09-0.36-0.14-0.66-0.14-0.88V29.62c0-0.59-0.18-1.1-0.53-1.53c-0.36-0.44-0.96-0.65-1.8-0.65c-0.45,0-0.84,0.06-1.17,0.17
				c-0.33,0.11-0.68,0.28-1.05,0.5l-0.79-0.73c0.61-0.38,1.28-0.76,2.01-1.14c0.74-0.37,1.55-0.7,2.43-0.99
				c0.88-0.28,1.82-0.52,2.83-0.7c1-0.18,2.05-0.27,3.16-0.27c1.71,0,3.04,0.18,3.99,0.53c0.95,0.35,1.65,0.79,2.09,1.31
				c0.45,0.52,0.72,1.06,0.81,1.64c0.09,0.58,0.14,1.09,0.14,1.53V68.87z"/>
			<path class="st10" d="M293.5,45.72c-0.16-0.81-0.42-1.44-0.77-1.88c-0.36-0.45-0.96-0.67-1.8-0.67c-0.45,0-0.84,0.06-1.17,0.18
				s-0.68,0.29-1.05,0.52l-0.79-0.76c0.61-0.38,1.28-0.76,2.04-1.14c0.75-0.37,1.56-0.7,2.43-0.99s1.8-0.52,2.81-0.7
				c1-0.18,2.05-0.27,3.16-0.27c1.58,0,2.86,0.21,3.83,0.62c0.97,0.42,1.74,0.93,2.31,1.55c0.57,0.62,0.97,1.28,1.21,1.99
				c0.24,0.71,0.41,1.35,0.51,1.91c0.97,6.14,2.07,10.79,3.28,13.95c1.21,3.16,2.65,4.74,4.31,4.74c0.92,0,1.81-0.38,2.67-1.15
				c0.86-0.77,1.61-1.82,2.25-3.16c0.65-1.34,1.17-2.9,1.56-4.68c0.4-1.78,0.59-3.69,0.59-5.71c0-1.34-0.12-2.47-0.36-3.39
				c-0.24-0.92-0.5-1.7-0.79-2.32c-0.29-0.63-0.55-1.15-0.79-1.56c-0.24-0.42-0.36-0.78-0.36-1.11c0-0.3,0.16-0.56,0.47-0.76
				c0.32-0.2,0.69-0.37,1.13-0.52s0.88-0.24,1.34-0.3c0.46-0.06,0.84-0.09,1.13-0.09c0.76,0,1.32,0.08,1.66,0.24
				c0.34,0.16,0.62,0.48,0.83,0.94c0.24,0.59,0.4,1.36,0.49,2.32c0.09,0.96,0.14,1.99,0.14,3.08c0,1.56-0.14,3.27-0.42,5.13
				c-0.28,1.86-0.7,3.74-1.26,5.62s-1.28,3.71-2.15,5.47c-0.87,1.76-1.9,3.33-3.1,4.69c-1.2,1.37-2.55,2.46-4.07,3.28
				s-3.21,1.23-5.08,1.23c-2.19,0-4.08-0.49-5.69-1.46c-1.61-0.97-2.97-2.24-4.09-3.8c-1.12-1.56-2.05-3.31-2.79-5.26
				c-0.74-1.94-1.34-3.89-1.8-5.85s-0.83-3.81-1.11-5.56C293.95,48.36,293.71,46.9,293.5,45.72z"/>
			<path class="st10" d="M342.57,57.6c0,0.65,0.13,1.35,0.38,2.11c0.25,0.76,0.61,1.52,1.09,2.29c0.47,0.77,1.06,1.5,1.76,2.2
				c0.7,0.7,1.5,1.32,2.41,1.87c0.91,0.55,1.92,0.98,3.02,1.31c1.11,0.32,2.32,0.49,3.63,0.49c0.92,0,1.78-0.08,2.57-0.24
				c0.79-0.16,1.53-0.38,2.21-0.67c0.68-0.28,1.34-0.61,1.98-0.99c0.63-0.37,1.26-0.77,1.9-1.2l0.99,0.73
				c-0.61,0.63-1.38,1.32-2.33,2.07c-0.95,0.75-2.09,1.45-3.44,2.11c-1.34,0.66-2.91,1.21-4.7,1.64c-1.79,0.44-3.83,0.65-6.12,0.65
				c-2.29,0-4.52-0.32-6.7-0.96c-2.17-0.64-4.1-1.6-5.79-2.87s-3.04-2.87-4.05-4.77c-1.01-1.9-1.52-4.13-1.52-6.68
				c0-1.84,0.3-3.53,0.91-5.07c0.61-1.54,1.43-2.93,2.47-4.16c1.04-1.23,2.25-2.32,3.63-3.25s2.84-1.71,4.37-2.32
				c1.53-0.62,3.09-1.08,4.68-1.4c1.59-0.31,3.13-0.47,4.6-0.47c1.95,0,3.65,0.16,5.1,0.49c1.45,0.32,2.65,0.76,3.62,1.31
				c0.96,0.55,1.68,1.18,2.15,1.9c0.47,0.72,0.71,1.47,0.71,2.26c0,0.95-0.36,1.81-1.07,2.57c-0.71,0.76-1.66,1.42-2.84,1.99
				L342.57,57.6z M350.51,51.43c0.34-0.16,0.63-0.32,0.85-0.47s0.4-0.33,0.53-0.55c0.13-0.21,0.23-0.48,0.3-0.79
				c0.07-0.31,0.1-0.7,0.1-1.17c0-0.51-0.07-1.07-0.22-1.69c-0.14-0.62-0.39-1.2-0.73-1.75c-0.34-0.55-0.78-1-1.3-1.37
				c-0.53-0.36-1.16-0.55-1.9-0.55c-0.95,0-1.76,0.22-2.43,0.65c-0.67,0.44-1.22,1-1.66,1.69c-0.43,0.69-0.78,1.47-1.03,2.35
				c-0.25,0.88-0.44,1.77-0.57,2.66c-0.13,0.89-0.21,1.75-0.24,2.57s-0.04,1.51-0.04,2.08L350.51,51.43z"/>
			<path class="st10" d="M382.43,46.42c1-1.17,2.07-2.24,3.2-3.19c0.47-0.4,0.99-0.8,1.54-1.18c0.55-0.38,1.13-0.73,1.72-1.03
				s1.21-0.55,1.84-0.73c0.63-0.18,1.26-0.27,1.9-0.27c1.34,0,2.4,0.31,3.16,0.93c0.76,0.62,1.15,1.48,1.15,2.6
				c0,0.69-0.07,1.35-0.22,1.99c-0.15,0.64-0.43,1.41-0.85,2.32h-1.11c-0.16-0.63-0.53-1.15-1.11-1.56s-1.42-0.62-2.53-0.62
				c-0.82,0-1.62,0.12-2.41,0.35s-1.56,0.52-2.31,0.87c-0.75,0.34-1.46,0.72-2.13,1.12c-0.67,0.41-1.28,0.79-1.84,1.15v19.72
				c0,0.26-0.05,0.58-0.16,0.94c-0.11,0.36-0.36,0.71-0.77,1.03c-0.41,0.32-1.01,0.6-1.82,0.84s-1.9,0.35-3.3,0.35
				c-1.4,0-2.5-0.13-3.3-0.38c-0.8-0.25-1.42-0.55-1.84-0.9c-0.42-0.34-0.69-0.7-0.79-1.06c-0.11-0.36-0.16-0.66-0.16-0.88V45.36
				c0-0.59-0.18-1.1-0.53-1.53c-0.36-0.44-0.96-0.65-1.8-0.65c-0.45,0-0.83,0.06-1.15,0.18c-0.32,0.12-0.66,0.29-1.03,0.52
				l-0.83-0.76c0.61-0.38,1.28-0.76,2.03-1.14c0.75-0.37,1.56-0.7,2.43-0.99s1.8-0.52,2.8-0.7c1-0.18,2.05-0.27,3.16-0.27
				c1.13,0,2.1,0.12,2.9,0.35c0.8,0.23,1.46,0.54,1.98,0.91c0.51,0.38,0.92,0.8,1.21,1.26c0.29,0.47,0.51,0.94,0.65,1.41
				c0.14,0.48,0.23,0.93,0.26,1.37C382.42,45.75,382.43,46.12,382.43,46.42z"/>
			<path class="st10" d="M414.63,42.44c-0.61,0-1.18,0.06-1.72,0.18s-1.02,0.32-1.44,0.59c-0.42,0.27-0.75,0.62-0.99,1.03
				c-0.24,0.42-0.36,0.91-0.36,1.47c0,0.79,0.38,1.58,1.13,2.35c0.75,0.78,1.69,1.59,2.81,2.43c1.12,0.84,2.33,1.71,3.63,2.61
				c1.3,0.9,2.51,1.85,3.63,2.86c1.12,1,2.05,2.07,2.8,3.21c0.75,1.13,1.13,2.35,1.13,3.65c0,1.46-0.32,2.75-0.97,3.89
				s-1.57,2.1-2.77,2.89c-1.2,0.79-2.65,1.39-4.35,1.81c-1.7,0.42-3.59,0.62-5.67,0.62c-1.82,0-3.46-0.2-4.94-0.59
				c-1.48-0.4-2.79-0.88-3.93-1.46c-1.15-0.58-2.13-1.19-2.94-1.84c-0.82-0.65-1.45-1.24-1.9-1.76l1.38-0.76
				c0.34,0.3,0.78,0.63,1.3,0.99c0.53,0.35,1.11,0.68,1.76,0.99c0.64,0.3,1.34,0.55,2.07,0.74c0.74,0.19,1.49,0.29,2.25,0.29
				c1.9,0,3.45-0.35,4.66-1.05c1.21-0.7,1.82-1.74,1.82-3.11c0-0.77-0.33-1.56-0.99-2.38s-1.49-1.67-2.49-2.54
				c-1-0.87-2.08-1.77-3.24-2.7c-1.16-0.93-2.24-1.89-3.24-2.89c-1-0.99-1.83-2.02-2.49-3.07c-0.66-1.05-0.99-2.15-0.99-3.28
				c0-1.28,0.34-2.39,1.01-3.34c0.67-0.95,1.57-1.74,2.69-2.37c1.12-0.63,2.4-1.1,3.83-1.41c1.44-0.31,2.92-0.47,4.45-0.47
				c1.76,0,3.37,0.12,4.82,0.36c1.45,0.24,2.69,0.61,3.73,1.11c1.04,0.5,1.84,1.12,2.41,1.87c0.57,0.75,0.85,1.62,0.85,2.61
				c0,0.77-0.33,1.44-0.99,2.01c-0.66,0.57-1.58,0.85-2.77,0.85c-1.13,0-2-0.19-2.59-0.56c-0.59-0.37-0.89-0.89-0.89-1.53
				c0-0.43,0.14-0.76,0.42-1c0.28-0.24,0.59-0.44,0.93-0.59c0.34-0.15,0.65-0.28,0.93-0.4c0.28-0.11,0.42-0.26,0.42-0.44
				c0-0.57-0.39-1.02-1.19-1.35C416.89,42.61,415.87,42.44,414.63,42.44z"/>
			<path class="st10" d="M442.8,57.6c0,0.65,0.13,1.35,0.38,2.11c0.25,0.76,0.61,1.52,1.09,2.29c0.47,0.77,1.06,1.5,1.76,2.2
				c0.7,0.7,1.5,1.32,2.41,1.87c0.91,0.55,1.92,0.98,3.02,1.31c1.11,0.32,2.32,0.49,3.63,0.49c0.92,0,1.78-0.08,2.57-0.24
				c0.79-0.16,1.53-0.38,2.21-0.67c0.68-0.28,1.34-0.61,1.98-0.99c0.63-0.37,1.26-0.77,1.9-1.2l0.99,0.73
				c-0.61,0.63-1.38,1.32-2.33,2.07c-0.95,0.75-2.09,1.45-3.44,2.11c-1.34,0.66-2.91,1.21-4.7,1.64c-1.79,0.44-3.83,0.65-6.12,0.65
				c-2.29,0-4.52-0.32-6.7-0.96c-2.17-0.64-4.1-1.6-5.79-2.87s-3.04-2.87-4.05-4.77c-1.01-1.9-1.52-4.13-1.52-6.68
				c0-1.84,0.3-3.53,0.91-5.07c0.61-1.54,1.43-2.93,2.47-4.16c1.04-1.23,2.25-2.32,3.63-3.25s2.84-1.71,4.37-2.32
				c1.53-0.62,3.09-1.08,4.68-1.4c1.59-0.31,3.13-0.47,4.6-0.47c1.95,0,3.65,0.16,5.1,0.49c1.45,0.32,2.65,0.76,3.62,1.31
				c0.96,0.55,1.68,1.18,2.15,1.9c0.47,0.72,0.71,1.47,0.71,2.26c0,0.95-0.36,1.81-1.07,2.57c-0.71,0.76-1.66,1.42-2.84,1.99
				L442.8,57.6z M450.74,51.43c0.34-0.16,0.63-0.32,0.85-0.47s0.4-0.33,0.53-0.55c0.13-0.21,0.23-0.48,0.3-0.79
				c0.07-0.31,0.1-0.7,0.1-1.17c0-0.51-0.07-1.07-0.22-1.69c-0.14-0.62-0.39-1.2-0.73-1.75c-0.34-0.55-0.78-1-1.3-1.37
				c-0.53-0.36-1.16-0.55-1.9-0.55c-0.95,0-1.76,0.22-2.43,0.65c-0.67,0.44-1.22,1-1.66,1.69c-0.43,0.69-0.78,1.47-1.03,2.35
				c-0.25,0.88-0.44,1.77-0.57,2.66c-0.13,0.89-0.21,1.75-0.24,2.57s-0.04,1.51-0.04,2.08L450.74,51.43z"/>
		</g>
		<g>
			<path class="st11" d="M58.65,75.95c1.05,0,2.09-0.15,3.12-0.44c1.03-0.29,1.94-0.78,2.75-1.46c0.8-0.68,1.46-1.56,1.96-2.66
				c0.5-1.09,0.75-2.43,0.75-4.01c0-1.7-0.55-3.35-1.64-4.95c-1.09-1.6-2.46-3.17-4.11-4.72c-1.65-1.55-3.42-3.09-5.33-4.62
				c-1.91-1.53-3.69-3.09-5.33-4.68c-1.65-1.59-3.02-3.23-4.11-4.92c-1.09-1.69-1.64-3.46-1.64-5.3c0-1.84,0.44-3.51,1.32-5
				c0.88-1.49,2.08-2.75,3.6-3.8c1.51-1.04,3.28-1.85,5.29-2.42c2.02-0.57,4.17-0.85,6.46-0.85c2.45,0,4.63,0.2,6.54,0.59
				c1.91,0.4,3.53,0.93,4.86,1.61c1.33,0.68,2.34,1.48,3.02,2.4c0.68,0.92,1.03,1.9,1.03,2.93c0,0.49-0.09,0.99-0.28,1.5
				c-0.18,0.52-0.47,0.99-0.87,1.41c-0.4,0.43-0.9,0.78-1.5,1.06c-0.61,0.28-1.32,0.43-2.13,0.43c-0.98,0-1.69-0.23-2.15-0.68
				c-0.46-0.46-0.8-1.02-1.03-1.69c-0.22-0.67-0.42-1.4-0.57-2.2c-0.16-0.8-0.41-1.53-0.75-2.2s-0.86-1.23-1.54-1.69
				c-0.69-0.46-1.69-0.68-3-0.68c-0.71,0-1.42,0.12-2.11,0.36c-0.7,0.24-1.33,0.61-1.9,1.11c-0.57,0.5-1.02,1.13-1.36,1.9
				c-0.34,0.77-0.51,1.68-0.51,2.73c0,1.22,0.33,2.4,0.99,3.55c0.66,1.15,1.53,2.29,2.61,3.42c1.08,1.12,2.31,2.25,3.69,3.37
				s2.79,2.26,4.23,3.4c1.44,1.14,2.84,2.32,4.23,3.52s2.61,2.46,3.69,3.75c1.08,1.3,1.95,2.65,2.61,4.07
				c0.66,1.42,0.99,2.91,0.99,4.47c0,2.29-0.57,4.33-1.72,6.12c-1.15,1.79-2.7,3.3-4.66,4.53c-1.96,1.23-4.26,2.16-6.89,2.81
				c-2.63,0.65-5.44,0.97-8.42,0.97c-2.69,0-5.06-0.26-7.13-0.77c-2.07-0.52-3.81-1.2-5.24-2.05s-2.5-1.82-3.22-2.9
				c-0.73-1.08-1.09-2.2-1.09-3.36c0-0.49,0.1-1.01,0.3-1.56c0.2-0.56,0.49-1.07,0.87-1.53c0.38-0.47,0.86-0.85,1.44-1.17
				c0.58-0.31,1.25-0.47,2.02-0.47c0.79,0,1.43,0.15,1.92,0.46c0.49,0.3,0.88,0.71,1.17,1.22c0.29,0.51,0.53,1.08,0.71,1.73
				c0.18,0.65,0.38,1.31,0.59,1.98c0.21,0.67,0.47,1.33,0.79,1.97c0.32,0.65,0.75,1.23,1.3,1.73c0.55,0.51,1.26,0.91,2.13,1.22
				S57.34,75.95,58.65,75.95z"/>
			<path class="st11" d="M99.47,42.5c-0.9,0-1.73,0.08-2.49,0.24c-0.76,0.16-1.42,0.36-1.98,0.61c-0.55,0.24-0.99,0.51-1.3,0.81
				c-0.32,0.29-0.47,0.57-0.47,0.84c0,0.3,0.2,0.52,0.61,0.65c0.41,0.13,0.86,0.28,1.36,0.46c0.5,0.17,0.95,0.42,1.36,0.73
				c0.41,0.31,0.61,0.79,0.61,1.44c0,0.43-0.11,0.82-0.34,1.17c-0.22,0.35-0.53,0.67-0.91,0.94c-0.38,0.27-0.83,0.49-1.34,0.64
				c-0.51,0.15-1.05,0.23-1.6,0.23c-1.48,0-2.67-0.38-3.58-1.15c-0.91-0.77-1.36-1.79-1.36-3.07c0-1.24,0.42-2.29,1.26-3.17
				c0.84-0.88,1.94-1.6,3.3-2.17c1.36-0.57,2.89-0.99,4.6-1.26c1.71-0.27,3.42-0.41,5.14-0.41c2.05,0,4.02,0.17,5.89,0.52
				c1.87,0.34,3.52,0.89,4.96,1.64c1.44,0.75,2.58,1.7,3.44,2.86c0.86,1.15,1.28,2.55,1.28,4.19v17.17c0,0.18,0.01,0.39,0.04,0.61
				c0.03,0.22,0.09,0.43,0.2,0.61c0.1,0.18,0.26,0.33,0.47,0.46c0.21,0.12,0.51,0.18,0.91,0.18c0.47,0,0.92-0.14,1.32-0.41
				c0.41-0.27,0.77-0.55,1.09-0.84l0.99,0.64c-0.4,0.43-0.87,0.89-1.42,1.4c-0.55,0.51-1.23,0.98-2.02,1.43
				c-0.79,0.45-1.71,0.82-2.77,1.12c-1.05,0.3-2.25,0.46-3.6,0.46c-1.66,0-3.14-0.38-4.43-1.14c-1.29-0.76-2.13-1.93-2.53-3.51
				c-0.84,0.87-1.72,1.6-2.63,2.19s-1.84,1.06-2.79,1.43s-1.9,0.63-2.86,0.79c-0.96,0.16-1.93,0.24-2.9,0.24
				c-1.26,0-2.49-0.15-3.67-0.46c-1.19-0.3-2.25-0.78-3.18-1.44c-0.94-0.66-1.69-1.51-2.25-2.57s-0.85-2.34-0.85-3.86
				c0-1.84,0.47-3.35,1.42-4.53c0.95-1.17,2.19-2.16,3.73-2.96s3.29-1.48,5.25-2.05c1.96-0.57,3.97-1.16,6.03-1.79
				c1.53-0.47,2.64-1.16,3.34-2.08c0.7-0.92,1.05-1.87,1.05-2.84c0-1.5-0.57-2.7-1.72-3.6C103,42.95,101.44,42.5,99.47,42.5z
				 M105.75,55.81c0-0.51-0.21-0.89-0.63-1.15c-0.42-0.26-0.96-0.4-1.62-0.4c-0.92,0-1.8,0.16-2.63,0.49
				c-0.83,0.32-1.56,0.8-2.19,1.43c-0.63,0.63-1.13,1.4-1.5,2.32c-0.37,0.92-0.55,1.99-0.55,3.21c0,1.17,0.11,2.15,0.34,2.92
				c0.22,0.77,0.53,1.38,0.91,1.84c0.38,0.46,0.82,0.77,1.32,0.96c0.5,0.18,1.03,0.27,1.58,0.27c0.68,0,1.33-0.14,1.94-0.41
				c0.61-0.27,1.13-0.62,1.58-1.05s0.8-0.9,1.07-1.43c0.26-0.53,0.4-1.05,0.4-1.58V55.81z"/>
			<path class="st11" d="M162.01,68.87c0,0.26-0.05,0.58-0.16,0.94c-0.11,0.36-0.36,0.71-0.77,1.03c-0.41,0.32-1.02,0.6-1.84,0.84
				c-0.82,0.23-1.92,0.35-3.32,0.35c-1.4,0-2.5-0.13-3.3-0.38c-0.8-0.25-1.41-0.55-1.82-0.9c-0.41-0.34-0.67-0.7-0.77-1.06
				c-0.11-0.36-0.16-0.66-0.16-0.88V47.33c0-0.28-0.05-0.57-0.16-0.87c-0.11-0.29-0.26-0.56-0.47-0.81
				c-0.21-0.24-0.47-0.44-0.79-0.59c-0.32-0.15-0.69-0.23-1.11-0.23c-0.71,0-1.41,0.16-2.09,0.47c-0.69,0.31-1.32,0.67-1.92,1.08
				c-0.59,0.41-1.11,0.81-1.54,1.21c-0.43,0.41-0.74,0.71-0.93,0.91v20.36c0,0.26-0.05,0.58-0.16,0.94
				c-0.11,0.36-0.36,0.71-0.77,1.03c-0.41,0.32-1.01,0.6-1.82,0.84c-0.8,0.23-1.9,0.35-3.3,0.35s-2.5-0.13-3.3-0.38
				c-0.8-0.25-1.42-0.55-1.84-0.9c-0.42-0.34-0.69-0.7-0.79-1.06c-0.11-0.36-0.16-0.66-0.16-0.88V45.36c0-0.59-0.18-1.1-0.53-1.53
				s-0.96-0.65-1.8-0.65c-0.45,0-0.83,0.06-1.15,0.18s-0.66,0.29-1.03,0.52l-0.83-0.76c0.61-0.38,1.28-0.76,2.03-1.14
				c0.75-0.37,1.56-0.7,2.43-0.99s1.8-0.52,2.81-0.7c1-0.18,2.05-0.27,3.16-0.27c1.71,0,3.04,0.22,3.99,0.65s1.65,0.96,2.09,1.56
				c0.45,0.61,0.72,1.24,0.81,1.9s0.14,1.21,0.14,1.66c1.24-1.07,2.57-2.04,3.99-2.89c0.58-0.36,1.22-0.72,1.92-1.06
				c0.7-0.34,1.42-0.65,2.15-0.93c0.74-0.27,1.5-0.49,2.29-0.65c0.79-0.16,1.58-0.24,2.37-0.24c1.53,0,2.83,0.21,3.91,0.64
				c1.08,0.43,1.95,0.94,2.61,1.53c0.66,0.6,1.14,1.23,1.44,1.88c0.3,0.66,0.45,1.23,0.45,1.72c1.26-1.07,2.59-2.04,3.99-2.89
				c0.58-0.36,1.21-0.72,1.9-1.06c0.68-0.34,1.4-0.65,2.15-0.93c0.75-0.27,1.51-0.49,2.29-0.65c0.78-0.16,1.56-0.24,2.35-0.24
				c1.53,0,2.83,0.22,3.91,0.65c1.08,0.44,1.95,1.01,2.61,1.72c0.66,0.71,1.14,1.51,1.44,2.4c0.3,0.89,0.45,1.78,0.45,2.67v18.81
				c0,0.18,0.01,0.38,0.04,0.59c0.03,0.21,0.09,0.42,0.2,0.61c0.1,0.19,0.27,0.35,0.49,0.47c0.22,0.12,0.52,0.18,0.89,0.18
				c0.5,0,0.95-0.14,1.34-0.41s0.76-0.55,1.11-0.84l0.95,0.64c-0.37,0.43-0.86,0.9-1.46,1.41s-1.32,1.01-2.15,1.47
				c-0.83,0.47-1.79,0.86-2.88,1.17c-1.09,0.31-2.33,0.47-3.69,0.47c-1.16,0-2.17-0.12-3.02-0.35c-0.86-0.23-1.58-0.55-2.17-0.94
				c-0.59-0.4-1.03-0.86-1.32-1.4c-0.29-0.54-0.43-1.11-0.43-1.72v-20.3c0-0.28-0.05-0.57-0.16-0.87c-0.11-0.29-0.26-0.56-0.45-0.81
				c-0.2-0.24-0.45-0.44-0.77-0.59s-0.69-0.23-1.11-0.23c-0.71,0-1.42,0.16-2.11,0.47c-0.7,0.31-1.34,0.67-1.94,1.08
				c-0.59,0.41-1.1,0.81-1.52,1.21c-0.42,0.41-0.72,0.71-0.91,0.91V68.87z"/>
			<path class="st11" d="M192.19,29.62c0-0.59-0.18-1.1-0.53-1.53c-0.36-0.44-0.96-0.65-1.8-0.65c-0.45,0-0.84,0.06-1.17,0.17
				s-0.68,0.28-1.05,0.5l-0.79-0.73c0.61-0.38,1.28-0.76,2.03-1.14c0.75-0.37,1.56-0.7,2.43-0.99s1.8-0.52,2.81-0.7
				c1-0.18,2.05-0.27,3.16-0.27c1.53,0,2.76,0.18,3.69,0.53c0.93,0.35,1.65,0.79,2.13,1.31s0.81,1.07,0.97,1.67
				c0.16,0.6,0.24,1.15,0.24,1.66v13.55c0.32-0.22,0.72-0.5,1.23-0.84c0.5-0.33,1.13-0.66,1.9-0.99c0.76-0.32,1.68-0.6,2.75-0.82
				c1.07-0.22,2.32-0.33,3.77-0.33c1.69,0,3.37,0.3,5.06,0.9c1.69,0.6,3.2,1.53,4.54,2.81c1.34,1.28,2.44,2.92,3.28,4.92
				c0.84,2.01,1.26,4.42,1.26,7.23c0,2.21-0.39,4.29-1.17,6.26c-0.78,1.96-1.93,3.68-3.46,5.15c-1.53,1.47-3.44,2.63-5.73,3.48
				c-2.29,0.85-4.95,1.28-7.98,1.28c-3.29,0-6.06-0.41-8.32-1.23s-4.06-1.92-5.43-3.31c-1.37-1.39-2.35-3-2.94-4.85
				c-0.59-1.84-0.89-3.79-0.89-5.83V29.62z M215.74,56.42c0-1.76-0.12-3.42-0.36-4.97c-0.24-1.55-0.62-2.91-1.15-4.07
				c-0.53-1.16-1.2-2.09-2.02-2.76s-1.8-1.02-2.96-1.02c-0.9,0-1.65,0.17-2.27,0.5c-0.62,0.33-1.13,0.71-1.52,1.14
				s-0.69,0.85-0.87,1.26c-0.18,0.42-0.28,0.69-0.28,0.84v9.08c0,4.42,0.48,7.63,1.44,9.63c0.96,2,2.38,3.01,4.25,3.01
				c1.98,0,3.42-1.02,4.35-3.07C215.28,63.94,215.74,60.75,215.74,56.42z"/>
			<path class="st11" d="M245.93,57.6c0,0.65,0.13,1.35,0.38,2.11c0.25,0.76,0.61,1.52,1.09,2.29c0.47,0.77,1.06,1.5,1.76,2.2
				c0.7,0.7,1.5,1.32,2.41,1.87c0.91,0.55,1.92,0.98,3.02,1.31c1.11,0.32,2.32,0.49,3.63,0.49c0.92,0,1.78-0.08,2.57-0.24
				c0.79-0.16,1.53-0.38,2.21-0.67c0.68-0.28,1.34-0.61,1.98-0.99c0.63-0.37,1.26-0.77,1.9-1.2l0.99,0.73
				c-0.61,0.63-1.38,1.32-2.33,2.07c-0.95,0.75-2.09,1.45-3.44,2.11c-1.34,0.66-2.91,1.21-4.7,1.64c-1.79,0.44-3.83,0.65-6.12,0.65
				c-2.29,0-4.52-0.32-6.7-0.96s-4.1-1.6-5.79-2.87s-3.04-2.87-4.05-4.77c-1.01-1.9-1.52-4.13-1.52-6.68c0-1.84,0.3-3.53,0.91-5.07
				c0.61-1.54,1.43-2.93,2.47-4.16c1.04-1.23,2.25-2.32,3.63-3.25s2.84-1.71,4.37-2.32c1.53-0.62,3.09-1.08,4.68-1.4
				c1.59-0.31,3.13-0.47,4.6-0.47c1.95,0,3.65,0.16,5.1,0.49c1.45,0.32,2.65,0.76,3.62,1.31c0.96,0.55,1.68,1.18,2.15,1.9
				c0.47,0.72,0.71,1.47,0.71,2.26c0,0.95-0.36,1.81-1.07,2.57c-0.71,0.76-1.66,1.42-2.84,1.99L245.93,57.6z M253.87,51.43
				c0.34-0.16,0.63-0.32,0.85-0.47c0.22-0.15,0.4-0.33,0.53-0.55c0.13-0.21,0.23-0.48,0.3-0.79c0.07-0.31,0.1-0.7,0.1-1.17
				c0-0.51-0.07-1.07-0.22-1.69c-0.14-0.62-0.39-1.2-0.73-1.75c-0.34-0.55-0.78-1-1.3-1.37c-0.53-0.36-1.16-0.55-1.9-0.55
				c-0.95,0-1.76,0.22-2.43,0.65c-0.67,0.44-1.22,1-1.66,1.69s-0.78,1.47-1.03,2.35c-0.25,0.88-0.44,1.77-0.57,2.66
				c-0.13,0.89-0.21,1.75-0.24,2.57c-0.03,0.82-0.04,1.51-0.04,2.08L253.87,51.43z"/>
			<path class="st11" d="M284.61,68.87c0,0.26-0.06,0.58-0.18,0.94c-0.12,0.36-0.4,0.71-0.83,1.03c-0.43,0.32-1.07,0.6-1.9,0.84
				c-0.83,0.23-1.94,0.35-3.34,0.35c-1.4,0-2.49-0.13-3.28-0.38c-0.79-0.25-1.38-0.55-1.76-0.9c-0.38-0.34-0.62-0.7-0.71-1.06
				c-0.09-0.36-0.14-0.66-0.14-0.88V29.62c0-0.59-0.18-1.1-0.53-1.53c-0.36-0.44-0.96-0.65-1.8-0.65c-0.45,0-0.84,0.06-1.17,0.17
				c-0.33,0.11-0.68,0.28-1.05,0.5l-0.79-0.73c0.61-0.38,1.28-0.76,2.01-1.14c0.74-0.37,1.55-0.7,2.43-0.99
				c0.88-0.28,1.82-0.52,2.83-0.7c1-0.18,2.05-0.27,3.16-0.27c1.71,0,3.04,0.18,3.99,0.53c0.95,0.35,1.65,0.79,2.09,1.31
				c0.45,0.52,0.72,1.06,0.81,1.64c0.09,0.58,0.14,1.09,0.14,1.53V68.87z"/>
			<path class="st11" d="M293.5,45.72c-0.16-0.81-0.42-1.44-0.77-1.88c-0.36-0.45-0.96-0.67-1.8-0.67c-0.45,0-0.84,0.06-1.17,0.18
				s-0.68,0.29-1.05,0.52l-0.79-0.76c0.61-0.38,1.28-0.76,2.04-1.14c0.75-0.37,1.56-0.7,2.43-0.99s1.8-0.52,2.81-0.7
				c1-0.18,2.05-0.27,3.16-0.27c1.58,0,2.86,0.21,3.83,0.62c0.97,0.42,1.74,0.93,2.31,1.55c0.57,0.62,0.97,1.28,1.21,1.99
				c0.24,0.71,0.41,1.35,0.51,1.91c0.97,6.14,2.07,10.79,3.28,13.95c1.21,3.16,2.65,4.74,4.31,4.74c0.92,0,1.81-0.38,2.67-1.15
				c0.86-0.77,1.61-1.82,2.25-3.16c0.65-1.34,1.17-2.9,1.56-4.68c0.4-1.78,0.59-3.69,0.59-5.71c0-1.34-0.12-2.47-0.36-3.39
				c-0.24-0.92-0.5-1.7-0.79-2.32c-0.29-0.63-0.55-1.15-0.79-1.56c-0.24-0.42-0.36-0.78-0.36-1.11c0-0.3,0.16-0.56,0.47-0.76
				c0.32-0.2,0.69-0.37,1.13-0.52s0.88-0.24,1.34-0.3c0.46-0.06,0.84-0.09,1.13-0.09c0.76,0,1.32,0.08,1.66,0.24
				c0.34,0.16,0.62,0.48,0.83,0.94c0.24,0.59,0.4,1.36,0.49,2.32c0.09,0.96,0.14,1.99,0.14,3.08c0,1.56-0.14,3.27-0.42,5.13
				c-0.28,1.86-0.7,3.74-1.26,5.62s-1.28,3.71-2.15,5.47c-0.87,1.76-1.9,3.33-3.1,4.69c-1.2,1.37-2.55,2.46-4.07,3.28
				s-3.21,1.23-5.08,1.23c-2.19,0-4.08-0.49-5.69-1.46c-1.61-0.97-2.97-2.24-4.09-3.8c-1.12-1.56-2.05-3.31-2.79-5.26
				c-0.74-1.94-1.34-3.89-1.8-5.85s-0.83-3.81-1.11-5.56C293.95,48.36,293.71,46.9,293.5,45.72z"/>
			<path class="st11" d="M342.57,57.6c0,0.65,0.13,1.35,0.38,2.11c0.25,0.76,0.61,1.52,1.09,2.29c0.47,0.77,1.06,1.5,1.76,2.2
				c0.7,0.7,1.5,1.32,2.41,1.87c0.91,0.55,1.92,0.98,3.02,1.31c1.11,0.32,2.32,0.49,3.63,0.49c0.92,0,1.78-0.08,2.57-0.24
				c0.79-0.16,1.53-0.38,2.21-0.67c0.68-0.28,1.34-0.61,1.98-0.99c0.63-0.37,1.26-0.77,1.9-1.2l0.99,0.73
				c-0.61,0.63-1.38,1.32-2.33,2.07c-0.95,0.75-2.09,1.45-3.44,2.11c-1.34,0.66-2.91,1.21-4.7,1.64c-1.79,0.44-3.83,0.65-6.12,0.65
				c-2.29,0-4.52-0.32-6.7-0.96c-2.17-0.64-4.1-1.6-5.79-2.87s-3.04-2.87-4.05-4.77c-1.01-1.9-1.52-4.13-1.52-6.68
				c0-1.84,0.3-3.53,0.91-5.07c0.61-1.54,1.43-2.93,2.47-4.16c1.04-1.23,2.25-2.32,3.63-3.25s2.84-1.71,4.37-2.32
				c1.53-0.62,3.09-1.08,4.68-1.4c1.59-0.31,3.13-0.47,4.6-0.47c1.95,0,3.65,0.16,5.1,0.49c1.45,0.32,2.65,0.76,3.62,1.31
				c0.96,0.55,1.68,1.18,2.15,1.9c0.47,0.72,0.71,1.47,0.71,2.26c0,0.95-0.36,1.81-1.07,2.57c-0.71,0.76-1.66,1.42-2.84,1.99
				L342.57,57.6z M350.51,51.43c0.34-0.16,0.63-0.32,0.85-0.47s0.4-0.33,0.53-0.55c0.13-0.21,0.23-0.48,0.3-0.79
				c0.07-0.31,0.1-0.7,0.1-1.17c0-0.51-0.07-1.07-0.22-1.69c-0.14-0.62-0.39-1.2-0.73-1.75c-0.34-0.55-0.78-1-1.3-1.37
				c-0.53-0.36-1.16-0.55-1.9-0.55c-0.95,0-1.76,0.22-2.43,0.65c-0.67,0.44-1.22,1-1.66,1.69c-0.43,0.69-0.78,1.47-1.03,2.35
				c-0.25,0.88-0.44,1.77-0.57,2.66c-0.13,0.89-0.21,1.75-0.24,2.57s-0.04,1.51-0.04,2.08L350.51,51.43z"/>
			<path class="st11" d="M382.43,46.42c1-1.17,2.07-2.24,3.2-3.19c0.47-0.4,0.99-0.8,1.54-1.18c0.55-0.38,1.13-0.73,1.72-1.03
				s1.21-0.55,1.84-0.73c0.63-0.18,1.26-0.27,1.9-0.27c1.34,0,2.4,0.31,3.16,0.93c0.76,0.62,1.15,1.48,1.15,2.6
				c0,0.69-0.07,1.35-0.22,1.99c-0.15,0.64-0.43,1.41-0.85,2.32h-1.11c-0.16-0.63-0.53-1.15-1.11-1.56s-1.42-0.62-2.53-0.62
				c-0.82,0-1.62,0.12-2.41,0.35s-1.56,0.52-2.31,0.87c-0.75,0.34-1.46,0.72-2.13,1.12c-0.67,0.41-1.28,0.79-1.84,1.15v19.72
				c0,0.26-0.05,0.58-0.16,0.94c-0.11,0.36-0.36,0.71-0.77,1.03c-0.41,0.32-1.01,0.6-1.82,0.84s-1.9,0.35-3.3,0.35
				c-1.4,0-2.5-0.13-3.3-0.38c-0.8-0.25-1.42-0.55-1.84-0.9c-0.42-0.34-0.69-0.7-0.79-1.06c-0.11-0.36-0.16-0.66-0.16-0.88V45.36
				c0-0.59-0.18-1.1-0.53-1.53c-0.36-0.44-0.96-0.65-1.8-0.65c-0.45,0-0.83,0.06-1.15,0.18c-0.32,0.12-0.66,0.29-1.03,0.52
				l-0.83-0.76c0.61-0.38,1.28-0.76,2.03-1.14c0.75-0.37,1.56-0.7,2.43-0.99s1.8-0.52,2.8-0.7c1-0.18,2.05-0.27,3.16-0.27
				c1.13,0,2.1,0.12,2.9,0.35c0.8,0.23,1.46,0.54,1.98,0.91c0.51,0.38,0.92,0.8,1.21,1.26c0.29,0.47,0.51,0.94,0.65,1.41
				c0.14,0.48,0.23,0.93,0.26,1.37C382.42,45.75,382.43,46.12,382.43,46.42z"/>
			<path class="st11" d="M414.63,42.44c-0.61,0-1.18,0.06-1.72,0.18s-1.02,0.32-1.44,0.59c-0.42,0.27-0.75,0.62-0.99,1.03
				c-0.24,0.42-0.36,0.91-0.36,1.47c0,0.79,0.38,1.58,1.13,2.35c0.75,0.78,1.69,1.59,2.81,2.43c1.12,0.84,2.33,1.71,3.63,2.61
				c1.3,0.9,2.51,1.85,3.63,2.86c1.12,1,2.05,2.07,2.8,3.21c0.75,1.13,1.13,2.35,1.13,3.65c0,1.46-0.32,2.75-0.97,3.89
				s-1.57,2.1-2.77,2.89c-1.2,0.79-2.65,1.39-4.35,1.81c-1.7,0.42-3.59,0.62-5.67,0.62c-1.82,0-3.46-0.2-4.94-0.59
				c-1.48-0.4-2.79-0.88-3.93-1.46c-1.15-0.58-2.13-1.19-2.94-1.84c-0.82-0.65-1.45-1.24-1.9-1.76l1.38-0.76
				c0.34,0.3,0.78,0.63,1.3,0.99c0.53,0.35,1.11,0.68,1.76,0.99c0.64,0.3,1.34,0.55,2.07,0.74c0.74,0.19,1.49,0.29,2.25,0.29
				c1.9,0,3.45-0.35,4.66-1.05c1.21-0.7,1.82-1.74,1.82-3.11c0-0.77-0.33-1.56-0.99-2.38s-1.49-1.67-2.49-2.54
				c-1-0.87-2.08-1.77-3.24-2.7c-1.16-0.93-2.24-1.89-3.24-2.89c-1-0.99-1.83-2.02-2.49-3.07c-0.66-1.05-0.99-2.15-0.99-3.28
				c0-1.28,0.34-2.39,1.01-3.34c0.67-0.95,1.57-1.74,2.69-2.37c1.12-0.63,2.4-1.1,3.83-1.41c1.44-0.31,2.92-0.47,4.45-0.47
				c1.76,0,3.37,0.12,4.82,0.36c1.45,0.24,2.69,0.61,3.73,1.11c1.04,0.5,1.84,1.12,2.41,1.87c0.57,0.75,0.85,1.62,0.85,2.61
				c0,0.77-0.33,1.44-0.99,2.01c-0.66,0.57-1.58,0.85-2.77,0.85c-1.13,0-2-0.19-2.59-0.56c-0.59-0.37-0.89-0.89-0.89-1.53
				c0-0.43,0.14-0.76,0.42-1c0.28-0.24,0.59-0.44,0.93-0.59c0.34-0.15,0.65-0.28,0.93-0.4c0.28-0.11,0.42-0.26,0.42-0.44
				c0-0.57-0.39-1.02-1.19-1.35C416.89,42.61,415.87,42.44,414.63,42.44z"/>
			<path class="st11" d="M442.8,57.6c0,0.65,0.13,1.35,0.38,2.11c0.25,0.76,0.61,1.52,1.09,2.29c0.47,0.77,1.06,1.5,1.76,2.2
				c0.7,0.7,1.5,1.32,2.41,1.87c0.91,0.55,1.92,0.98,3.02,1.31c1.11,0.32,2.32,0.49,3.63,0.49c0.92,0,1.78-0.08,2.57-0.24
				c0.79-0.16,1.53-0.38,2.21-0.67c0.68-0.28,1.34-0.61,1.98-0.99c0.63-0.37,1.26-0.77,1.9-1.2l0.99,0.73
				c-0.61,0.63-1.38,1.32-2.33,2.07c-0.95,0.75-2.09,1.45-3.44,2.11c-1.34,0.66-2.91,1.21-4.7,1.64c-1.79,0.44-3.83,0.65-6.12,0.65
				c-2.29,0-4.52-0.32-6.7-0.96c-2.17-0.64-4.1-1.6-5.79-2.87s-3.04-2.87-4.05-4.77c-1.01-1.9-1.52-4.13-1.52-6.68
				c0-1.84,0.3-3.53,0.91-5.07c0.61-1.54,1.43-2.93,2.47-4.16c1.04-1.23,2.25-2.32,3.63-3.25s2.84-1.71,4.37-2.32
				c1.53-0.62,3.09-1.08,4.68-1.4c1.59-0.31,3.13-0.47,4.6-0.47c1.95,0,3.65,0.16,5.1,0.49c1.45,0.32,2.65,0.76,3.62,1.31
				c0.96,0.55,1.68,1.18,2.15,1.9c0.47,0.72,0.71,1.47,0.71,2.26c0,0.95-0.36,1.81-1.07,2.57c-0.71,0.76-1.66,1.42-2.84,1.99
				L442.8,57.6z M450.74,51.43c0.34-0.16,0.63-0.32,0.85-0.47s0.4-0.33,0.53-0.55c0.13-0.21,0.23-0.48,0.3-0.79
				c0.07-0.31,0.1-0.7,0.1-1.17c0-0.51-0.07-1.07-0.22-1.69c-0.14-0.62-0.39-1.2-0.73-1.75c-0.34-0.55-0.78-1-1.3-1.37
				c-0.53-0.36-1.16-0.55-1.9-0.55c-0.95,0-1.76,0.22-2.43,0.65c-0.67,0.44-1.22,1-1.66,1.69c-0.43,0.69-0.78,1.47-1.03,2.35
				c-0.25,0.88-0.44,1.77-0.57,2.66c-0.13,0.89-0.21,1.75-0.24,2.57s-0.04,1.51-0.04,2.08L450.74,51.43z"/>
		</g>
	</g>
</g>
</svg>
